<mxfile host="Electron" modified="2024-01-15T07:33:25.376Z" agent="Mozilla/5.0 (Macintosh; Intel Mac OS X 10_15_7) AppleWebKit/537.36 (KHTML, like Gecko) draw.io/22.1.2 Chrome/114.0.5735.289 Electron/25.9.4 Safari/537.36" etag="MA4qYfI9Ox4hlSTzL6b_" version="22.1.2" type="device">
  <diagram id="JGr-Ll_8WcXBDww5d4Lf" name="tac_cpu">
    <mxGraphModel dx="1002" dy="611" grid="1" gridSize="4" guides="0" tooltips="1" connect="1" arrows="1" fold="1" page="1" pageScale="1" pageWidth="1169" pageHeight="827" math="0" shadow="0">
      <root>
        <mxCell id="0" />
        <mxCell id="1" parent="0" />
        <mxCell id="EofYS_D_NZ_xiahmsMuy-141" style="edgeStyle=orthogonalEdgeStyle;rounded=0;jumpStyle=arc;orthogonalLoop=1;jettySize=auto;html=1;exitX=0.5;exitY=1;exitDx=0;exitDy=0;entryX=0.783;entryY=-0.004;entryDx=0;entryDy=0;entryPerimeter=0;strokeWidth=4;fontFamily=Helvetica;fontSize=9;" parent="1" source="EofYS_D_NZ_xiahmsMuy-120" target="EofYS_D_NZ_xiahmsMuy-119" edge="1">
          <mxGeometry relative="1" as="geometry" />
        </mxCell>
        <mxCell id="EofYS_D_NZ_xiahmsMuy-143" value="" style="endArrow=classic;html=1;strokeWidth=2;fontFamily=Helvetica;fontSize=9;entryX=0.5;entryY=1;entryDx=0;entryDy=0;exitX=0.167;exitY=0.55;exitDx=0;exitDy=0;exitPerimeter=0;" parent="1" source="EofYS_D_NZ_xiahmsMuy-119" target="EofYS_D_NZ_xiahmsMuy-97" edge="1">
          <mxGeometry width="50" height="50" relative="1" as="geometry">
            <mxPoint x="214" y="642" as="sourcePoint" />
            <mxPoint x="362" y="520" as="targetPoint" />
          </mxGeometry>
        </mxCell>
        <mxCell id="EofYS_D_NZ_xiahmsMuy-139" style="edgeStyle=orthogonalEdgeStyle;rounded=0;jumpStyle=arc;orthogonalLoop=1;jettySize=auto;html=1;strokeWidth=4;fontFamily=Helvetica;fontSize=9;" parent="1" source="EofYS_D_NZ_xiahmsMuy-103" edge="1">
          <mxGeometry relative="1" as="geometry">
            <mxPoint x="460" y="440" as="targetPoint" />
            <Array as="points">
              <mxPoint x="460" y="400" />
              <mxPoint x="460" y="440" />
            </Array>
          </mxGeometry>
        </mxCell>
        <mxCell id="EofYS_D_NZ_xiahmsMuy-103" value="" style="whiteSpace=wrap;html=1;rounded=1;fontFamily=Helvetica;fontSize=11;align=left;" parent="1" vertex="1">
          <mxGeometry x="152" y="352" width="116" height="268" as="geometry" />
        </mxCell>
        <mxCell id="6sDZGdnhDBnSBTQq4RhG-3" value="" style="whiteSpace=wrap;html=1;fillColor=none;strokeWidth=3;" parent="1" vertex="1">
          <mxGeometry x="320" y="164" width="64" height="20" as="geometry" />
        </mxCell>
        <mxCell id="lAbWM95DbC8HT0INhDK0-1" value="" style="endArrow=classic;html=1;edgeStyle=orthogonalEdgeStyle;rounded=0;endFill=1;fontSize=8;strokeWidth=4;exitX=1;exitY=0.5;exitDx=0;exitDy=0;entryX=0.5;entryY=0;entryDx=0;entryDy=0;" parent="1" target="EofYS_D_NZ_xiahmsMuy-77" edge="1">
          <mxGeometry x="0.8852" y="-12" width="50" height="50" relative="1" as="geometry">
            <mxPoint x="68.00000000000023" y="124.00000000000023" as="sourcePoint" />
            <mxPoint x="664" y="208" as="targetPoint" />
            <mxPoint as="offset" />
          </mxGeometry>
        </mxCell>
        <mxCell id="lAbWM95DbC8HT0INhDK0-11" value="" style="endArrow=classic;html=1;rounded=0;fontSize=8;labelPosition=left;verticalLabelPosition=middle;align=right;verticalAlign=middle;entryX=0.47;entryY=-0.017;entryDx=0;entryDy=0;entryPerimeter=0;edgeStyle=orthogonalEdgeStyle;strokeWidth=4;" parent="1" target="6sDZGdnhDBnSBTQq4RhG-3" edge="1">
          <mxGeometry x="-0.36" width="50" height="50" relative="1" as="geometry">
            <mxPoint x="386" y="124" as="sourcePoint" />
            <mxPoint x="407" y="208" as="targetPoint" />
            <mxPoint as="offset" />
          </mxGeometry>
        </mxCell>
        <mxCell id="YvI756qhxBnF5AbZP2eW-13" value="GR" style="text;html=1;strokeColor=none;fillColor=none;align=center;verticalAlign=middle;whiteSpace=wrap;rounded=0;fontSize=14;" parent="1" vertex="1">
          <mxGeometry x="192" y="352" width="40" height="20" as="geometry" />
        </mxCell>
        <mxCell id="8lPEK188hTKVEnjZK4Hc-3" value="OP1" style="endArrow=classic;html=1;labelBackgroundColor=none;fontSize=9;exitX=0.5;exitY=1;exitDx=0;exitDy=0;strokeWidth=2;" parent="1" source="EofYS_D_NZ_xiahmsMuy-44" edge="1">
          <mxGeometry x="1" y="-4" width="50" height="50" relative="1" as="geometry">
            <mxPoint x="392" y="250" as="sourcePoint" />
            <mxPoint x="330" y="200" as="targetPoint" />
            <mxPoint x="4" y="4" as="offset" />
          </mxGeometry>
        </mxCell>
        <mxCell id="8lPEK188hTKVEnjZK4Hc-8" value="Rd" style="endArrow=classic;html=1;labelBackgroundColor=none;fontSize=9;exitX=0.5;exitY=1;exitDx=0;exitDy=0;strokeWidth=2;" parent="1" source="EofYS_D_NZ_xiahmsMuy-40" edge="1">
          <mxGeometry x="1" y="-4" width="50" height="50" relative="1" as="geometry">
            <mxPoint x="364.98699999999997" y="183.80000000000007" as="sourcePoint" />
            <mxPoint x="360" y="200" as="targetPoint" />
            <mxPoint x="4" y="4" as="offset" />
          </mxGeometry>
        </mxCell>
        <mxCell id="8lPEK188hTKVEnjZK4Hc-9" value="Rx&lt;br&gt;Rs" style="endArrow=classic;html=1;labelBackgroundColor=none;fontSize=9;exitX=0.5;exitY=1;exitDx=0;exitDy=0;verticalAlign=middle;spacing=2;strokeWidth=2;" parent="1" source="EofYS_D_NZ_xiahmsMuy-39" edge="1">
          <mxGeometry x="1" y="-8" width="50" height="50" relative="1" as="geometry">
            <mxPoint x="382.98699999999997" y="183.80000000000007" as="sourcePoint" />
            <mxPoint x="376" y="212" as="targetPoint" />
            <mxPoint x="8" y="8" as="offset" />
          </mxGeometry>
        </mxCell>
        <mxCell id="EofYS_D_NZ_xiahmsMuy-33" value="3&lt;br&gt;bit" style="rounded=0;whiteSpace=wrap;html=1;fontFamily=Courier New;fontSize=5;align=center;dashed=1;dashPattern=1 1;fillColor=none;strokeWidth=3;" parent="1" vertex="1">
          <mxGeometry x="340" y="164" width="12" height="20" as="geometry" />
        </mxCell>
        <mxCell id="EofYS_D_NZ_xiahmsMuy-39" value="4bit" style="rounded=0;whiteSpace=wrap;html=1;fontFamily=Courier New;fontSize=5;align=center;dashed=1;dashPattern=1 1;fillColor=none;strokeWidth=3;" parent="1" vertex="1">
          <mxGeometry x="368" y="164" width="16" height="20" as="geometry" />
        </mxCell>
        <mxCell id="EofYS_D_NZ_xiahmsMuy-40" value="4bit" style="rounded=0;whiteSpace=wrap;html=1;fontFamily=Courier New;fontSize=5;align=center;dashed=1;dashPattern=1 1;fillColor=none;strokeColor=none;strokeWidth=3;" parent="1" vertex="1">
          <mxGeometry x="352" y="164" width="16" height="20" as="geometry" />
        </mxCell>
        <mxCell id="EofYS_D_NZ_xiahmsMuy-41" value="OP2" style="endArrow=classic;html=1;labelBackgroundColor=none;fontSize=9;verticalAlign=middle;spacing=2;strokeWidth=2;" parent="1" source="EofYS_D_NZ_xiahmsMuy-33" edge="1">
          <mxGeometry x="1" y="-8" width="50" height="50" relative="1" as="geometry">
            <mxPoint x="348" y="184" as="sourcePoint" />
            <mxPoint x="346" y="212" as="targetPoint" />
            <mxPoint x="8" y="8" as="offset" />
          </mxGeometry>
        </mxCell>
        <mxCell id="EofYS_D_NZ_xiahmsMuy-44" value="&lt;font style=&quot;font-size: 5px;&quot;&gt;5bit&lt;/font&gt;" style="rounded=0;whiteSpace=wrap;html=1;fontFamily=Courier New;fontSize=5;align=center;dashed=1;dashPattern=1 1;fillColor=none;strokeColor=none;strokeWidth=3;" parent="1" vertex="1">
          <mxGeometry x="320" y="164" width="20" height="20" as="geometry" />
        </mxCell>
        <mxCell id="EofYS_D_NZ_xiahmsMuy-46" style="edgeStyle=orthogonalEdgeStyle;rounded=0;orthogonalLoop=1;jettySize=auto;html=1;entryX=0;entryY=0.5;entryDx=0;entryDy=0;strokeWidth=1;fontFamily=Helvetica;fontSize=11;strokeColor=#3333FF;" parent="1" target="EofYS_D_NZ_xiahmsMuy-44" edge="1">
          <mxGeometry relative="1" as="geometry">
            <mxPoint x="292" y="174" as="sourcePoint" />
          </mxGeometry>
        </mxCell>
        <mxCell id="EofYS_D_NZ_xiahmsMuy-123" style="edgeStyle=orthogonalEdgeStyle;rounded=0;orthogonalLoop=1;jettySize=auto;html=1;exitX=0.5;exitY=1;exitDx=0;exitDy=0;strokeWidth=4;fontFamily=Helvetica;fontSize=11;entryX=0.795;entryY=-0.012;entryDx=0;entryDy=0;entryPerimeter=0;" parent="1" source="EofYS_D_NZ_xiahmsMuy-47" target="EofYS_D_NZ_xiahmsMuy-120" edge="1">
          <mxGeometry relative="1" as="geometry">
            <mxPoint x="516" y="554" as="targetPoint" />
          </mxGeometry>
        </mxCell>
        <mxCell id="shBhoWdEmqtdn-skNixz-95" style="edgeStyle=orthogonalEdgeStyle;rounded=0;sketch=0;orthogonalLoop=1;jettySize=auto;html=1;exitX=0.5;exitY=1;exitDx=0;exitDy=0;entryX=0.804;entryY=0;entryDx=0;entryDy=0;strokeWidth=4;fontSize=9;entryPerimeter=0;" parent="1" source="EofYS_D_NZ_xiahmsMuy-47" target="EofYS_D_NZ_xiahmsMuy-127" edge="1">
          <mxGeometry relative="1" as="geometry">
            <Array as="points">
              <mxPoint x="516" y="248" />
              <mxPoint x="468" y="248" />
              <mxPoint x="468" y="272" />
            </Array>
          </mxGeometry>
        </mxCell>
        <mxCell id="EofYS_D_NZ_xiahmsMuy-47" value="DR" style="rounded=0;whiteSpace=wrap;html=1;fontFamily=Helvetica;fontSize=11;align=center;strokeWidth=3;" parent="1" vertex="1">
          <mxGeometry x="484" y="216" width="64" height="20" as="geometry" />
        </mxCell>
        <mxCell id="EofYS_D_NZ_xiahmsMuy-50" value="" style="endArrow=classic;html=1;strokeWidth=4;fontFamily=Helvetica;fontSize=11;entryX=0.5;entryY=0;entryDx=0;entryDy=0;" parent="1" edge="1">
          <mxGeometry width="50" height="50" relative="1" as="geometry">
            <mxPoint x="516" y="188" as="sourcePoint" />
            <mxPoint x="516" y="216" as="targetPoint" />
          </mxGeometry>
        </mxCell>
        <mxCell id="EofYS_D_NZ_xiahmsMuy-51" style="edgeStyle=orthogonalEdgeStyle;rounded=0;orthogonalLoop=1;jettySize=auto;html=1;entryX=0;entryY=0.5;entryDx=0;entryDy=0;strokeWidth=1;fontFamily=Helvetica;fontSize=11;strokeColor=#3333FF;" parent="1" edge="1">
          <mxGeometry relative="1" as="geometry">
            <mxPoint x="456" y="226" as="sourcePoint" />
            <mxPoint x="483.9999999999999" y="226" as="targetPoint" />
          </mxGeometry>
        </mxCell>
        <mxCell id="EofYS_D_NZ_xiahmsMuy-54" value="" style="endArrow=classic;html=1;strokeWidth=4;fontFamily=Helvetica;fontSize=11;entryX=0.124;entryY=-0.007;entryDx=0;entryDy=0;entryPerimeter=0;" parent="1" edge="1">
          <mxGeometry width="50" height="50" relative="1" as="geometry">
            <mxPoint x="468.05" y="125" as="sourcePoint" />
            <mxPoint x="467.87199999999984" y="163.8599999999999" as="targetPoint" />
          </mxGeometry>
        </mxCell>
        <mxCell id="EofYS_D_NZ_xiahmsMuy-55" value="" style="endArrow=classic;html=1;strokeWidth=4;fontFamily=Helvetica;fontSize=11;entryX=0.375;entryY=0.016;entryDx=0;entryDy=0;entryPerimeter=0;" parent="1" edge="1">
          <mxGeometry width="50" height="50" relative="1" as="geometry">
            <mxPoint x="500.04999999999995" y="124" as="sourcePoint" />
            <mxPoint x="499.9999999999998" y="164.31999999999994" as="targetPoint" />
          </mxGeometry>
        </mxCell>
        <mxCell id="EofYS_D_NZ_xiahmsMuy-56" value="" style="endArrow=classic;html=1;strokeWidth=4;fontFamily=Helvetica;fontSize=11;entryX=0.626;entryY=0.013;entryDx=0;entryDy=0;entryPerimeter=0;" parent="1" edge="1">
          <mxGeometry width="50" height="50" relative="1" as="geometry">
            <mxPoint x="532.05" y="124" as="sourcePoint" />
            <mxPoint x="532.1279999999999" y="164.26" as="targetPoint" />
          </mxGeometry>
        </mxCell>
        <mxCell id="EofYS_D_NZ_xiahmsMuy-57" value="" style="endArrow=classic;html=1;strokeWidth=4;fontFamily=Helvetica;fontSize=11;" parent="1" edge="1">
          <mxGeometry width="50" height="50" relative="1" as="geometry">
            <mxPoint x="564.05" y="124" as="sourcePoint" />
            <mxPoint x="564" y="164" as="targetPoint" />
          </mxGeometry>
        </mxCell>
        <mxCell id="EofYS_D_NZ_xiahmsMuy-76" style="edgeStyle=orthogonalEdgeStyle;rounded=0;orthogonalLoop=1;jettySize=auto;html=1;entryX=0.102;entryY=0.508;entryDx=0;entryDy=0;strokeWidth=2;fontFamily=Helvetica;fontSize=11;exitX=1.007;exitY=0.503;exitDx=0;exitDy=0;exitPerimeter=0;entryPerimeter=0;strokeColor=#3333FF;" parent="1" target="EofYS_D_NZ_xiahmsMuy-121" edge="1">
          <mxGeometry relative="1" as="geometry">
            <mxPoint x="452" y="174" as="targetPoint" />
            <Array as="points">
              <mxPoint x="428" y="178" />
            </Array>
            <mxPoint x="428.28" y="178.05999999999995" as="sourcePoint" />
          </mxGeometry>
        </mxCell>
        <mxCell id="EofYS_D_NZ_xiahmsMuy-156" style="edgeStyle=orthogonalEdgeStyle;rounded=0;jumpStyle=arc;orthogonalLoop=1;jettySize=auto;html=1;exitX=0.75;exitY=1;exitDx=0;exitDy=0;strokeWidth=4;fontFamily=Helvetica;fontSize=9;" parent="1" source="EofYS_D_NZ_xiahmsMuy-77" edge="1">
          <mxGeometry relative="1" as="geometry">
            <mxPoint x="768" y="228" as="targetPoint" />
            <Array as="points">
              <mxPoint x="656" y="228" />
            </Array>
          </mxGeometry>
        </mxCell>
        <mxCell id="EofYS_D_NZ_xiahmsMuy-169" style="edgeStyle=orthogonalEdgeStyle;rounded=0;jumpStyle=arc;orthogonalLoop=1;jettySize=auto;html=1;exitX=0.75;exitY=1;exitDx=0;exitDy=0;entryX=0;entryY=0.5;entryDx=0;entryDy=0;strokeWidth=4;fontFamily=Helvetica;fontSize=9;" parent="1" source="EofYS_D_NZ_xiahmsMuy-77" target="EofYS_D_NZ_xiahmsMuy-157" edge="1">
          <mxGeometry relative="1" as="geometry" />
        </mxCell>
        <mxCell id="EofYS_D_NZ_xiahmsMuy-77" value="PC" style="rounded=0;whiteSpace=wrap;html=1;fontFamily=Helvetica;fontSize=11;align=center;strokeWidth=3;" parent="1" vertex="1">
          <mxGeometry x="608" y="192" width="64" height="20" as="geometry" />
        </mxCell>
        <mxCell id="EofYS_D_NZ_xiahmsMuy-79" style="edgeStyle=orthogonalEdgeStyle;rounded=0;orthogonalLoop=1;jettySize=auto;html=1;entryX=0;entryY=0.5;entryDx=0;entryDy=0;strokeWidth=2;fontFamily=Helvetica;fontSize=11;strokeColor=#3333FF;" parent="1" target="EofYS_D_NZ_xiahmsMuy-77" edge="1">
          <mxGeometry relative="1" as="geometry">
            <mxPoint x="588" y="202" as="sourcePoint" />
            <Array as="points">
              <mxPoint x="588" y="202" />
            </Array>
          </mxGeometry>
        </mxCell>
        <mxCell id="EofYS_D_NZ_xiahmsMuy-80" value="G0" style="rounded=0;whiteSpace=wrap;html=1;fontFamily=Helvetica;fontSize=11;align=center;strokeWidth=3;" parent="1" vertex="1">
          <mxGeometry x="182" y="376" width="64" height="20" as="geometry" />
        </mxCell>
        <mxCell id="EofYS_D_NZ_xiahmsMuy-82" value="#0" style="text;html=1;strokeColor=none;fillColor=none;align=right;verticalAlign=middle;whiteSpace=wrap;rounded=0;fontFamily=Helvetica;fontSize=11;spacing=0;" parent="1" vertex="1">
          <mxGeometry x="160" y="376" width="16" height="20" as="geometry" />
        </mxCell>
        <mxCell id="EofYS_D_NZ_xiahmsMuy-83" value="G1" style="rounded=0;whiteSpace=wrap;html=1;fontFamily=Helvetica;fontSize=11;align=center;strokeWidth=3;" parent="1" vertex="1">
          <mxGeometry x="182" y="396" width="64" height="20" as="geometry" />
        </mxCell>
        <mxCell id="EofYS_D_NZ_xiahmsMuy-84" value="#1" style="text;html=1;strokeColor=none;fillColor=none;align=right;verticalAlign=middle;whiteSpace=wrap;rounded=0;fontFamily=Helvetica;fontSize=11;spacing=0;" parent="1" vertex="1">
          <mxGeometry x="160" y="396" width="16" height="20" as="geometry" />
        </mxCell>
        <mxCell id="EofYS_D_NZ_xiahmsMuy-85" value="#2" style="text;html=1;strokeColor=none;fillColor=none;align=right;verticalAlign=middle;whiteSpace=wrap;rounded=0;fontFamily=Helvetica;fontSize=11;spacing=0;" parent="1" vertex="1">
          <mxGeometry x="160" y="416" width="16" height="20" as="geometry" />
        </mxCell>
        <mxCell id="EofYS_D_NZ_xiahmsMuy-86" value="G2" style="rounded=0;whiteSpace=wrap;html=1;fontFamily=Helvetica;fontSize=11;align=center;strokeWidth=3;" parent="1" vertex="1">
          <mxGeometry x="182" y="416" width="64" height="20" as="geometry" />
        </mxCell>
        <mxCell id="EofYS_D_NZ_xiahmsMuy-88" value="..." style="rounded=0;whiteSpace=wrap;html=1;fontFamily=Helvetica;fontSize=11;align=center;strokeWidth=3;" parent="1" vertex="1">
          <mxGeometry x="182" y="436" width="64" height="92" as="geometry" />
        </mxCell>
        <mxCell id="EofYS_D_NZ_xiahmsMuy-89" value="#2" style="text;html=1;strokeColor=none;fillColor=none;align=right;verticalAlign=middle;whiteSpace=wrap;rounded=0;fontFamily=Helvetica;fontSize=11;spacing=0;" parent="1" vertex="1">
          <mxGeometry x="160" y="436" width="16" height="20" as="geometry" />
        </mxCell>
        <mxCell id="EofYS_D_NZ_xiahmsMuy-128" style="edgeStyle=orthogonalEdgeStyle;rounded=0;jumpStyle=arc;orthogonalLoop=1;jettySize=auto;html=1;exitX=1;exitY=0.5;exitDx=0;exitDy=0;strokeWidth=4;fontFamily=Helvetica;fontSize=13;entryX=0;entryY=0.75;entryDx=0;entryDy=0;" parent="1" source="EofYS_D_NZ_xiahmsMuy-90" target="EofYS_D_NZ_xiahmsMuy-127" edge="1">
          <mxGeometry relative="1" as="geometry">
            <Array as="points">
              <mxPoint x="348" y="538" />
              <mxPoint x="348" y="305" />
            </Array>
            <mxPoint x="372" y="320" as="targetPoint" />
          </mxGeometry>
        </mxCell>
        <mxCell id="EofYS_D_NZ_xiahmsMuy-90" value="FP" style="rounded=0;whiteSpace=wrap;html=1;fontFamily=Helvetica;fontSize=11;align=center;strokeWidth=3;" parent="1" vertex="1">
          <mxGeometry x="182" y="528" width="64" height="20" as="geometry" />
        </mxCell>
        <mxCell id="EofYS_D_NZ_xiahmsMuy-91" value="#C" style="text;html=1;strokeColor=none;fillColor=none;align=right;verticalAlign=middle;whiteSpace=wrap;rounded=0;fontFamily=Helvetica;fontSize=11;spacing=0;" parent="1" vertex="1">
          <mxGeometry x="160" y="528" width="16" height="20" as="geometry" />
        </mxCell>
        <mxCell id="EofYS_D_NZ_xiahmsMuy-92" value="SP" style="rounded=0;whiteSpace=wrap;html=1;fontFamily=Helvetica;fontSize=11;align=center;strokeWidth=3;" parent="1" vertex="1">
          <mxGeometry x="182" y="548" width="64" height="20" as="geometry" />
        </mxCell>
        <mxCell id="EofYS_D_NZ_xiahmsMuy-93" value="#D" style="text;html=1;strokeColor=none;fillColor=none;align=right;verticalAlign=middle;whiteSpace=wrap;rounded=0;fontFamily=Helvetica;fontSize=11;spacing=0;" parent="1" vertex="1">
          <mxGeometry x="160" y="548" width="16" height="20" as="geometry" />
        </mxCell>
        <mxCell id="EofYS_D_NZ_xiahmsMuy-94" value="#E" style="text;html=1;strokeColor=none;fillColor=none;align=right;verticalAlign=middle;whiteSpace=wrap;rounded=0;fontFamily=Helvetica;fontSize=11;spacing=0;" parent="1" vertex="1">
          <mxGeometry x="160" y="568" width="16" height="20" as="geometry" />
        </mxCell>
        <mxCell id="EofYS_D_NZ_xiahmsMuy-95" value="USP" style="rounded=0;whiteSpace=wrap;html=1;fontFamily=Helvetica;fontSize=11;align=center;strokeWidth=3;" parent="1" vertex="1">
          <mxGeometry x="182" y="568" width="64" height="20" as="geometry" />
        </mxCell>
        <mxCell id="EofYS_D_NZ_xiahmsMuy-96" value="#F" style="text;html=1;strokeColor=none;fillColor=none;align=right;verticalAlign=middle;whiteSpace=wrap;rounded=0;fontFamily=Helvetica;fontSize=11;spacing=0;" parent="1" vertex="1">
          <mxGeometry x="160" y="588" width="16" height="20" as="geometry" />
        </mxCell>
        <mxCell id="EofYS_D_NZ_xiahmsMuy-124" style="edgeStyle=orthogonalEdgeStyle;rounded=0;orthogonalLoop=1;jettySize=auto;html=1;exitX=1;exitY=0.5;exitDx=0;exitDy=0;strokeWidth=4;fontFamily=Helvetica;fontSize=11;jumpStyle=arc;entryX=0.204;entryY=0.012;entryDx=0;entryDy=0;entryPerimeter=0;" parent="1" source="EofYS_D_NZ_xiahmsMuy-97" target="EofYS_D_NZ_xiahmsMuy-174" edge="1">
          <mxGeometry relative="1" as="geometry">
            <mxPoint x="767" y="608" as="targetPoint" />
            <Array as="points">
              <mxPoint x="616" y="598" />
              <mxPoint x="616" y="612" />
            </Array>
          </mxGeometry>
        </mxCell>
        <mxCell id="EofYS_D_NZ_xiahmsMuy-198" style="edgeStyle=orthogonalEdgeStyle;rounded=0;jumpStyle=arc;orthogonalLoop=1;jettySize=auto;html=1;exitX=1;exitY=0.5;exitDx=0;exitDy=0;entryX=0;entryY=0.5;entryDx=0;entryDy=0;strokeWidth=4;fontFamily=Helvetica;fontSize=9;" parent="1" source="EofYS_D_NZ_xiahmsMuy-97" target="EofYS_D_NZ_xiahmsMuy-196" edge="1">
          <mxGeometry relative="1" as="geometry">
            <Array as="points">
              <mxPoint x="616" y="598" />
              <mxPoint x="616" y="644" />
            </Array>
          </mxGeometry>
        </mxCell>
        <mxCell id="EofYS_D_NZ_xiahmsMuy-97" value="FLAG" style="rounded=0;whiteSpace=wrap;html=1;fontFamily=Helvetica;fontSize=11;align=center;strokeWidth=3;" parent="1" vertex="1">
          <mxGeometry x="182" y="588" width="64" height="20" as="geometry" />
        </mxCell>
        <mxCell id="EofYS_D_NZ_xiahmsMuy-176" style="edgeStyle=orthogonalEdgeStyle;rounded=0;jumpStyle=arc;orthogonalLoop=1;jettySize=auto;html=1;exitX=1;exitY=0.5;exitDx=0;exitDy=0;entryX=0;entryY=0.5;entryDx=0;entryDy=0;strokeWidth=4;fontFamily=Helvetica;fontSize=9;" parent="1" source="EofYS_D_NZ_xiahmsMuy-98" target="EofYS_D_NZ_xiahmsMuy-165" edge="1">
          <mxGeometry relative="1" as="geometry">
            <Array as="points">
              <mxPoint x="256" y="560" />
              <mxPoint x="560" y="560" />
              <mxPoint x="560" y="360" />
            </Array>
          </mxGeometry>
        </mxCell>
        <mxCell id="EofYS_D_NZ_xiahmsMuy-177" style="edgeStyle=orthogonalEdgeStyle;rounded=0;jumpStyle=arc;orthogonalLoop=1;jettySize=auto;html=1;exitX=1;exitY=0.5;exitDx=0;exitDy=0;entryX=0.429;entryY=-0.006;entryDx=0;entryDy=0;entryPerimeter=0;strokeWidth=4;fontFamily=Helvetica;fontSize=9;" parent="1" source="EofYS_D_NZ_xiahmsMuy-98" target="EofYS_D_NZ_xiahmsMuy-154" edge="1">
          <mxGeometry relative="1" as="geometry">
            <Array as="points">
              <mxPoint x="256" y="560" />
              <mxPoint x="560" y="560" />
              <mxPoint x="560" y="326" />
            </Array>
          </mxGeometry>
        </mxCell>
        <mxCell id="EofYS_D_NZ_xiahmsMuy-178" style="edgeStyle=orthogonalEdgeStyle;rounded=0;jumpStyle=arc;orthogonalLoop=1;jettySize=auto;html=1;exitX=1;exitY=0.379;exitDx=0;exitDy=0;entryX=0;entryY=0.5;entryDx=0;entryDy=0;strokeWidth=4;fontFamily=Helvetica;fontSize=9;exitPerimeter=0;" parent="1" source="EofYS_D_NZ_xiahmsMuy-98" target="EofYS_D_NZ_xiahmsMuy-167" edge="1">
          <mxGeometry relative="1" as="geometry">
            <Array as="points">
              <mxPoint x="560" y="560" />
              <mxPoint x="560" y="396" />
            </Array>
          </mxGeometry>
        </mxCell>
        <mxCell id="EofYS_D_NZ_xiahmsMuy-98" value="SSP" style="rounded=0;whiteSpace=wrap;html=1;fontFamily=Helvetica;fontSize=11;align=center;strokeWidth=3;" parent="1" vertex="1">
          <mxGeometry x="192" y="552" width="64" height="20" as="geometry" />
        </mxCell>
        <mxCell id="EofYS_D_NZ_xiahmsMuy-144" style="edgeStyle=orthogonalEdgeStyle;rounded=0;jumpStyle=arc;orthogonalLoop=1;jettySize=auto;html=1;exitX=0.5;exitY=1;exitDx=0;exitDy=0;entryX=-0.005;entryY=0.389;entryDx=0;entryDy=0;entryPerimeter=0;strokeWidth=4;fontFamily=Helvetica;fontSize=9;" parent="1" source="EofYS_D_NZ_xiahmsMuy-119" target="EofYS_D_NZ_xiahmsMuy-103" edge="1">
          <mxGeometry relative="1" as="geometry">
            <Array as="points">
              <mxPoint x="128" y="680" />
              <mxPoint x="128" y="456" />
            </Array>
          </mxGeometry>
        </mxCell>
        <mxCell id="EofYS_D_NZ_xiahmsMuy-148" style="edgeStyle=orthogonalEdgeStyle;rounded=0;jumpStyle=arc;orthogonalLoop=1;jettySize=auto;html=1;exitX=0.5;exitY=1;exitDx=0;exitDy=0;strokeWidth=1;fontFamily=Helvetica;fontSize=9;entryX=0.995;entryY=0.477;entryDx=0;entryDy=0;entryPerimeter=0;" parent="1" source="EofYS_D_NZ_xiahmsMuy-119" edge="1">
          <mxGeometry relative="1" as="geometry">
            <mxPoint x="151.8" y="691.6320000000001" as="targetPoint" />
            <Array as="points">
              <mxPoint x="196" y="692" />
            </Array>
          </mxGeometry>
        </mxCell>
        <mxCell id="EofYS_D_NZ_xiahmsMuy-119" value="ALU" style="shape=stencil(tZXrjoMgEIWfhr8bkdpNf27Y3fegdlpJEQzQdvv2i44mZb1sL5oYkzkHvxniQQnjrhAVkDTRogTCPkmaCnUK9yAVWGcJlhcs6aqthasg9yiehZViqwAd5605wkXufIuQugArfe2yL5J8hDX1xXhutA4QabSLnBs/wITU4dnkB2Ft+2tUVYFfggfbDokqSb/vx75ly4DpQvPG2G762eedDxxPTJd6cbOB6fNYxoMyFm7GtyI/Hqw56d3gMJWoD07P6OzSnOGf4zC8zQ6gpL4BsJiQPYGgdAbG6uWdvG9eJvzJaPY4Yj143qcJuTIOJtIZ9F4mGnUkSIzvjYWJhO2lUviVnug6uqBp3evQqPg7aYRf);whiteSpace=wrap;html=1;direction=south;align=left;" parent="1" vertex="1">
          <mxGeometry x="196" y="632" width="40" height="96" as="geometry" />
        </mxCell>
        <mxCell id="EofYS_D_NZ_xiahmsMuy-120" value="MUX B" style="shape=stencil(tZTvboMgFMWfhq+LSE3Tjwvb3oPa20mKYID+2dvv6tWkxOq2ThNjcs/B3z3kgkzIUKkGWJ5ZVQMTbyzP6/MN3yhVVBcZlVcq+aavVWigjCRelNdqb4CcEL07wVUfYo/QtgKvY+uKd5a94pr2EbJ01iJEOxsS585HmNIWv81uBOvbfyVVg/waIvg+JKks//g99qVYB8xXyptih/SL510OnCbmaw1uMTB/HiskKlOHW8i9Kk+f3p3t4WGYRrUXZ2QMdu0u8MN1eLzNAWC0vQOIlFA8geB8Acbm3zvZ7v5OKI0LMHMwUB+No1MnZijk0XmYGe5RG0M/yJmukwu61qMOnUp/8k74Bg==);whiteSpace=wrap;html=1;direction=east;align=center;" parent="1" vertex="1">
          <mxGeometry x="440" y="440" width="96" height="28" as="geometry" />
        </mxCell>
        <mxCell id="EofYS_D_NZ_xiahmsMuy-121" value="MUX W" style="shape=stencil(tZTvboMgFMWfhq+LSE3Tjwvb3oPa20mKYID+2dvv6tWkxOq2ThNjcs/B3z3kgkzIUKkGWJ5ZVQMTbyzP6/MN3yhVVBcZlVcq+aavVWigjCRelNdqb4CcEL07wVUfYo/QtgKvY+uKd5a94pr2EbJ01iJEOxsS585HmNIWv81uBOvbfyVVg/waIvg+JKks//g99qVYB8xXyptih/SL510OnCbmaw1uMTB/HiskKlOHW8i9Kk+f3p3t4WGYRrUXZ2QMdu0u8MN1eLzNAWC0vQOIlFA8geB8Acbm3zvZ7v5OKI0LMHMwUB+No1MnZijk0XmYGe5RG0M/yJmukwu61qMOnUp/8k74Bg==);whiteSpace=wrap;html=1;direction=east;align=center;" parent="1" vertex="1">
          <mxGeometry x="452" y="164" width="128" height="28" as="geometry" />
        </mxCell>
        <mxCell id="EofYS_D_NZ_xiahmsMuy-127" value="EA" style="whiteSpace=wrap;html=1;rounded=1;fontFamily=Helvetica;fontSize=13;align=center;" parent="1" vertex="1">
          <mxGeometry x="384" y="272" width="104" height="44" as="geometry" />
        </mxCell>
        <mxCell id="EofYS_D_NZ_xiahmsMuy-130" value="&lt;font style=&quot;font-size: 9px;&quot;&gt;FP&lt;/font&gt;" style="text;html=1;align=left;verticalAlign=middle;resizable=0;points=[];autosize=1;fontSize=9;fontFamily=Helvetica;" parent="1" vertex="1">
          <mxGeometry x="384" y="296" width="28" height="16" as="geometry" />
        </mxCell>
        <mxCell id="EofYS_D_NZ_xiahmsMuy-131" value="&lt;font style=&quot;font-size: 9px;&quot;&gt;GR[Rx]&lt;/font&gt;" style="text;html=1;align=left;verticalAlign=middle;resizable=0;points=[];autosize=1;fontSize=9;fontFamily=Helvetica;" parent="1" vertex="1">
          <mxGeometry x="384" y="276" width="44" height="16" as="geometry" />
        </mxCell>
        <mxCell id="EofYS_D_NZ_xiahmsMuy-132" value="OP2" style="text;html=1;align=center;verticalAlign=middle;resizable=0;points=[];autosize=1;fontSize=9;fontFamily=Helvetica;" parent="1" vertex="1">
          <mxGeometry x="416" y="272" width="32" height="16" as="geometry" />
        </mxCell>
        <mxCell id="EofYS_D_NZ_xiahmsMuy-133" value="" style="endArrow=classic;html=1;strokeWidth=2;fontFamily=Helvetica;fontSize=9;edgeStyle=orthogonalEdgeStyle;rounded=0;entryX=0.488;entryY=-0.05;entryDx=0;entryDy=0;entryPerimeter=0;" parent="1" target="EofYS_D_NZ_xiahmsMuy-132" edge="1">
          <mxGeometry width="50" height="50" relative="1" as="geometry">
            <mxPoint x="346" y="227" as="sourcePoint" />
            <mxPoint x="412" y="260" as="targetPoint" />
            <Array as="points">
              <mxPoint x="346" y="240" />
              <mxPoint x="432" y="240" />
              <mxPoint x="432" y="271" />
            </Array>
          </mxGeometry>
        </mxCell>
        <mxCell id="EofYS_D_NZ_xiahmsMuy-142" style="edgeStyle=orthogonalEdgeStyle;rounded=0;jumpStyle=arc;orthogonalLoop=1;jettySize=auto;html=1;entryX=0.227;entryY=-0.004;entryDx=0;entryDy=0;entryPerimeter=0;strokeWidth=4;fontFamily=Helvetica;fontSize=9;exitX=1;exitY=0.846;exitDx=0;exitDy=0;exitPerimeter=0;" parent="1" source="EofYS_D_NZ_xiahmsMuy-103" target="EofYS_D_NZ_xiahmsMuy-119" edge="1">
          <mxGeometry relative="1" as="geometry">
            <mxPoint x="272" y="582" as="sourcePoint" />
            <Array as="points">
              <mxPoint x="416" y="579" />
              <mxPoint x="416" y="654" />
            </Array>
          </mxGeometry>
        </mxCell>
        <mxCell id="EofYS_D_NZ_xiahmsMuy-168" style="edgeStyle=orthogonalEdgeStyle;rounded=0;jumpStyle=arc;orthogonalLoop=1;jettySize=auto;html=1;strokeWidth=4;fontFamily=Helvetica;fontSize=9;exitX=0.997;exitY=0.179;exitDx=0;exitDy=0;exitPerimeter=0;entryX=0;entryY=0.25;entryDx=0;entryDy=0;" parent="1" source="EofYS_D_NZ_xiahmsMuy-103" target="EofYS_D_NZ_xiahmsMuy-127" edge="1">
          <mxGeometry relative="1" as="geometry">
            <mxPoint x="268" y="352" as="sourcePoint" />
            <Array as="points">
              <mxPoint x="324" y="400" />
              <mxPoint x="324" y="283" />
            </Array>
            <mxPoint x="384" y="289" as="targetPoint" />
          </mxGeometry>
        </mxCell>
        <mxCell id="EofYS_D_NZ_xiahmsMuy-150" value="" style="endArrow=classic;html=1;strokeWidth=1;fontFamily=Helvetica;fontSize=9;entryX=0.942;entryY=0.286;entryDx=0;entryDy=0;entryPerimeter=0;strokeColor=#3333FF;" parent="1" target="EofYS_D_NZ_xiahmsMuy-119" edge="1">
          <mxGeometry width="50" height="50" relative="1" as="geometry">
            <mxPoint x="224.1218804410911" y="743.9999999999999" as="sourcePoint" />
            <mxPoint x="362" y="648" as="targetPoint" />
          </mxGeometry>
        </mxCell>
        <mxCell id="EofYS_D_NZ_xiahmsMuy-152" value="" style="endArrow=classic;html=1;strokeWidth=2;fontFamily=Helvetica;fontSize=9;entryX=0.882;entryY=0.671;entryDx=0;entryDy=0;entryPerimeter=0;rounded=0;exitX=0.991;exitY=0.5;exitDx=0;exitDy=0;exitPerimeter=0;" parent="1" target="EofYS_D_NZ_xiahmsMuy-119" edge="1">
          <mxGeometry width="50" height="50" relative="1" as="geometry">
            <mxPoint x="175.712" y="740.0000000000001" as="sourcePoint" />
            <mxPoint x="362" y="648" as="targetPoint" />
            <Array as="points">
              <mxPoint x="209" y="740" />
            </Array>
          </mxGeometry>
        </mxCell>
        <mxCell id="EofYS_D_NZ_xiahmsMuy-209" style="edgeStyle=orthogonalEdgeStyle;rounded=0;jumpStyle=arc;orthogonalLoop=1;jettySize=auto;html=1;exitX=0.505;exitY=1;exitDx=0;exitDy=0;strokeWidth=4;fontFamily=Helvetica;fontSize=9;exitPerimeter=0;entryX=-0.05;entryY=0.59;entryDx=0;entryDy=0;entryPerimeter=0;" parent="1" source="EofYS_D_NZ_xiahmsMuy-154" edge="1">
          <mxGeometry relative="1" as="geometry">
            <mxPoint x="858.4000000000001" y="311.44000000000005" as="targetPoint" />
            <Array as="points">
              <mxPoint x="824" y="311" />
            </Array>
          </mxGeometry>
        </mxCell>
        <mxCell id="EofYS_D_NZ_xiahmsMuy-154" value="MUX&lt;br&gt;A" style="shape=stencil(tZTvboMgFMWfhq+LSE3Tjwvb3oPa20mKYID+2dvv6tWkxOq2ThNjcs/B3z3kgkzIUKkGWJ5ZVQMTbyzP6/MN3yhVVBcZlVcq+aavVWigjCRelNdqb4CcEL07wVUfYo/QtgKvY+uKd5a94pr2EbJ01iJEOxsS585HmNIWv81uBOvbfyVVg/waIvg+JKks//g99qVYB8xXyptih/SL510OnCbmaw1uMTB/HiskKlOHW8i9Kk+f3p3t4WGYRrUXZ2QMdu0u8MN1eLzNAWC0vQOIlFA8geB8Acbm3zvZ7v5OKI0LMHMwUB+No1MnZijk0XmYGe5RG0M/yJmukwu61qMOnUp/8k74Bg==);whiteSpace=wrap;html=1;direction=north;align=center;" parent="1" vertex="1">
          <mxGeometry x="768" y="216" width="28" height="192" as="geometry" />
        </mxCell>
        <mxCell id="EofYS_D_NZ_xiahmsMuy-158" style="edgeStyle=orthogonalEdgeStyle;rounded=0;jumpStyle=arc;orthogonalLoop=1;jettySize=auto;html=1;exitX=1;exitY=0.5;exitDx=0;exitDy=0;strokeWidth=4;fontFamily=Helvetica;fontSize=9;" parent="1" source="EofYS_D_NZ_xiahmsMuy-157" edge="1">
          <mxGeometry relative="1" as="geometry">
            <mxPoint x="768" y="256" as="targetPoint" />
          </mxGeometry>
        </mxCell>
        <mxCell id="EofYS_D_NZ_xiahmsMuy-157" value="+2" style="rounded=0;whiteSpace=wrap;html=1;fontFamily=Helvetica;fontSize=11;align=center;" parent="1" vertex="1">
          <mxGeometry x="688" y="244" width="24" height="24" as="geometry" />
        </mxCell>
        <mxCell id="EofYS_D_NZ_xiahmsMuy-160" style="edgeStyle=orthogonalEdgeStyle;rounded=0;jumpStyle=arc;orthogonalLoop=1;jettySize=auto;html=1;strokeWidth=4;fontFamily=Helvetica;fontSize=9;entryX=0.592;entryY=0.016;entryDx=0;entryDy=0;entryPerimeter=0;exitX=1;exitY=0.5;exitDx=0;exitDy=0;" parent="1" source="EofYS_D_NZ_xiahmsMuy-127" target="EofYS_D_NZ_xiahmsMuy-154" edge="1">
          <mxGeometry relative="1" as="geometry">
            <mxPoint x="767.9999999999998" y="288" as="targetPoint" />
            <mxPoint x="488" y="294" as="sourcePoint" />
            <Array as="points">
              <mxPoint x="548" y="294" />
              <mxPoint x="548" y="294" />
            </Array>
          </mxGeometry>
        </mxCell>
        <mxCell id="EofYS_D_NZ_xiahmsMuy-164" style="edgeStyle=orthogonalEdgeStyle;rounded=0;jumpStyle=arc;orthogonalLoop=1;jettySize=auto;html=1;exitX=1;exitY=0.5;exitDx=0;exitDy=0;strokeWidth=4;fontFamily=Helvetica;fontSize=9;" parent="1" source="EofYS_D_NZ_xiahmsMuy-165" edge="1">
          <mxGeometry relative="1" as="geometry">
            <mxPoint x="767.9999999999998" y="360.0000000000001" as="targetPoint" />
          </mxGeometry>
        </mxCell>
        <mxCell id="EofYS_D_NZ_xiahmsMuy-165" value="+2" style="rounded=0;whiteSpace=wrap;html=1;fontFamily=Helvetica;fontSize=11;align=center;" parent="1" vertex="1">
          <mxGeometry x="688" y="348" width="24" height="24" as="geometry" />
        </mxCell>
        <mxCell id="EofYS_D_NZ_xiahmsMuy-166" style="edgeStyle=orthogonalEdgeStyle;rounded=0;jumpStyle=arc;orthogonalLoop=1;jettySize=auto;html=1;exitX=1;exitY=0.5;exitDx=0;exitDy=0;strokeWidth=4;fontFamily=Helvetica;fontSize=9;" parent="1" source="EofYS_D_NZ_xiahmsMuy-167" edge="1">
          <mxGeometry relative="1" as="geometry">
            <mxPoint x="767.9999999999998" y="396.0000000000001" as="targetPoint" />
          </mxGeometry>
        </mxCell>
        <mxCell id="EofYS_D_NZ_xiahmsMuy-167" value="-2" style="rounded=0;whiteSpace=wrap;html=1;fontFamily=Helvetica;fontSize=11;align=center;" parent="1" vertex="1">
          <mxGeometry x="688" y="384" width="24" height="24" as="geometry" />
        </mxCell>
        <mxCell id="EofYS_D_NZ_xiahmsMuy-211" style="edgeStyle=orthogonalEdgeStyle;rounded=0;jumpStyle=arc;orthogonalLoop=1;jettySize=auto;html=1;exitX=0.5;exitY=1;exitDx=0;exitDy=0;strokeWidth=4;fontFamily=Helvetica;fontSize=9;" parent="1" source="EofYS_D_NZ_xiahmsMuy-174" edge="1">
          <mxGeometry relative="1" as="geometry">
            <mxPoint x="860" y="548" as="targetPoint" />
          </mxGeometry>
        </mxCell>
        <mxCell id="EofYS_D_NZ_xiahmsMuy-174" value="MUX&lt;br&gt;D" style="shape=stencil(tZTvboMgFMWfhq+LSE3Tjwvb3oPa20mKYID+2dvv6tWkxOq2ThNjcs/B3z3kgkzIUKkGWJ5ZVQMTbyzP6/MN3yhVVBcZlVcq+aavVWigjCRelNdqb4CcEL07wVUfYo/QtgKvY+uKd5a94pr2EbJ01iJEOxsS585HmNIWv81uBOvbfyVVg/waIvg+JKks//g99qVYB8xXyptih/SL510OnCbmaw1uMTB/HiskKlOHW8i9Kk+f3p3t4WGYRrUXZ2QMdu0u8MN1eLzNAWC0vQOIlFA8geB8Acbm3zvZ7v5OKI0LMHMwUB+No1MnZijk0XmYGe5RG0M/yJmukwu61qMOnUp/8k74Bg==);whiteSpace=wrap;html=1;direction=north;align=center;" parent="1" vertex="1">
          <mxGeometry x="768" y="440" width="28" height="216" as="geometry" />
        </mxCell>
        <mxCell id="EofYS_D_NZ_xiahmsMuy-179" style="edgeStyle=orthogonalEdgeStyle;rounded=0;jumpStyle=arc;orthogonalLoop=1;jettySize=auto;html=1;exitX=1;exitY=0.5;exitDx=0;exitDy=0;strokeWidth=4;fontFamily=Helvetica;fontSize=9;" parent="1" source="EofYS_D_NZ_xiahmsMuy-180" edge="1">
          <mxGeometry relative="1" as="geometry">
            <mxPoint x="768" y="476" as="targetPoint" />
          </mxGeometry>
        </mxCell>
        <mxCell id="EofYS_D_NZ_xiahmsMuy-180" value="+2" style="rounded=0;whiteSpace=wrap;html=1;fontFamily=Helvetica;fontSize=11;align=center;" parent="1" vertex="1">
          <mxGeometry x="688" y="464" width="24" height="24" as="geometry" />
        </mxCell>
        <mxCell id="EofYS_D_NZ_xiahmsMuy-181" style="edgeStyle=orthogonalEdgeStyle;rounded=0;jumpStyle=arc;orthogonalLoop=1;jettySize=auto;html=1;exitX=1;exitY=0.5;exitDx=0;exitDy=0;strokeWidth=4;fontFamily=Helvetica;fontSize=9;" parent="1" edge="1">
          <mxGeometry relative="1" as="geometry">
            <mxPoint x="768" y="511.9999999999998" as="targetPoint" />
            <mxPoint x="712" y="512" as="sourcePoint" />
          </mxGeometry>
        </mxCell>
        <mxCell id="EofYS_D_NZ_xiahmsMuy-182" value="+4" style="rounded=0;whiteSpace=wrap;html=1;fontFamily=Helvetica;fontSize=11;align=center;" parent="1" vertex="1">
          <mxGeometry x="688" y="500" width="24" height="24" as="geometry" />
        </mxCell>
        <mxCell id="EofYS_D_NZ_xiahmsMuy-186" value="&amp;lt;&amp;lt;8" style="rounded=0;whiteSpace=wrap;html=1;fontFamily=Helvetica;fontSize=11;align=center;" parent="1" vertex="1">
          <mxGeometry x="652" y="567" width="36" height="24" as="geometry" />
        </mxCell>
        <mxCell id="EofYS_D_NZ_xiahmsMuy-187" style="edgeStyle=orthogonalEdgeStyle;rounded=0;jumpStyle=arc;orthogonalLoop=1;jettySize=auto;html=1;exitX=1;exitY=0.5;exitDx=0;exitDy=0;strokeWidth=4;fontFamily=Helvetica;fontSize=9;" parent="1" source="EofYS_D_NZ_xiahmsMuy-186" edge="1">
          <mxGeometry relative="1" as="geometry">
            <mxPoint x="768" y="578.9999999999998" as="targetPoint" />
          </mxGeometry>
        </mxCell>
        <mxCell id="EofYS_D_NZ_xiahmsMuy-190" style="edgeStyle=orthogonalEdgeStyle;rounded=0;jumpStyle=arc;orthogonalLoop=1;jettySize=auto;html=1;strokeWidth=4;fontFamily=Helvetica;fontSize=9;exitX=1;exitY=0.846;exitDx=0;exitDy=0;exitPerimeter=0;entryX=0;entryY=0.5;entryDx=0;entryDy=0;" parent="1" target="EofYS_D_NZ_xiahmsMuy-186" edge="1">
          <mxGeometry relative="1" as="geometry">
            <mxPoint x="268" y="578.7280000000001" as="sourcePoint" />
            <mxPoint x="580" y="564" as="targetPoint" />
            <Array as="points">
              <mxPoint x="580" y="579" />
              <mxPoint x="688" y="579" />
            </Array>
          </mxGeometry>
        </mxCell>
        <mxCell id="EofYS_D_NZ_xiahmsMuy-191" style="edgeStyle=orthogonalEdgeStyle;rounded=0;jumpStyle=arc;orthogonalLoop=1;jettySize=auto;html=1;strokeWidth=4;fontFamily=Helvetica;fontSize=9;exitX=1;exitY=0.846;exitDx=0;exitDy=0;exitPerimeter=0;entryX=0.518;entryY=-0.022;entryDx=0;entryDy=0;entryPerimeter=0;" parent="1" target="EofYS_D_NZ_xiahmsMuy-174" edge="1">
          <mxGeometry relative="1" as="geometry">
            <mxPoint x="268" y="578.7280000000001" as="sourcePoint" />
            <mxPoint x="688" y="579" as="targetPoint" />
            <Array as="points">
              <mxPoint x="616" y="579" />
              <mxPoint x="616" y="544" />
            </Array>
          </mxGeometry>
        </mxCell>
        <mxCell id="EofYS_D_NZ_xiahmsMuy-196" value="TMP" style="rounded=0;whiteSpace=wrap;html=1;fontFamily=Helvetica;fontSize=11;align=center;strokeWidth=3;" parent="1" vertex="1">
          <mxGeometry x="664" y="632" width="64" height="24" as="geometry" />
        </mxCell>
        <mxCell id="EofYS_D_NZ_xiahmsMuy-197" style="edgeStyle=orthogonalEdgeStyle;rounded=0;jumpStyle=arc;orthogonalLoop=1;jettySize=auto;html=1;exitX=1;exitY=0.5;exitDx=0;exitDy=0;strokeWidth=4;fontFamily=Helvetica;fontSize=9;entryX=0.055;entryY=-0.008;entryDx=0;entryDy=0;entryPerimeter=0;" parent="1" source="EofYS_D_NZ_xiahmsMuy-196" target="EofYS_D_NZ_xiahmsMuy-174" edge="1">
          <mxGeometry relative="1" as="geometry">
            <mxPoint x="768" y="643" as="targetPoint" />
          </mxGeometry>
        </mxCell>
        <mxCell id="EofYS_D_NZ_xiahmsMuy-215" style="edgeStyle=orthogonalEdgeStyle;rounded=0;orthogonalLoop=1;jettySize=auto;html=1;entryX=0.102;entryY=0.508;entryDx=0;entryDy=0;strokeWidth=1;fontFamily=Helvetica;fontSize=11;exitX=1.007;exitY=0.503;exitDx=0;exitDy=0;exitPerimeter=0;entryPerimeter=0;strokeColor=#3333FF;" parent="1" edge="1">
          <mxGeometry relative="1" as="geometry">
            <mxPoint x="450.05600000000004" y="454.22400000000016" as="targetPoint" />
            <Array as="points">
              <mxPoint x="413" y="454" />
            </Array>
            <mxPoint x="413.25200000000007" y="454.06000000000006" as="sourcePoint" />
          </mxGeometry>
        </mxCell>
        <mxCell id="EofYS_D_NZ_xiahmsMuy-220" value="TaC-CPUブロック図" style="text;html=1;strokeColor=none;fillColor=none;align=left;verticalAlign=middle;whiteSpace=wrap;rounded=0;dashed=1;dashPattern=1 1;fontFamily=Helvetica;fontSize=17;" parent="1" vertex="1">
          <mxGeometry x="56" y="68" width="160" height="20" as="geometry" />
        </mxCell>
        <mxCell id="EofYS_D_NZ_xiahmsMuy-184" style="edgeStyle=orthogonalEdgeStyle;rounded=0;jumpStyle=arc;orthogonalLoop=1;jettySize=auto;html=1;exitX=0.75;exitY=1;exitDx=0;exitDy=0;entryX=0;entryY=0.5;entryDx=0;entryDy=0;strokeWidth=4;fontFamily=Helvetica;fontSize=9;" parent="1" source="EofYS_D_NZ_xiahmsMuy-77" target="EofYS_D_NZ_xiahmsMuy-182" edge="1">
          <mxGeometry relative="1" as="geometry" />
        </mxCell>
        <mxCell id="EofYS_D_NZ_xiahmsMuy-183" style="edgeStyle=orthogonalEdgeStyle;rounded=0;jumpStyle=arc;orthogonalLoop=1;jettySize=auto;html=1;exitX=0.75;exitY=1;exitDx=0;exitDy=0;entryX=0;entryY=0.5;entryDx=0;entryDy=0;strokeWidth=4;fontFamily=Helvetica;fontSize=9;" parent="1" source="EofYS_D_NZ_xiahmsMuy-77" target="EofYS_D_NZ_xiahmsMuy-180" edge="1">
          <mxGeometry relative="1" as="geometry" />
        </mxCell>
        <mxCell id="EofYS_D_NZ_xiahmsMuy-175" style="edgeStyle=orthogonalEdgeStyle;rounded=0;jumpStyle=arc;orthogonalLoop=1;jettySize=auto;html=1;strokeWidth=4;fontFamily=Helvetica;fontSize=9;entryX=0.965;entryY=-0.002;entryDx=0;entryDy=0;entryPerimeter=0;exitX=0.75;exitY=1;exitDx=0;exitDy=0;" parent="1" source="EofYS_D_NZ_xiahmsMuy-77" target="EofYS_D_NZ_xiahmsMuy-174" edge="1">
          <mxGeometry relative="1" as="geometry">
            <mxPoint x="760" y="448" as="targetPoint" />
            <mxPoint x="656" y="220" as="sourcePoint" />
            <Array as="points">
              <mxPoint x="656" y="448" />
            </Array>
          </mxGeometry>
        </mxCell>
        <mxCell id="EofYS_D_NZ_xiahmsMuy-237" style="edgeStyle=orthogonalEdgeStyle;rounded=0;orthogonalLoop=1;jettySize=auto;html=1;entryX=0.102;entryY=0.508;entryDx=0;entryDy=0;strokeWidth=2;fontFamily=Helvetica;fontSize=11;exitX=1.007;exitY=0.503;exitDx=0;exitDy=0;exitPerimeter=0;entryPerimeter=0;strokeColor=#3333FF;" parent="1" edge="1">
          <mxGeometry relative="1" as="geometry">
            <mxPoint x="161.05600000000004" y="558.2240000000002" as="targetPoint" />
            <Array as="points">
              <mxPoint x="124" y="558" />
            </Array>
            <mxPoint x="116.33599999999996" y="558.06" as="sourcePoint" />
          </mxGeometry>
        </mxCell>
        <mxCell id="EofYS_D_NZ_xiahmsMuy-238" style="edgeStyle=orthogonalEdgeStyle;rounded=0;orthogonalLoop=1;jettySize=auto;html=1;entryX=0.102;entryY=0.508;entryDx=0;entryDy=0;strokeWidth=1;fontFamily=Helvetica;fontSize=11;exitX=1.007;exitY=0.503;exitDx=0;exitDy=0;exitPerimeter=0;entryPerimeter=0;strokeColor=#3333FF;" parent="1" edge="1">
          <mxGeometry relative="1" as="geometry">
            <mxPoint x="161.05600000000004" y="598.2240000000002" as="targetPoint" />
            <Array as="points">
              <mxPoint x="124" y="598" />
            </Array>
            <mxPoint x="116.30799999999999" y="598.06" as="sourcePoint" />
          </mxGeometry>
        </mxCell>
        <mxCell id="EofYS_D_NZ_xiahmsMuy-242" style="edgeStyle=orthogonalEdgeStyle;rounded=0;orthogonalLoop=1;jettySize=auto;html=1;entryX=0.102;entryY=0.508;entryDx=0;entryDy=0;strokeWidth=1;fontFamily=Helvetica;fontSize=11;exitX=1.007;exitY=0.503;exitDx=0;exitDy=0;exitPerimeter=0;entryPerimeter=0;strokeColor=#3333FF;" parent="1" edge="1">
          <mxGeometry relative="1" as="geometry">
            <mxPoint x="153.05600000000004" y="430.22400000000016" as="targetPoint" />
            <Array as="points">
              <mxPoint x="116" y="430" />
            </Array>
            <mxPoint x="108.27999999999997" y="430.05999999999995" as="sourcePoint" />
          </mxGeometry>
        </mxCell>
        <mxCell id="EofYS_D_NZ_xiahmsMuy-244" value="" style="endArrow=classic;html=1;strokeWidth=2;fontFamily=Helvetica;fontSize=13;entryX=0.868;entryY=0.611;entryDx=0;entryDy=0;entryPerimeter=0;exitX=0.515;exitY=0.975;exitDx=0;exitDy=0;exitPerimeter=0;strokeColor=#3333FF;" parent="1" edge="1">
          <mxGeometry width="50" height="50" relative="1" as="geometry">
            <mxPoint x="787.6000000000001" y="215.40000000000003" as="sourcePoint" />
            <mxPoint x="788.108" y="244.34400000000028" as="targetPoint" />
          </mxGeometry>
        </mxCell>
        <mxCell id="EofYS_D_NZ_xiahmsMuy-247" value="" style="endArrow=classic;html=1;strokeWidth=2;fontFamily=Helvetica;fontSize=13;entryX=0.88;entryY=0.571;entryDx=0;entryDy=0;entryPerimeter=0;strokeColor=#3333FF;" parent="1" target="EofYS_D_NZ_xiahmsMuy-174" edge="1">
          <mxGeometry width="50" height="50" relative="1" as="geometry">
            <mxPoint x="783.9962025316456" y="440" as="sourcePoint" />
            <mxPoint x="784" y="464" as="targetPoint" />
          </mxGeometry>
        </mxCell>
        <mxCell id="EofYS_D_NZ_xiahmsMuy-248" value="" style="endArrow=classic;html=1;strokeWidth=1;fontFamily=Helvetica;fontSize=13;entryX=0.5;entryY=1;entryDx=0;entryDy=0;strokeColor=#3333FF;" parent="1" target="EofYS_D_NZ_xiahmsMuy-196" edge="1">
          <mxGeometry width="50" height="50" relative="1" as="geometry">
            <mxPoint x="696" y="688" as="sourcePoint" />
            <mxPoint x="702" y="676" as="targetPoint" />
          </mxGeometry>
        </mxCell>
        <mxCell id="pm7EmsLgZ2X05vCkFp02-1" value="ALU(OP1)" style="shape=table;html=1;whiteSpace=wrap;startSize=16;container=1;collapsible=0;childLayout=tableLayout;fixedRows=1;rowLines=0;fontStyle=1;align=center;fontSize=9;" parent="1" vertex="1">
          <mxGeometry x="1068" y="80" width="68" height="656" as="geometry" />
        </mxCell>
        <mxCell id="pm7EmsLgZ2X05vCkFp02-2" value="" style="shape=partialRectangle;html=1;whiteSpace=wrap;collapsible=0;dropTarget=0;pointerEvents=0;fillColor=none;top=0;left=0;bottom=1;right=0;points=[[0,0.5],[1,0.5]];portConstraint=eastwest;fontSize=9;" parent="pm7EmsLgZ2X05vCkFp02-1" vertex="1">
          <mxGeometry y="16" width="68" height="20" as="geometry" />
        </mxCell>
        <mxCell id="pm7EmsLgZ2X05vCkFp02-3" value="00" style="shape=partialRectangle;html=1;whiteSpace=wrap;connectable=0;fillColor=none;top=0;left=0;bottom=0;right=0;overflow=hidden;fontSize=9;" parent="pm7EmsLgZ2X05vCkFp02-2" vertex="1">
          <mxGeometry width="20" height="20" as="geometry" />
        </mxCell>
        <mxCell id="pm7EmsLgZ2X05vCkFp02-4" value="" style="shape=partialRectangle;html=1;whiteSpace=wrap;connectable=0;fillColor=none;top=0;left=0;bottom=0;right=0;align=left;spacingLeft=6;overflow=hidden;fontSize=9;" parent="pm7EmsLgZ2X05vCkFp02-2" vertex="1">
          <mxGeometry x="20" width="48" height="20" as="geometry" />
        </mxCell>
        <mxCell id="pm7EmsLgZ2X05vCkFp02-5" value="" style="shape=partialRectangle;html=1;whiteSpace=wrap;collapsible=0;dropTarget=0;pointerEvents=0;fillColor=none;top=0;left=0;bottom=1;right=0;points=[[0,0.5],[1,0.5]];portConstraint=eastwest;fontSize=9;" parent="pm7EmsLgZ2X05vCkFp02-1" vertex="1">
          <mxGeometry y="36" width="68" height="20" as="geometry" />
        </mxCell>
        <mxCell id="pm7EmsLgZ2X05vCkFp02-6" value="01" style="shape=partialRectangle;html=1;whiteSpace=wrap;connectable=0;fillColor=none;top=0;left=0;bottom=0;right=0;overflow=hidden;fontSize=9;" parent="pm7EmsLgZ2X05vCkFp02-5" vertex="1">
          <mxGeometry width="20" height="20" as="geometry" />
        </mxCell>
        <mxCell id="pm7EmsLgZ2X05vCkFp02-7" value="B" style="shape=partialRectangle;html=1;whiteSpace=wrap;connectable=0;fillColor=none;top=0;left=0;bottom=0;right=0;align=left;spacingLeft=6;overflow=hidden;fontSize=9;" parent="pm7EmsLgZ2X05vCkFp02-5" vertex="1">
          <mxGeometry x="20" width="48" height="20" as="geometry" />
        </mxCell>
        <mxCell id="pm7EmsLgZ2X05vCkFp02-8" value="" style="shape=partialRectangle;html=1;whiteSpace=wrap;collapsible=0;dropTarget=0;pointerEvents=0;fillColor=none;top=0;left=0;bottom=1;right=0;points=[[0,0.5],[1,0.5]];portConstraint=eastwest;fontSize=9;" parent="pm7EmsLgZ2X05vCkFp02-1" vertex="1">
          <mxGeometry y="56" width="68" height="20" as="geometry" />
        </mxCell>
        <mxCell id="pm7EmsLgZ2X05vCkFp02-9" value="02" style="shape=partialRectangle;html=1;whiteSpace=wrap;connectable=0;fillColor=none;top=0;left=0;bottom=0;right=0;overflow=hidden;fontSize=9;" parent="pm7EmsLgZ2X05vCkFp02-8" vertex="1">
          <mxGeometry width="20" height="20" as="geometry" />
        </mxCell>
        <mxCell id="pm7EmsLgZ2X05vCkFp02-10" value="" style="shape=partialRectangle;html=1;whiteSpace=wrap;connectable=0;fillColor=none;top=0;left=0;bottom=0;right=0;align=left;spacingLeft=6;overflow=hidden;fontSize=9;" parent="pm7EmsLgZ2X05vCkFp02-8" vertex="1">
          <mxGeometry x="20" width="48" height="20" as="geometry" />
        </mxCell>
        <mxCell id="pm7EmsLgZ2X05vCkFp02-11" value="" style="shape=partialRectangle;html=1;whiteSpace=wrap;collapsible=0;dropTarget=0;pointerEvents=0;fillColor=none;top=0;left=0;bottom=1;right=0;points=[[0,0.5],[1,0.5]];portConstraint=eastwest;fontSize=9;" parent="pm7EmsLgZ2X05vCkFp02-1" vertex="1">
          <mxGeometry y="76" width="68" height="20" as="geometry" />
        </mxCell>
        <mxCell id="pm7EmsLgZ2X05vCkFp02-12" value="03" style="shape=partialRectangle;html=1;whiteSpace=wrap;connectable=0;fillColor=none;top=0;left=0;bottom=0;right=0;overflow=hidden;fontSize=9;" parent="pm7EmsLgZ2X05vCkFp02-11" vertex="1">
          <mxGeometry width="20" height="20" as="geometry" />
        </mxCell>
        <mxCell id="pm7EmsLgZ2X05vCkFp02-13" value="A + B" style="shape=partialRectangle;html=1;whiteSpace=wrap;connectable=0;fillColor=none;top=0;left=0;bottom=0;right=0;align=left;spacingLeft=6;overflow=hidden;fontSize=9;" parent="pm7EmsLgZ2X05vCkFp02-11" vertex="1">
          <mxGeometry x="20" width="48" height="20" as="geometry" />
        </mxCell>
        <mxCell id="pm7EmsLgZ2X05vCkFp02-14" value="" style="shape=partialRectangle;html=1;whiteSpace=wrap;collapsible=0;dropTarget=0;pointerEvents=0;fillColor=none;top=0;left=0;bottom=1;right=0;points=[[0,0.5],[1,0.5]];portConstraint=eastwest;fontSize=9;" parent="pm7EmsLgZ2X05vCkFp02-1" vertex="1">
          <mxGeometry y="96" width="68" height="20" as="geometry" />
        </mxCell>
        <mxCell id="pm7EmsLgZ2X05vCkFp02-15" value="04" style="shape=partialRectangle;html=1;whiteSpace=wrap;connectable=0;fillColor=none;top=0;left=0;bottom=0;right=0;overflow=hidden;fontSize=9;" parent="pm7EmsLgZ2X05vCkFp02-14" vertex="1">
          <mxGeometry width="20" height="20" as="geometry" />
        </mxCell>
        <mxCell id="pm7EmsLgZ2X05vCkFp02-16" value="A - B" style="shape=partialRectangle;html=1;whiteSpace=wrap;connectable=0;fillColor=none;top=0;left=0;bottom=0;right=0;align=left;spacingLeft=6;overflow=hidden;fontSize=9;" parent="pm7EmsLgZ2X05vCkFp02-14" vertex="1">
          <mxGeometry x="20" width="48" height="20" as="geometry" />
        </mxCell>
        <mxCell id="pm7EmsLgZ2X05vCkFp02-17" value="" style="shape=partialRectangle;html=1;whiteSpace=wrap;collapsible=0;dropTarget=0;pointerEvents=0;fillColor=none;top=0;left=0;bottom=1;right=0;points=[[0,0.5],[1,0.5]];portConstraint=eastwest;fontSize=9;" parent="pm7EmsLgZ2X05vCkFp02-1" vertex="1">
          <mxGeometry y="116" width="68" height="20" as="geometry" />
        </mxCell>
        <mxCell id="pm7EmsLgZ2X05vCkFp02-18" value="05" style="shape=partialRectangle;html=1;whiteSpace=wrap;connectable=0;fillColor=none;top=0;left=0;bottom=0;right=0;overflow=hidden;fontSize=9;" parent="pm7EmsLgZ2X05vCkFp02-17" vertex="1">
          <mxGeometry width="20" height="20" as="geometry" />
        </mxCell>
        <mxCell id="pm7EmsLgZ2X05vCkFp02-19" value="A - B" style="shape=partialRectangle;html=1;whiteSpace=wrap;connectable=0;fillColor=none;top=0;left=0;bottom=0;right=0;align=left;spacingLeft=6;overflow=hidden;fontSize=9;" parent="pm7EmsLgZ2X05vCkFp02-17" vertex="1">
          <mxGeometry x="20" width="48" height="20" as="geometry" />
        </mxCell>
        <mxCell id="pm7EmsLgZ2X05vCkFp02-20" value="" style="shape=partialRectangle;html=1;whiteSpace=wrap;collapsible=0;dropTarget=0;pointerEvents=0;fillColor=none;top=0;left=0;bottom=1;right=0;points=[[0,0.5],[1,0.5]];portConstraint=eastwest;fontSize=9;" parent="pm7EmsLgZ2X05vCkFp02-1" vertex="1">
          <mxGeometry y="136" width="68" height="20" as="geometry" />
        </mxCell>
        <mxCell id="pm7EmsLgZ2X05vCkFp02-21" value="06" style="shape=partialRectangle;html=1;whiteSpace=wrap;connectable=0;fillColor=none;top=0;left=0;bottom=0;right=0;overflow=hidden;fontSize=9;" parent="pm7EmsLgZ2X05vCkFp02-20" vertex="1">
          <mxGeometry width="20" height="20" as="geometry" />
        </mxCell>
        <mxCell id="pm7EmsLgZ2X05vCkFp02-22" value="A &amp;amp; B" style="shape=partialRectangle;html=1;whiteSpace=wrap;connectable=0;fillColor=none;top=0;left=0;bottom=0;right=0;align=left;spacingLeft=6;overflow=hidden;fontSize=9;" parent="pm7EmsLgZ2X05vCkFp02-20" vertex="1">
          <mxGeometry x="20" width="48" height="20" as="geometry" />
        </mxCell>
        <mxCell id="pm7EmsLgZ2X05vCkFp02-23" value="" style="shape=partialRectangle;html=1;whiteSpace=wrap;collapsible=0;dropTarget=0;pointerEvents=0;fillColor=none;top=0;left=0;bottom=1;right=0;points=[[0,0.5],[1,0.5]];portConstraint=eastwest;fontSize=9;" parent="pm7EmsLgZ2X05vCkFp02-1" vertex="1">
          <mxGeometry y="156" width="68" height="20" as="geometry" />
        </mxCell>
        <mxCell id="pm7EmsLgZ2X05vCkFp02-24" value="07" style="shape=partialRectangle;html=1;whiteSpace=wrap;connectable=0;fillColor=none;top=0;left=0;bottom=0;right=0;overflow=hidden;fontSize=9;" parent="pm7EmsLgZ2X05vCkFp02-23" vertex="1">
          <mxGeometry width="20" height="20" as="geometry" />
        </mxCell>
        <mxCell id="pm7EmsLgZ2X05vCkFp02-25" value="A | B" style="shape=partialRectangle;html=1;whiteSpace=wrap;connectable=0;fillColor=none;top=0;left=0;bottom=0;right=0;align=left;spacingLeft=6;overflow=hidden;fontSize=9;" parent="pm7EmsLgZ2X05vCkFp02-23" vertex="1">
          <mxGeometry x="20" width="48" height="20" as="geometry" />
        </mxCell>
        <mxCell id="pm7EmsLgZ2X05vCkFp02-26" value="" style="shape=partialRectangle;html=1;whiteSpace=wrap;collapsible=0;dropTarget=0;pointerEvents=0;fillColor=none;top=0;left=0;bottom=1;right=0;points=[[0,0.5],[1,0.5]];portConstraint=eastwest;fontSize=9;" parent="pm7EmsLgZ2X05vCkFp02-1" vertex="1">
          <mxGeometry y="176" width="68" height="20" as="geometry" />
        </mxCell>
        <mxCell id="pm7EmsLgZ2X05vCkFp02-27" value="08" style="shape=partialRectangle;html=1;whiteSpace=wrap;connectable=0;fillColor=none;top=0;left=0;bottom=0;right=0;overflow=hidden;fontSize=9;" parent="pm7EmsLgZ2X05vCkFp02-26" vertex="1">
          <mxGeometry width="20" height="20" as="geometry" />
        </mxCell>
        <mxCell id="pm7EmsLgZ2X05vCkFp02-28" value="A ^ B" style="shape=partialRectangle;html=1;whiteSpace=wrap;connectable=0;fillColor=none;top=0;left=0;bottom=0;right=0;align=left;spacingLeft=6;overflow=hidden;fontSize=9;" parent="pm7EmsLgZ2X05vCkFp02-26" vertex="1">
          <mxGeometry x="20" width="48" height="20" as="geometry" />
        </mxCell>
        <mxCell id="pm7EmsLgZ2X05vCkFp02-29" value="" style="shape=partialRectangle;html=1;whiteSpace=wrap;collapsible=0;dropTarget=0;pointerEvents=0;fillColor=none;top=0;left=0;bottom=1;right=0;points=[[0,0.5],[1,0.5]];portConstraint=eastwest;fontSize=9;" parent="pm7EmsLgZ2X05vCkFp02-1" vertex="1">
          <mxGeometry y="196" width="68" height="20" as="geometry" />
        </mxCell>
        <mxCell id="pm7EmsLgZ2X05vCkFp02-30" value="09" style="shape=partialRectangle;html=1;whiteSpace=wrap;connectable=0;fillColor=none;top=0;left=0;bottom=0;right=0;overflow=hidden;fontSize=9;" parent="pm7EmsLgZ2X05vCkFp02-29" vertex="1">
          <mxGeometry width="20" height="20" as="geometry" />
        </mxCell>
        <mxCell id="pm7EmsLgZ2X05vCkFp02-31" value="A + B*2" style="shape=partialRectangle;html=1;whiteSpace=wrap;connectable=0;fillColor=none;top=0;left=0;bottom=0;right=0;align=left;spacingLeft=6;overflow=hidden;fontSize=9;" parent="pm7EmsLgZ2X05vCkFp02-29" vertex="1">
          <mxGeometry x="20" width="48" height="20" as="geometry" />
        </mxCell>
        <mxCell id="pm7EmsLgZ2X05vCkFp02-32" value="" style="shape=partialRectangle;html=1;whiteSpace=wrap;collapsible=0;dropTarget=0;pointerEvents=0;fillColor=none;top=0;left=0;bottom=1;right=0;points=[[0,0.5],[1,0.5]];portConstraint=eastwest;fontSize=9;" parent="pm7EmsLgZ2X05vCkFp02-1" vertex="1">
          <mxGeometry y="216" width="68" height="20" as="geometry" />
        </mxCell>
        <mxCell id="pm7EmsLgZ2X05vCkFp02-33" value="0A" style="shape=partialRectangle;html=1;whiteSpace=wrap;connectable=0;fillColor=none;top=0;left=0;bottom=0;right=0;overflow=hidden;fontSize=9;" parent="pm7EmsLgZ2X05vCkFp02-32" vertex="1">
          <mxGeometry width="20" height="20" as="geometry" />
        </mxCell>
        <mxCell id="pm7EmsLgZ2X05vCkFp02-34" value="A * B" style="shape=partialRectangle;html=1;whiteSpace=wrap;connectable=0;fillColor=none;top=0;left=0;bottom=0;right=0;align=left;spacingLeft=6;overflow=hidden;fontSize=9;" parent="pm7EmsLgZ2X05vCkFp02-32" vertex="1">
          <mxGeometry x="20" width="48" height="20" as="geometry" />
        </mxCell>
        <mxCell id="pm7EmsLgZ2X05vCkFp02-35" value="" style="shape=partialRectangle;html=1;whiteSpace=wrap;collapsible=0;dropTarget=0;pointerEvents=0;fillColor=none;top=0;left=0;bottom=1;right=0;points=[[0,0.5],[1,0.5]];portConstraint=eastwest;fontSize=9;" parent="pm7EmsLgZ2X05vCkFp02-1" vertex="1">
          <mxGeometry y="236" width="68" height="20" as="geometry" />
        </mxCell>
        <mxCell id="pm7EmsLgZ2X05vCkFp02-36" value="0B" style="shape=partialRectangle;html=1;whiteSpace=wrap;connectable=0;fillColor=none;top=0;left=0;bottom=0;right=0;overflow=hidden;fontSize=9;" parent="pm7EmsLgZ2X05vCkFp02-35" vertex="1">
          <mxGeometry width="20" height="20" as="geometry" />
        </mxCell>
        <mxCell id="pm7EmsLgZ2X05vCkFp02-37" value="A / B" style="shape=partialRectangle;html=1;whiteSpace=wrap;connectable=0;fillColor=none;top=0;left=0;bottom=0;right=0;align=left;spacingLeft=6;overflow=hidden;fontSize=9;" parent="pm7EmsLgZ2X05vCkFp02-35" vertex="1">
          <mxGeometry x="20" width="48" height="20" as="geometry" />
        </mxCell>
        <mxCell id="pm7EmsLgZ2X05vCkFp02-38" value="" style="shape=partialRectangle;html=1;whiteSpace=wrap;collapsible=0;dropTarget=0;pointerEvents=0;fillColor=none;top=0;left=0;bottom=1;right=0;points=[[0,0.5],[1,0.5]];portConstraint=eastwest;fontSize=9;" parent="pm7EmsLgZ2X05vCkFp02-1" vertex="1">
          <mxGeometry y="256" width="68" height="20" as="geometry" />
        </mxCell>
        <mxCell id="pm7EmsLgZ2X05vCkFp02-39" value="0C" style="shape=partialRectangle;html=1;whiteSpace=wrap;connectable=0;fillColor=none;top=0;left=0;bottom=0;right=0;overflow=hidden;fontSize=9;" parent="pm7EmsLgZ2X05vCkFp02-38" vertex="1">
          <mxGeometry width="20" height="20" as="geometry" />
        </mxCell>
        <mxCell id="pm7EmsLgZ2X05vCkFp02-40" value="A % B" style="shape=partialRectangle;html=1;whiteSpace=wrap;connectable=0;fillColor=none;top=0;left=0;bottom=0;right=0;align=left;spacingLeft=6;overflow=hidden;fontSize=9;" parent="pm7EmsLgZ2X05vCkFp02-38" vertex="1">
          <mxGeometry x="20" width="48" height="20" as="geometry" />
        </mxCell>
        <mxCell id="pm7EmsLgZ2X05vCkFp02-41" value="" style="shape=partialRectangle;html=1;whiteSpace=wrap;collapsible=0;dropTarget=0;pointerEvents=0;fillColor=none;top=0;left=0;bottom=1;right=0;points=[[0,0.5],[1,0.5]];portConstraint=eastwest;fontSize=9;" parent="pm7EmsLgZ2X05vCkFp02-1" vertex="1">
          <mxGeometry y="276" width="68" height="20" as="geometry" />
        </mxCell>
        <mxCell id="pm7EmsLgZ2X05vCkFp02-42" value="0D" style="shape=partialRectangle;html=1;whiteSpace=wrap;connectable=0;fillColor=none;top=0;left=0;bottom=0;right=0;overflow=hidden;fontSize=9;" parent="pm7EmsLgZ2X05vCkFp02-41" vertex="1">
          <mxGeometry width="20" height="20" as="geometry" />
        </mxCell>
        <mxCell id="pm7EmsLgZ2X05vCkFp02-43" value="" style="shape=partialRectangle;html=1;whiteSpace=wrap;connectable=0;fillColor=none;top=0;left=0;bottom=0;right=0;align=left;spacingLeft=6;overflow=hidden;fontSize=9;" parent="pm7EmsLgZ2X05vCkFp02-41" vertex="1">
          <mxGeometry x="20" width="48" height="20" as="geometry" />
        </mxCell>
        <mxCell id="pm7EmsLgZ2X05vCkFp02-44" value="" style="shape=partialRectangle;html=1;whiteSpace=wrap;collapsible=0;dropTarget=0;pointerEvents=0;fillColor=none;top=0;left=0;bottom=1;right=0;points=[[0,0.5],[1,0.5]];portConstraint=eastwest;fontSize=9;" parent="pm7EmsLgZ2X05vCkFp02-1" vertex="1">
          <mxGeometry y="296" width="68" height="20" as="geometry" />
        </mxCell>
        <mxCell id="pm7EmsLgZ2X05vCkFp02-45" value="0E" style="shape=partialRectangle;html=1;whiteSpace=wrap;connectable=0;fillColor=none;top=0;left=0;bottom=0;right=0;overflow=hidden;fontSize=9;" parent="pm7EmsLgZ2X05vCkFp02-44" vertex="1">
          <mxGeometry width="20" height="20" as="geometry" />
        </mxCell>
        <mxCell id="pm7EmsLgZ2X05vCkFp02-46" value="" style="shape=partialRectangle;html=1;whiteSpace=wrap;connectable=0;fillColor=none;top=0;left=0;bottom=0;right=0;align=left;spacingLeft=6;overflow=hidden;fontSize=9;" parent="pm7EmsLgZ2X05vCkFp02-44" vertex="1">
          <mxGeometry x="20" width="48" height="20" as="geometry" />
        </mxCell>
        <mxCell id="pm7EmsLgZ2X05vCkFp02-47" value="" style="shape=partialRectangle;html=1;whiteSpace=wrap;collapsible=0;dropTarget=0;pointerEvents=0;fillColor=none;top=0;left=0;bottom=1;right=0;points=[[0,0.5],[1,0.5]];portConstraint=eastwest;" parent="pm7EmsLgZ2X05vCkFp02-1" vertex="1">
          <mxGeometry y="316" width="68" height="20" as="geometry" />
        </mxCell>
        <mxCell id="pm7EmsLgZ2X05vCkFp02-48" value="0F" style="shape=partialRectangle;html=1;whiteSpace=wrap;connectable=0;fillColor=none;top=0;left=0;bottom=0;right=0;overflow=hidden;fontSize=9;" parent="pm7EmsLgZ2X05vCkFp02-47" vertex="1">
          <mxGeometry width="20" height="20" as="geometry" />
        </mxCell>
        <mxCell id="pm7EmsLgZ2X05vCkFp02-49" value="" style="shape=partialRectangle;html=1;whiteSpace=wrap;connectable=0;fillColor=none;top=0;left=0;bottom=0;right=0;align=left;spacingLeft=6;overflow=hidden;fontSize=9;" parent="pm7EmsLgZ2X05vCkFp02-47" vertex="1">
          <mxGeometry x="20" width="48" height="20" as="geometry" />
        </mxCell>
        <mxCell id="shBhoWdEmqtdn-skNixz-43" style="shape=partialRectangle;html=1;whiteSpace=wrap;collapsible=0;dropTarget=0;pointerEvents=0;fillColor=none;top=0;left=0;bottom=1;right=0;points=[[0,0.5],[1,0.5]];portConstraint=eastwest;" parent="pm7EmsLgZ2X05vCkFp02-1" vertex="1">
          <mxGeometry y="336" width="68" height="20" as="geometry" />
        </mxCell>
        <mxCell id="shBhoWdEmqtdn-skNixz-44" value="10" style="shape=partialRectangle;html=1;whiteSpace=wrap;connectable=0;fillColor=none;top=0;left=0;bottom=0;right=0;overflow=hidden;fontSize=9;" parent="shBhoWdEmqtdn-skNixz-43" vertex="1">
          <mxGeometry width="20" height="20" as="geometry" />
        </mxCell>
        <mxCell id="shBhoWdEmqtdn-skNixz-45" value="A &amp;lt;&amp;lt; B" style="shape=partialRectangle;html=1;whiteSpace=wrap;connectable=0;fillColor=none;top=0;left=0;bottom=0;right=0;align=left;spacingLeft=6;overflow=hidden;fontSize=9;" parent="shBhoWdEmqtdn-skNixz-43" vertex="1">
          <mxGeometry x="20" width="48" height="20" as="geometry" />
        </mxCell>
        <mxCell id="shBhoWdEmqtdn-skNixz-46" style="shape=partialRectangle;html=1;whiteSpace=wrap;collapsible=0;dropTarget=0;pointerEvents=0;fillColor=none;top=0;left=0;bottom=1;right=0;points=[[0,0.5],[1,0.5]];portConstraint=eastwest;" parent="pm7EmsLgZ2X05vCkFp02-1" vertex="1">
          <mxGeometry y="356" width="68" height="20" as="geometry" />
        </mxCell>
        <mxCell id="shBhoWdEmqtdn-skNixz-47" value="11" style="shape=partialRectangle;html=1;whiteSpace=wrap;connectable=0;fillColor=none;top=0;left=0;bottom=0;right=0;overflow=hidden;fontSize=9;" parent="shBhoWdEmqtdn-skNixz-46" vertex="1">
          <mxGeometry width="20" height="20" as="geometry" />
        </mxCell>
        <mxCell id="shBhoWdEmqtdn-skNixz-48" value="A &amp;lt;&amp;lt; B" style="shape=partialRectangle;html=1;whiteSpace=wrap;connectable=0;fillColor=none;top=0;left=0;bottom=0;right=0;align=left;spacingLeft=6;overflow=hidden;fontSize=9;" parent="shBhoWdEmqtdn-skNixz-46" vertex="1">
          <mxGeometry x="20" width="48" height="20" as="geometry" />
        </mxCell>
        <mxCell id="shBhoWdEmqtdn-skNixz-49" style="shape=partialRectangle;html=1;whiteSpace=wrap;collapsible=0;dropTarget=0;pointerEvents=0;fillColor=none;top=0;left=0;bottom=1;right=0;points=[[0,0.5],[1,0.5]];portConstraint=eastwest;" parent="pm7EmsLgZ2X05vCkFp02-1" vertex="1">
          <mxGeometry y="376" width="68" height="20" as="geometry" />
        </mxCell>
        <mxCell id="shBhoWdEmqtdn-skNixz-50" value="12" style="shape=partialRectangle;html=1;whiteSpace=wrap;connectable=0;fillColor=none;top=0;left=0;bottom=0;right=0;overflow=hidden;fontSize=9;" parent="shBhoWdEmqtdn-skNixz-49" vertex="1">
          <mxGeometry width="20" height="20" as="geometry" />
        </mxCell>
        <mxCell id="shBhoWdEmqtdn-skNixz-51" value="A &amp;gt;&amp;gt; B" style="shape=partialRectangle;html=1;whiteSpace=wrap;connectable=0;fillColor=none;top=0;left=0;bottom=0;right=0;align=left;spacingLeft=6;overflow=hidden;fontSize=9;" parent="shBhoWdEmqtdn-skNixz-49" vertex="1">
          <mxGeometry x="20" width="48" height="20" as="geometry" />
        </mxCell>
        <mxCell id="shBhoWdEmqtdn-skNixz-52" style="shape=partialRectangle;html=1;whiteSpace=wrap;collapsible=0;dropTarget=0;pointerEvents=0;fillColor=none;top=0;left=0;bottom=1;right=0;points=[[0,0.5],[1,0.5]];portConstraint=eastwest;" parent="pm7EmsLgZ2X05vCkFp02-1" vertex="1">
          <mxGeometry y="396" width="68" height="20" as="geometry" />
        </mxCell>
        <mxCell id="shBhoWdEmqtdn-skNixz-53" value="13" style="shape=partialRectangle;html=1;whiteSpace=wrap;connectable=0;fillColor=none;top=0;left=0;bottom=0;right=0;overflow=hidden;fontSize=9;" parent="shBhoWdEmqtdn-skNixz-52" vertex="1">
          <mxGeometry width="20" height="20" as="geometry" />
        </mxCell>
        <mxCell id="shBhoWdEmqtdn-skNixz-54" value="A &amp;gt;&amp;gt;&amp;gt; B" style="shape=partialRectangle;html=1;whiteSpace=wrap;connectable=0;fillColor=none;top=0;left=0;bottom=0;right=0;align=left;spacingLeft=6;overflow=hidden;fontSize=9;" parent="shBhoWdEmqtdn-skNixz-52" vertex="1">
          <mxGeometry x="20" width="48" height="20" as="geometry" />
        </mxCell>
        <mxCell id="shBhoWdEmqtdn-skNixz-55" style="shape=partialRectangle;html=1;whiteSpace=wrap;collapsible=0;dropTarget=0;pointerEvents=0;fillColor=none;top=0;left=0;bottom=1;right=0;points=[[0,0.5],[1,0.5]];portConstraint=eastwest;" parent="pm7EmsLgZ2X05vCkFp02-1" vertex="1">
          <mxGeometry y="416" width="68" height="20" as="geometry" />
        </mxCell>
        <mxCell id="shBhoWdEmqtdn-skNixz-56" value="14" style="shape=partialRectangle;html=1;whiteSpace=wrap;connectable=0;fillColor=none;top=0;left=0;bottom=0;right=0;overflow=hidden;fontSize=9;" parent="shBhoWdEmqtdn-skNixz-55" vertex="1">
          <mxGeometry width="20" height="20" as="geometry" />
        </mxCell>
        <mxCell id="shBhoWdEmqtdn-skNixz-57" style="shape=partialRectangle;html=1;whiteSpace=wrap;connectable=0;fillColor=none;top=0;left=0;bottom=0;right=0;align=left;spacingLeft=6;overflow=hidden;fontSize=9;" parent="shBhoWdEmqtdn-skNixz-55" vertex="1">
          <mxGeometry x="20" width="48" height="20" as="geometry" />
        </mxCell>
        <mxCell id="shBhoWdEmqtdn-skNixz-58" style="shape=partialRectangle;html=1;whiteSpace=wrap;collapsible=0;dropTarget=0;pointerEvents=0;fillColor=none;top=0;left=0;bottom=1;right=0;points=[[0,0.5],[1,0.5]];portConstraint=eastwest;" parent="pm7EmsLgZ2X05vCkFp02-1" vertex="1">
          <mxGeometry y="436" width="68" height="20" as="geometry" />
        </mxCell>
        <mxCell id="shBhoWdEmqtdn-skNixz-59" value="15" style="shape=partialRectangle;html=1;whiteSpace=wrap;connectable=0;fillColor=none;top=0;left=0;bottom=0;right=0;overflow=hidden;fontSize=9;" parent="shBhoWdEmqtdn-skNixz-58" vertex="1">
          <mxGeometry width="20" height="20" as="geometry" />
        </mxCell>
        <mxCell id="shBhoWdEmqtdn-skNixz-60" style="shape=partialRectangle;html=1;whiteSpace=wrap;connectable=0;fillColor=none;top=0;left=0;bottom=0;right=0;align=left;spacingLeft=6;overflow=hidden;fontSize=9;" parent="shBhoWdEmqtdn-skNixz-58" vertex="1">
          <mxGeometry x="20" width="48" height="20" as="geometry" />
        </mxCell>
        <mxCell id="shBhoWdEmqtdn-skNixz-61" style="shape=partialRectangle;html=1;whiteSpace=wrap;collapsible=0;dropTarget=0;pointerEvents=0;fillColor=none;top=0;left=0;bottom=1;right=0;points=[[0,0.5],[1,0.5]];portConstraint=eastwest;" parent="pm7EmsLgZ2X05vCkFp02-1" vertex="1">
          <mxGeometry y="456" width="68" height="20" as="geometry" />
        </mxCell>
        <mxCell id="shBhoWdEmqtdn-skNixz-62" value="16" style="shape=partialRectangle;html=1;whiteSpace=wrap;connectable=0;fillColor=none;top=0;left=0;bottom=0;right=0;overflow=hidden;fontSize=9;" parent="shBhoWdEmqtdn-skNixz-61" vertex="1">
          <mxGeometry width="20" height="20" as="geometry" />
        </mxCell>
        <mxCell id="shBhoWdEmqtdn-skNixz-63" value="B" style="shape=partialRectangle;html=1;whiteSpace=wrap;connectable=0;fillColor=none;top=0;left=0;bottom=0;right=0;align=left;spacingLeft=6;overflow=hidden;fontSize=9;" parent="shBhoWdEmqtdn-skNixz-61" vertex="1">
          <mxGeometry x="20" width="48" height="20" as="geometry" />
        </mxCell>
        <mxCell id="shBhoWdEmqtdn-skNixz-64" style="shape=partialRectangle;html=1;whiteSpace=wrap;collapsible=0;dropTarget=0;pointerEvents=0;fillColor=none;top=0;left=0;bottom=1;right=0;points=[[0,0.5],[1,0.5]];portConstraint=eastwest;" parent="pm7EmsLgZ2X05vCkFp02-1" vertex="1">
          <mxGeometry y="476" width="68" height="20" as="geometry" />
        </mxCell>
        <mxCell id="shBhoWdEmqtdn-skNixz-65" value="17" style="shape=partialRectangle;html=1;whiteSpace=wrap;connectable=0;fillColor=none;top=0;left=0;bottom=0;right=0;overflow=hidden;fontSize=9;" parent="shBhoWdEmqtdn-skNixz-64" vertex="1">
          <mxGeometry width="20" height="20" as="geometry" />
        </mxCell>
        <mxCell id="shBhoWdEmqtdn-skNixz-66" style="shape=partialRectangle;html=1;whiteSpace=wrap;connectable=0;fillColor=none;top=0;left=0;bottom=0;right=0;align=left;spacingLeft=6;overflow=hidden;fontSize=9;" parent="shBhoWdEmqtdn-skNixz-64" vertex="1">
          <mxGeometry x="20" width="48" height="20" as="geometry" />
        </mxCell>
        <mxCell id="shBhoWdEmqtdn-skNixz-67" style="shape=partialRectangle;html=1;whiteSpace=wrap;collapsible=0;dropTarget=0;pointerEvents=0;fillColor=none;top=0;left=0;bottom=1;right=0;points=[[0,0.5],[1,0.5]];portConstraint=eastwest;" parent="pm7EmsLgZ2X05vCkFp02-1" vertex="1">
          <mxGeometry y="496" width="68" height="20" as="geometry" />
        </mxCell>
        <mxCell id="shBhoWdEmqtdn-skNixz-68" value="18" style="shape=partialRectangle;html=1;whiteSpace=wrap;connectable=0;fillColor=none;top=0;left=0;bottom=0;right=0;overflow=hidden;fontSize=9;" parent="shBhoWdEmqtdn-skNixz-67" vertex="1">
          <mxGeometry width="20" height="20" as="geometry" />
        </mxCell>
        <mxCell id="shBhoWdEmqtdn-skNixz-69" value="B" style="shape=partialRectangle;html=1;whiteSpace=wrap;connectable=0;fillColor=none;top=0;left=0;bottom=0;right=0;align=left;spacingLeft=6;overflow=hidden;fontSize=9;" parent="shBhoWdEmqtdn-skNixz-67" vertex="1">
          <mxGeometry x="20" width="48" height="20" as="geometry" />
        </mxCell>
        <mxCell id="shBhoWdEmqtdn-skNixz-70" style="shape=partialRectangle;html=1;whiteSpace=wrap;collapsible=0;dropTarget=0;pointerEvents=0;fillColor=none;top=0;left=0;bottom=1;right=0;points=[[0,0.5],[1,0.5]];portConstraint=eastwest;" parent="pm7EmsLgZ2X05vCkFp02-1" vertex="1">
          <mxGeometry y="516" width="68" height="20" as="geometry" />
        </mxCell>
        <mxCell id="shBhoWdEmqtdn-skNixz-71" value="19" style="shape=partialRectangle;html=1;whiteSpace=wrap;connectable=0;fillColor=none;top=0;left=0;bottom=0;right=0;overflow=hidden;fontSize=9;" parent="shBhoWdEmqtdn-skNixz-70" vertex="1">
          <mxGeometry width="20" height="20" as="geometry" />
        </mxCell>
        <mxCell id="shBhoWdEmqtdn-skNixz-72" style="shape=partialRectangle;html=1;whiteSpace=wrap;connectable=0;fillColor=none;top=0;left=0;bottom=0;right=0;align=left;spacingLeft=6;overflow=hidden;fontSize=9;" parent="shBhoWdEmqtdn-skNixz-70" vertex="1">
          <mxGeometry x="20" width="48" height="20" as="geometry" />
        </mxCell>
        <mxCell id="shBhoWdEmqtdn-skNixz-73" style="shape=partialRectangle;html=1;whiteSpace=wrap;collapsible=0;dropTarget=0;pointerEvents=0;fillColor=none;top=0;left=0;bottom=1;right=0;points=[[0,0.5],[1,0.5]];portConstraint=eastwest;" parent="pm7EmsLgZ2X05vCkFp02-1" vertex="1">
          <mxGeometry y="536" width="68" height="20" as="geometry" />
        </mxCell>
        <mxCell id="shBhoWdEmqtdn-skNixz-74" value="1A" style="shape=partialRectangle;html=1;whiteSpace=wrap;connectable=0;fillColor=none;top=0;left=0;bottom=0;right=0;overflow=hidden;fontSize=9;" parent="shBhoWdEmqtdn-skNixz-73" vertex="1">
          <mxGeometry width="20" height="20" as="geometry" />
        </mxCell>
        <mxCell id="shBhoWdEmqtdn-skNixz-75" style="shape=partialRectangle;html=1;whiteSpace=wrap;connectable=0;fillColor=none;top=0;left=0;bottom=0;right=0;align=left;spacingLeft=6;overflow=hidden;fontSize=9;" parent="shBhoWdEmqtdn-skNixz-73" vertex="1">
          <mxGeometry x="20" width="48" height="20" as="geometry" />
        </mxCell>
        <mxCell id="shBhoWdEmqtdn-skNixz-76" style="shape=partialRectangle;html=1;whiteSpace=wrap;collapsible=0;dropTarget=0;pointerEvents=0;fillColor=none;top=0;left=0;bottom=1;right=0;points=[[0,0.5],[1,0.5]];portConstraint=eastwest;" parent="pm7EmsLgZ2X05vCkFp02-1" vertex="1">
          <mxGeometry y="556" width="68" height="20" as="geometry" />
        </mxCell>
        <mxCell id="shBhoWdEmqtdn-skNixz-77" value="1B" style="shape=partialRectangle;html=1;whiteSpace=wrap;connectable=0;fillColor=none;top=0;left=0;bottom=0;right=0;overflow=hidden;fontSize=9;" parent="shBhoWdEmqtdn-skNixz-76" vertex="1">
          <mxGeometry width="20" height="20" as="geometry" />
        </mxCell>
        <mxCell id="shBhoWdEmqtdn-skNixz-78" style="shape=partialRectangle;html=1;whiteSpace=wrap;connectable=0;fillColor=none;top=0;left=0;bottom=0;right=0;align=left;spacingLeft=6;overflow=hidden;fontSize=9;" parent="shBhoWdEmqtdn-skNixz-76" vertex="1">
          <mxGeometry x="20" width="48" height="20" as="geometry" />
        </mxCell>
        <mxCell id="shBhoWdEmqtdn-skNixz-79" style="shape=partialRectangle;html=1;whiteSpace=wrap;collapsible=0;dropTarget=0;pointerEvents=0;fillColor=none;top=0;left=0;bottom=1;right=0;points=[[0,0.5],[1,0.5]];portConstraint=eastwest;" parent="pm7EmsLgZ2X05vCkFp02-1" vertex="1">
          <mxGeometry y="576" width="68" height="20" as="geometry" />
        </mxCell>
        <mxCell id="shBhoWdEmqtdn-skNixz-80" value="1C" style="shape=partialRectangle;html=1;whiteSpace=wrap;connectable=0;fillColor=none;top=0;left=0;bottom=0;right=0;overflow=hidden;fontSize=9;" parent="shBhoWdEmqtdn-skNixz-79" vertex="1">
          <mxGeometry width="20" height="20" as="geometry" />
        </mxCell>
        <mxCell id="shBhoWdEmqtdn-skNixz-81" style="shape=partialRectangle;html=1;whiteSpace=wrap;connectable=0;fillColor=none;top=0;left=0;bottom=0;right=0;align=left;spacingLeft=6;overflow=hidden;fontSize=9;" parent="shBhoWdEmqtdn-skNixz-79" vertex="1">
          <mxGeometry x="20" width="48" height="20" as="geometry" />
        </mxCell>
        <mxCell id="shBhoWdEmqtdn-skNixz-82" style="shape=partialRectangle;html=1;whiteSpace=wrap;collapsible=0;dropTarget=0;pointerEvents=0;fillColor=none;top=0;left=0;bottom=1;right=0;points=[[0,0.5],[1,0.5]];portConstraint=eastwest;" parent="pm7EmsLgZ2X05vCkFp02-1" vertex="1">
          <mxGeometry y="596" width="68" height="20" as="geometry" />
        </mxCell>
        <mxCell id="shBhoWdEmqtdn-skNixz-83" value="1D" style="shape=partialRectangle;html=1;whiteSpace=wrap;connectable=0;fillColor=none;top=0;left=0;bottom=0;right=0;overflow=hidden;fontSize=9;" parent="shBhoWdEmqtdn-skNixz-82" vertex="1">
          <mxGeometry width="20" height="20" as="geometry" />
        </mxCell>
        <mxCell id="shBhoWdEmqtdn-skNixz-84" style="shape=partialRectangle;html=1;whiteSpace=wrap;connectable=0;fillColor=none;top=0;left=0;bottom=0;right=0;align=left;spacingLeft=6;overflow=hidden;fontSize=9;" parent="shBhoWdEmqtdn-skNixz-82" vertex="1">
          <mxGeometry x="20" width="48" height="20" as="geometry" />
        </mxCell>
        <mxCell id="shBhoWdEmqtdn-skNixz-85" style="shape=partialRectangle;html=1;whiteSpace=wrap;collapsible=0;dropTarget=0;pointerEvents=0;fillColor=none;top=0;left=0;bottom=1;right=0;points=[[0,0.5],[1,0.5]];portConstraint=eastwest;" parent="pm7EmsLgZ2X05vCkFp02-1" vertex="1">
          <mxGeometry y="616" width="68" height="20" as="geometry" />
        </mxCell>
        <mxCell id="shBhoWdEmqtdn-skNixz-86" value="1E" style="shape=partialRectangle;html=1;whiteSpace=wrap;connectable=0;fillColor=none;top=0;left=0;bottom=0;right=0;overflow=hidden;fontSize=9;" parent="shBhoWdEmqtdn-skNixz-85" vertex="1">
          <mxGeometry width="20" height="20" as="geometry" />
        </mxCell>
        <mxCell id="shBhoWdEmqtdn-skNixz-87" style="shape=partialRectangle;html=1;whiteSpace=wrap;connectable=0;fillColor=none;top=0;left=0;bottom=0;right=0;align=left;spacingLeft=6;overflow=hidden;fontSize=9;" parent="shBhoWdEmqtdn-skNixz-85" vertex="1">
          <mxGeometry x="20" width="48" height="20" as="geometry" />
        </mxCell>
        <mxCell id="shBhoWdEmqtdn-skNixz-88" style="shape=partialRectangle;html=1;whiteSpace=wrap;collapsible=0;dropTarget=0;pointerEvents=0;fillColor=none;top=0;left=0;bottom=1;right=0;points=[[0,0.5],[1,0.5]];portConstraint=eastwest;" parent="pm7EmsLgZ2X05vCkFp02-1" vertex="1">
          <mxGeometry y="636" width="68" height="20" as="geometry" />
        </mxCell>
        <mxCell id="shBhoWdEmqtdn-skNixz-89" value="1F" style="shape=partialRectangle;html=1;whiteSpace=wrap;connectable=0;fillColor=none;top=0;left=0;bottom=0;right=0;overflow=hidden;fontSize=9;" parent="shBhoWdEmqtdn-skNixz-88" vertex="1">
          <mxGeometry width="20" height="20" as="geometry" />
        </mxCell>
        <mxCell id="shBhoWdEmqtdn-skNixz-90" style="shape=partialRectangle;html=1;whiteSpace=wrap;connectable=0;fillColor=none;top=0;left=0;bottom=0;right=0;align=left;spacingLeft=6;overflow=hidden;fontSize=9;" parent="shBhoWdEmqtdn-skNixz-88" vertex="1">
          <mxGeometry x="20" width="48" height="20" as="geometry" />
        </mxCell>
        <mxCell id="LcT3NY-aPi5lSymki26w-1" value="EA(OP2)" style="shape=table;html=1;whiteSpace=wrap;startSize=16;container=1;collapsible=0;childLayout=tableLayout;fixedRows=1;rowLines=0;fontStyle=1;align=center;fontSize=9;" parent="1" vertex="1">
          <mxGeometry x="900" y="80" width="84" height="176" as="geometry" />
        </mxCell>
        <mxCell id="LcT3NY-aPi5lSymki26w-2" value="" style="shape=partialRectangle;html=1;whiteSpace=wrap;collapsible=0;dropTarget=0;pointerEvents=0;fillColor=none;top=0;left=0;bottom=1;right=0;points=[[0,0.5],[1,0.5]];portConstraint=eastwest;fontSize=9;" parent="LcT3NY-aPi5lSymki26w-1" vertex="1">
          <mxGeometry y="16" width="84" height="20" as="geometry" />
        </mxCell>
        <mxCell id="LcT3NY-aPi5lSymki26w-3" value="0" style="shape=partialRectangle;html=1;whiteSpace=wrap;connectable=0;fillColor=none;top=0;left=0;bottom=0;right=0;overflow=hidden;fontSize=9;" parent="LcT3NY-aPi5lSymki26w-2" vertex="1">
          <mxGeometry width="20" height="20" as="geometry" />
        </mxCell>
        <mxCell id="LcT3NY-aPi5lSymki26w-4" value="DR" style="shape=partialRectangle;html=1;whiteSpace=wrap;connectable=0;fillColor=none;top=0;left=0;bottom=0;right=0;align=left;spacingLeft=6;overflow=hidden;fontSize=9;" parent="LcT3NY-aPi5lSymki26w-2" vertex="1">
          <mxGeometry x="20" width="64" height="20" as="geometry" />
        </mxCell>
        <mxCell id="LcT3NY-aPi5lSymki26w-5" value="" style="shape=partialRectangle;html=1;whiteSpace=wrap;collapsible=0;dropTarget=0;pointerEvents=0;fillColor=none;top=0;left=0;bottom=1;right=0;points=[[0,0.5],[1,0.5]];portConstraint=eastwest;fontSize=9;" parent="LcT3NY-aPi5lSymki26w-1" vertex="1">
          <mxGeometry y="36" width="84" height="20" as="geometry" />
        </mxCell>
        <mxCell id="LcT3NY-aPi5lSymki26w-6" value="1" style="shape=partialRectangle;html=1;whiteSpace=wrap;connectable=0;fillColor=none;top=0;left=0;bottom=0;right=0;overflow=hidden;fontSize=9;" parent="LcT3NY-aPi5lSymki26w-5" vertex="1">
          <mxGeometry width="20" height="20" as="geometry" />
        </mxCell>
        <mxCell id="LcT3NY-aPi5lSymki26w-7" value="DR+GR[Rx]" style="shape=partialRectangle;html=1;whiteSpace=wrap;connectable=0;fillColor=none;top=0;left=0;bottom=0;right=0;align=left;spacingLeft=6;overflow=hidden;fontSize=9;" parent="LcT3NY-aPi5lSymki26w-5" vertex="1">
          <mxGeometry x="20" width="64" height="20" as="geometry" />
        </mxCell>
        <mxCell id="LcT3NY-aPi5lSymki26w-8" value="" style="shape=partialRectangle;html=1;whiteSpace=wrap;collapsible=0;dropTarget=0;pointerEvents=0;fillColor=none;top=0;left=0;bottom=1;right=0;points=[[0,0.5],[1,0.5]];portConstraint=eastwest;fontSize=9;" parent="LcT3NY-aPi5lSymki26w-1" vertex="1">
          <mxGeometry y="56" width="84" height="20" as="geometry" />
        </mxCell>
        <mxCell id="LcT3NY-aPi5lSymki26w-9" value="2" style="shape=partialRectangle;html=1;whiteSpace=wrap;connectable=0;fillColor=none;top=0;left=0;bottom=0;right=0;overflow=hidden;fontSize=9;" parent="LcT3NY-aPi5lSymki26w-8" vertex="1">
          <mxGeometry width="20" height="20" as="geometry" />
        </mxCell>
        <mxCell id="LcT3NY-aPi5lSymki26w-10" value="" style="shape=partialRectangle;html=1;whiteSpace=wrap;connectable=0;fillColor=none;top=0;left=0;bottom=0;right=0;align=left;spacingLeft=6;overflow=hidden;fontSize=9;" parent="LcT3NY-aPi5lSymki26w-8" vertex="1">
          <mxGeometry x="20" width="64" height="20" as="geometry" />
        </mxCell>
        <mxCell id="LcT3NY-aPi5lSymki26w-11" value="" style="shape=partialRectangle;html=1;whiteSpace=wrap;collapsible=0;dropTarget=0;pointerEvents=0;fillColor=none;top=0;left=0;bottom=1;right=0;points=[[0,0.5],[1,0.5]];portConstraint=eastwest;fontSize=9;" parent="LcT3NY-aPi5lSymki26w-1" vertex="1">
          <mxGeometry y="76" width="84" height="20" as="geometry" />
        </mxCell>
        <mxCell id="LcT3NY-aPi5lSymki26w-12" value="3" style="shape=partialRectangle;html=1;whiteSpace=wrap;connectable=0;fillColor=none;top=0;left=0;bottom=0;right=0;overflow=hidden;fontSize=9;" parent="LcT3NY-aPi5lSymki26w-11" vertex="1">
          <mxGeometry width="20" height="20" as="geometry" />
        </mxCell>
        <mxCell id="LcT3NY-aPi5lSymki26w-13" value="FP + DR * 2" style="shape=partialRectangle;html=1;whiteSpace=wrap;connectable=0;fillColor=none;top=0;left=0;bottom=0;right=0;align=left;spacingLeft=6;overflow=hidden;fontSize=9;" parent="LcT3NY-aPi5lSymki26w-11" vertex="1">
          <mxGeometry x="20" width="64" height="20" as="geometry" />
        </mxCell>
        <mxCell id="LcT3NY-aPi5lSymki26w-14" value="" style="shape=partialRectangle;html=1;whiteSpace=wrap;collapsible=0;dropTarget=0;pointerEvents=0;fillColor=none;top=0;left=0;bottom=1;right=0;points=[[0,0.5],[1,0.5]];portConstraint=eastwest;fontSize=9;" parent="LcT3NY-aPi5lSymki26w-1" vertex="1">
          <mxGeometry y="96" width="84" height="20" as="geometry" />
        </mxCell>
        <mxCell id="LcT3NY-aPi5lSymki26w-15" value="4" style="shape=partialRectangle;html=1;whiteSpace=wrap;connectable=0;fillColor=none;top=0;left=0;bottom=0;right=0;overflow=hidden;fontSize=9;" parent="LcT3NY-aPi5lSymki26w-14" vertex="1">
          <mxGeometry width="20" height="20" as="geometry" />
        </mxCell>
        <mxCell id="LcT3NY-aPi5lSymki26w-16" value="" style="shape=partialRectangle;html=1;whiteSpace=wrap;connectable=0;fillColor=none;top=0;left=0;bottom=0;right=0;align=left;spacingLeft=6;overflow=hidden;fontSize=9;" parent="LcT3NY-aPi5lSymki26w-14" vertex="1">
          <mxGeometry x="20" width="64" height="20" as="geometry" />
        </mxCell>
        <mxCell id="LcT3NY-aPi5lSymki26w-17" value="" style="shape=partialRectangle;html=1;whiteSpace=wrap;collapsible=0;dropTarget=0;pointerEvents=0;fillColor=none;top=0;left=0;bottom=1;right=0;points=[[0,0.5],[1,0.5]];portConstraint=eastwest;fontSize=9;" parent="LcT3NY-aPi5lSymki26w-1" vertex="1">
          <mxGeometry y="116" width="84" height="20" as="geometry" />
        </mxCell>
        <mxCell id="LcT3NY-aPi5lSymki26w-18" value="5" style="shape=partialRectangle;html=1;whiteSpace=wrap;connectable=0;fillColor=none;top=0;left=0;bottom=0;right=0;overflow=hidden;fontSize=9;" parent="LcT3NY-aPi5lSymki26w-17" vertex="1">
          <mxGeometry width="20" height="20" as="geometry" />
        </mxCell>
        <mxCell id="LcT3NY-aPi5lSymki26w-19" value="" style="shape=partialRectangle;html=1;whiteSpace=wrap;connectable=0;fillColor=none;top=0;left=0;bottom=0;right=0;align=left;spacingLeft=6;overflow=hidden;fontSize=9;" parent="LcT3NY-aPi5lSymki26w-17" vertex="1">
          <mxGeometry x="20" width="64" height="20" as="geometry" />
        </mxCell>
        <mxCell id="LcT3NY-aPi5lSymki26w-20" value="" style="shape=partialRectangle;html=1;whiteSpace=wrap;collapsible=0;dropTarget=0;pointerEvents=0;fillColor=none;top=0;left=0;bottom=1;right=0;points=[[0,0.5],[1,0.5]];portConstraint=eastwest;fontSize=9;" parent="LcT3NY-aPi5lSymki26w-1" vertex="1">
          <mxGeometry y="136" width="84" height="20" as="geometry" />
        </mxCell>
        <mxCell id="LcT3NY-aPi5lSymki26w-21" value="6" style="shape=partialRectangle;html=1;whiteSpace=wrap;connectable=0;fillColor=none;top=0;left=0;bottom=0;right=0;overflow=hidden;fontSize=9;" parent="LcT3NY-aPi5lSymki26w-20" vertex="1">
          <mxGeometry width="20" height="20" as="geometry" />
        </mxCell>
        <mxCell id="LcT3NY-aPi5lSymki26w-22" value="GR[Rx]" style="shape=partialRectangle;html=1;whiteSpace=wrap;connectable=0;fillColor=none;top=0;left=0;bottom=0;right=0;align=left;spacingLeft=6;overflow=hidden;fontSize=9;" parent="LcT3NY-aPi5lSymki26w-20" vertex="1">
          <mxGeometry x="20" width="64" height="20" as="geometry" />
        </mxCell>
        <mxCell id="LcT3NY-aPi5lSymki26w-23" value="" style="shape=partialRectangle;html=1;whiteSpace=wrap;collapsible=0;dropTarget=0;pointerEvents=0;fillColor=none;top=0;left=0;bottom=1;right=0;points=[[0,0.5],[1,0.5]];portConstraint=eastwest;fontSize=9;" parent="LcT3NY-aPi5lSymki26w-1" vertex="1">
          <mxGeometry y="156" width="84" height="20" as="geometry" />
        </mxCell>
        <mxCell id="LcT3NY-aPi5lSymki26w-24" value="7" style="shape=partialRectangle;html=1;whiteSpace=wrap;connectable=0;fillColor=none;top=0;left=0;bottom=0;right=0;overflow=hidden;fontSize=9;" parent="LcT3NY-aPi5lSymki26w-23" vertex="1">
          <mxGeometry width="20" height="20" as="geometry" />
        </mxCell>
        <mxCell id="LcT3NY-aPi5lSymki26w-25" value="GR[Rx]" style="shape=partialRectangle;html=1;whiteSpace=wrap;connectable=0;fillColor=none;top=0;left=0;bottom=0;right=0;align=left;spacingLeft=6;overflow=hidden;fontSize=9;" parent="LcT3NY-aPi5lSymki26w-23" vertex="1">
          <mxGeometry x="20" width="64" height="20" as="geometry" />
        </mxCell>
        <mxCell id="Ne0-jupFuTDZ19GMWpf4-1" value="Asel" style="shape=table;html=1;whiteSpace=wrap;startSize=16;container=1;collapsible=0;childLayout=tableLayout;fixedRows=1;rowLines=0;fontStyle=1;align=center;fontSize=9;" parent="1" vertex="1">
          <mxGeometry x="996" y="80" width="60" height="176" as="geometry" />
        </mxCell>
        <mxCell id="Ne0-jupFuTDZ19GMWpf4-2" value="" style="shape=partialRectangle;html=1;whiteSpace=wrap;collapsible=0;dropTarget=0;pointerEvents=0;fillColor=none;top=0;left=0;bottom=1;right=0;points=[[0,0.5],[1,0.5]];portConstraint=eastwest;fontSize=9;" parent="Ne0-jupFuTDZ19GMWpf4-1" vertex="1">
          <mxGeometry y="16" width="60" height="20" as="geometry" />
        </mxCell>
        <mxCell id="Ne0-jupFuTDZ19GMWpf4-3" value="0" style="shape=partialRectangle;html=1;whiteSpace=wrap;connectable=0;fillColor=none;top=0;left=0;bottom=0;right=0;overflow=hidden;fontSize=9;" parent="Ne0-jupFuTDZ19GMWpf4-2" vertex="1">
          <mxGeometry width="20" height="20" as="geometry" />
        </mxCell>
        <mxCell id="Ne0-jupFuTDZ19GMWpf4-4" value="PC" style="shape=partialRectangle;html=1;whiteSpace=wrap;connectable=0;fillColor=none;top=0;left=0;bottom=0;right=0;align=left;spacingLeft=6;overflow=hidden;fontSize=9;" parent="Ne0-jupFuTDZ19GMWpf4-2" vertex="1">
          <mxGeometry x="20" width="40" height="20" as="geometry" />
        </mxCell>
        <mxCell id="Ne0-jupFuTDZ19GMWpf4-5" value="" style="shape=partialRectangle;html=1;whiteSpace=wrap;collapsible=0;dropTarget=0;pointerEvents=0;fillColor=none;top=0;left=0;bottom=1;right=0;points=[[0,0.5],[1,0.5]];portConstraint=eastwest;fontSize=9;" parent="Ne0-jupFuTDZ19GMWpf4-1" vertex="1">
          <mxGeometry y="36" width="60" height="20" as="geometry" />
        </mxCell>
        <mxCell id="Ne0-jupFuTDZ19GMWpf4-6" value="1" style="shape=partialRectangle;html=1;whiteSpace=wrap;connectable=0;fillColor=none;top=0;left=0;bottom=0;right=0;overflow=hidden;fontSize=9;" parent="Ne0-jupFuTDZ19GMWpf4-5" vertex="1">
          <mxGeometry width="20" height="20" as="geometry" />
        </mxCell>
        <mxCell id="Ne0-jupFuTDZ19GMWpf4-7" value="PC+2" style="shape=partialRectangle;html=1;whiteSpace=wrap;connectable=0;fillColor=none;top=0;left=0;bottom=0;right=0;align=left;spacingLeft=6;overflow=hidden;fontSize=9;" parent="Ne0-jupFuTDZ19GMWpf4-5" vertex="1">
          <mxGeometry x="20" width="40" height="20" as="geometry" />
        </mxCell>
        <mxCell id="Ne0-jupFuTDZ19GMWpf4-8" value="" style="shape=partialRectangle;html=1;whiteSpace=wrap;collapsible=0;dropTarget=0;pointerEvents=0;fillColor=none;top=0;left=0;bottom=1;right=0;points=[[0,0.5],[1,0.5]];portConstraint=eastwest;fontSize=9;" parent="Ne0-jupFuTDZ19GMWpf4-1" vertex="1">
          <mxGeometry y="56" width="60" height="20" as="geometry" />
        </mxCell>
        <mxCell id="Ne0-jupFuTDZ19GMWpf4-9" value="2" style="shape=partialRectangle;html=1;whiteSpace=wrap;connectable=0;fillColor=none;top=0;left=0;bottom=0;right=0;overflow=hidden;fontSize=9;" parent="Ne0-jupFuTDZ19GMWpf4-8" vertex="1">
          <mxGeometry width="20" height="20" as="geometry" />
        </mxCell>
        <mxCell id="Ne0-jupFuTDZ19GMWpf4-10" value="EA" style="shape=partialRectangle;html=1;whiteSpace=wrap;connectable=0;fillColor=none;top=0;left=0;bottom=0;right=0;align=left;spacingLeft=6;overflow=hidden;fontSize=9;" parent="Ne0-jupFuTDZ19GMWpf4-8" vertex="1">
          <mxGeometry x="20" width="40" height="20" as="geometry" />
        </mxCell>
        <mxCell id="Ne0-jupFuTDZ19GMWpf4-11" value="" style="shape=partialRectangle;html=1;whiteSpace=wrap;collapsible=0;dropTarget=0;pointerEvents=0;fillColor=none;top=0;left=0;bottom=1;right=0;points=[[0,0.5],[1,0.5]];portConstraint=eastwest;fontSize=9;" parent="Ne0-jupFuTDZ19GMWpf4-1" vertex="1">
          <mxGeometry y="76" width="60" height="20" as="geometry" />
        </mxCell>
        <mxCell id="Ne0-jupFuTDZ19GMWpf4-12" value="3" style="shape=partialRectangle;html=1;whiteSpace=wrap;connectable=0;fillColor=none;top=0;left=0;bottom=0;right=0;overflow=hidden;fontSize=9;" parent="Ne0-jupFuTDZ19GMWpf4-11" vertex="1">
          <mxGeometry width="20" height="20" as="geometry" />
        </mxCell>
        <mxCell id="Ne0-jupFuTDZ19GMWpf4-13" value="" style="shape=partialRectangle;html=1;whiteSpace=wrap;connectable=0;fillColor=none;top=0;left=0;bottom=0;right=0;align=left;spacingLeft=6;overflow=hidden;fontSize=9;" parent="Ne0-jupFuTDZ19GMWpf4-11" vertex="1">
          <mxGeometry x="20" width="40" height="20" as="geometry" />
        </mxCell>
        <mxCell id="Ne0-jupFuTDZ19GMWpf4-14" value="" style="shape=partialRectangle;html=1;whiteSpace=wrap;collapsible=0;dropTarget=0;pointerEvents=0;fillColor=none;top=0;left=0;bottom=1;right=0;points=[[0,0.5],[1,0.5]];portConstraint=eastwest;fontSize=9;" parent="Ne0-jupFuTDZ19GMWpf4-1" vertex="1">
          <mxGeometry y="96" width="60" height="20" as="geometry" />
        </mxCell>
        <mxCell id="Ne0-jupFuTDZ19GMWpf4-15" value="4" style="shape=partialRectangle;html=1;whiteSpace=wrap;connectable=0;fillColor=none;top=0;left=0;bottom=0;right=0;overflow=hidden;fontSize=9;" parent="Ne0-jupFuTDZ19GMWpf4-14" vertex="1">
          <mxGeometry width="20" height="20" as="geometry" />
        </mxCell>
        <mxCell id="Ne0-jupFuTDZ19GMWpf4-16" value="SP" style="shape=partialRectangle;html=1;whiteSpace=wrap;connectable=0;fillColor=none;top=0;left=0;bottom=0;right=0;align=left;spacingLeft=6;overflow=hidden;fontSize=9;" parent="Ne0-jupFuTDZ19GMWpf4-14" vertex="1">
          <mxGeometry x="20" width="40" height="20" as="geometry" />
        </mxCell>
        <mxCell id="Ne0-jupFuTDZ19GMWpf4-17" value="" style="shape=partialRectangle;html=1;whiteSpace=wrap;collapsible=0;dropTarget=0;pointerEvents=0;fillColor=none;top=0;left=0;bottom=1;right=0;points=[[0,0.5],[1,0.5]];portConstraint=eastwest;fontSize=9;" parent="Ne0-jupFuTDZ19GMWpf4-1" vertex="1">
          <mxGeometry y="116" width="60" height="20" as="geometry" />
        </mxCell>
        <mxCell id="Ne0-jupFuTDZ19GMWpf4-18" value="5" style="shape=partialRectangle;html=1;whiteSpace=wrap;connectable=0;fillColor=none;top=0;left=0;bottom=0;right=0;overflow=hidden;fontSize=9;" parent="Ne0-jupFuTDZ19GMWpf4-17" vertex="1">
          <mxGeometry width="20" height="20" as="geometry" />
        </mxCell>
        <mxCell id="Ne0-jupFuTDZ19GMWpf4-19" value="SP+2" style="shape=partialRectangle;html=1;whiteSpace=wrap;connectable=0;fillColor=none;top=0;left=0;bottom=0;right=0;align=left;spacingLeft=6;overflow=hidden;fontSize=9;" parent="Ne0-jupFuTDZ19GMWpf4-17" vertex="1">
          <mxGeometry x="20" width="40" height="20" as="geometry" />
        </mxCell>
        <mxCell id="Ne0-jupFuTDZ19GMWpf4-20" value="" style="shape=partialRectangle;html=1;whiteSpace=wrap;collapsible=0;dropTarget=0;pointerEvents=0;fillColor=none;top=0;left=0;bottom=1;right=0;points=[[0,0.5],[1,0.5]];portConstraint=eastwest;fontSize=9;" parent="Ne0-jupFuTDZ19GMWpf4-1" vertex="1">
          <mxGeometry y="136" width="60" height="20" as="geometry" />
        </mxCell>
        <mxCell id="Ne0-jupFuTDZ19GMWpf4-21" value="6" style="shape=partialRectangle;html=1;whiteSpace=wrap;connectable=0;fillColor=none;top=0;left=0;bottom=0;right=0;overflow=hidden;fontSize=9;" parent="Ne0-jupFuTDZ19GMWpf4-20" vertex="1">
          <mxGeometry width="20" height="20" as="geometry" />
        </mxCell>
        <mxCell id="Ne0-jupFuTDZ19GMWpf4-22" value="SP-2" style="shape=partialRectangle;html=1;whiteSpace=wrap;connectable=0;fillColor=none;top=0;left=0;bottom=0;right=0;align=left;spacingLeft=6;overflow=hidden;fontSize=9;" parent="Ne0-jupFuTDZ19GMWpf4-20" vertex="1">
          <mxGeometry x="20" width="40" height="20" as="geometry" />
        </mxCell>
        <mxCell id="Ne0-jupFuTDZ19GMWpf4-23" value="" style="shape=partialRectangle;html=1;whiteSpace=wrap;collapsible=0;dropTarget=0;pointerEvents=0;fillColor=none;top=0;left=0;bottom=1;right=0;points=[[0,0.5],[1,0.5]];portConstraint=eastwest;fontSize=9;" parent="Ne0-jupFuTDZ19GMWpf4-1" vertex="1">
          <mxGeometry y="156" width="60" height="20" as="geometry" />
        </mxCell>
        <mxCell id="Ne0-jupFuTDZ19GMWpf4-24" value="7" style="shape=partialRectangle;html=1;whiteSpace=wrap;connectable=0;fillColor=none;top=0;left=0;bottom=0;right=0;overflow=hidden;fontSize=9;" parent="Ne0-jupFuTDZ19GMWpf4-23" vertex="1">
          <mxGeometry width="20" height="20" as="geometry" />
        </mxCell>
        <mxCell id="Ne0-jupFuTDZ19GMWpf4-25" value="" style="shape=partialRectangle;html=1;whiteSpace=wrap;connectable=0;fillColor=none;top=0;left=0;bottom=0;right=0;align=left;spacingLeft=6;overflow=hidden;fontSize=9;" parent="Ne0-jupFuTDZ19GMWpf4-23" vertex="1">
          <mxGeometry x="20" width="40" height="20" as="geometry" />
        </mxCell>
        <mxCell id="Ne0-jupFuTDZ19GMWpf4-26" value="Dsel" style="shape=table;html=1;whiteSpace=wrap;startSize=12;container=1;collapsible=0;childLayout=tableLayout;fixedRows=1;rowLines=0;fontStyle=1;align=center;fontSize=9;" parent="1" vertex="1">
          <mxGeometry x="900" y="372" width="84" height="172" as="geometry" />
        </mxCell>
        <mxCell id="Ne0-jupFuTDZ19GMWpf4-27" value="" style="shape=partialRectangle;html=1;whiteSpace=wrap;collapsible=0;dropTarget=0;pointerEvents=0;fillColor=none;top=0;left=0;bottom=1;right=0;points=[[0,0.5],[1,0.5]];portConstraint=eastwest;fontSize=9;" parent="Ne0-jupFuTDZ19GMWpf4-26" vertex="1">
          <mxGeometry y="12" width="84" height="20" as="geometry" />
        </mxCell>
        <mxCell id="Ne0-jupFuTDZ19GMWpf4-28" value="0" style="shape=partialRectangle;html=1;whiteSpace=wrap;connectable=0;fillColor=none;top=0;left=0;bottom=0;right=0;overflow=hidden;fontSize=9;" parent="Ne0-jupFuTDZ19GMWpf4-27" vertex="1">
          <mxGeometry width="20" height="20" as="geometry" />
        </mxCell>
        <mxCell id="Ne0-jupFuTDZ19GMWpf4-29" value="PC" style="shape=partialRectangle;html=1;whiteSpace=wrap;connectable=0;fillColor=none;top=0;left=0;bottom=0;right=0;align=left;spacingLeft=6;overflow=hidden;fontSize=9;" parent="Ne0-jupFuTDZ19GMWpf4-27" vertex="1">
          <mxGeometry x="20" width="64" height="20" as="geometry" />
        </mxCell>
        <mxCell id="Ne0-jupFuTDZ19GMWpf4-30" value="" style="shape=partialRectangle;html=1;whiteSpace=wrap;collapsible=0;dropTarget=0;pointerEvents=0;fillColor=none;top=0;left=0;bottom=1;right=0;points=[[0,0.5],[1,0.5]];portConstraint=eastwest;fontSize=9;" parent="Ne0-jupFuTDZ19GMWpf4-26" vertex="1">
          <mxGeometry y="32" width="84" height="20" as="geometry" />
        </mxCell>
        <mxCell id="Ne0-jupFuTDZ19GMWpf4-31" value="1" style="shape=partialRectangle;html=1;whiteSpace=wrap;connectable=0;fillColor=none;top=0;left=0;bottom=0;right=0;overflow=hidden;fontSize=9;" parent="Ne0-jupFuTDZ19GMWpf4-30" vertex="1">
          <mxGeometry width="20" height="20" as="geometry" />
        </mxCell>
        <mxCell id="Ne0-jupFuTDZ19GMWpf4-32" value="PC+2" style="shape=partialRectangle;html=1;whiteSpace=wrap;connectable=0;fillColor=none;top=0;left=0;bottom=0;right=0;align=left;spacingLeft=6;overflow=hidden;fontSize=9;" parent="Ne0-jupFuTDZ19GMWpf4-30" vertex="1">
          <mxGeometry x="20" width="64" height="20" as="geometry" />
        </mxCell>
        <mxCell id="Ne0-jupFuTDZ19GMWpf4-33" value="" style="shape=partialRectangle;html=1;whiteSpace=wrap;collapsible=0;dropTarget=0;pointerEvents=0;fillColor=none;top=0;left=0;bottom=1;right=0;points=[[0,0.5],[1,0.5]];portConstraint=eastwest;fontSize=9;" parent="Ne0-jupFuTDZ19GMWpf4-26" vertex="1">
          <mxGeometry y="52" width="84" height="20" as="geometry" />
        </mxCell>
        <mxCell id="Ne0-jupFuTDZ19GMWpf4-34" value="2" style="shape=partialRectangle;html=1;whiteSpace=wrap;connectable=0;fillColor=none;top=0;left=0;bottom=0;right=0;overflow=hidden;fontSize=9;" parent="Ne0-jupFuTDZ19GMWpf4-33" vertex="1">
          <mxGeometry width="20" height="20" as="geometry" />
        </mxCell>
        <mxCell id="Ne0-jupFuTDZ19GMWpf4-35" value="PC+4" style="shape=partialRectangle;html=1;whiteSpace=wrap;connectable=0;fillColor=none;top=0;left=0;bottom=0;right=0;align=left;spacingLeft=6;overflow=hidden;fontSize=9;" parent="Ne0-jupFuTDZ19GMWpf4-33" vertex="1">
          <mxGeometry x="20" width="64" height="20" as="geometry" />
        </mxCell>
        <mxCell id="Ne0-jupFuTDZ19GMWpf4-36" value="" style="shape=partialRectangle;html=1;whiteSpace=wrap;collapsible=0;dropTarget=0;pointerEvents=0;fillColor=none;top=0;left=0;bottom=1;right=0;points=[[0,0.5],[1,0.5]];portConstraint=eastwest;fontSize=9;" parent="Ne0-jupFuTDZ19GMWpf4-26" vertex="1">
          <mxGeometry y="72" width="84" height="20" as="geometry" />
        </mxCell>
        <mxCell id="Ne0-jupFuTDZ19GMWpf4-37" value="3" style="shape=partialRectangle;html=1;whiteSpace=wrap;connectable=0;fillColor=none;top=0;left=0;bottom=0;right=0;overflow=hidden;fontSize=9;" parent="Ne0-jupFuTDZ19GMWpf4-36" vertex="1">
          <mxGeometry width="20" height="20" as="geometry" />
        </mxCell>
        <mxCell id="Ne0-jupFuTDZ19GMWpf4-38" value="" style="shape=partialRectangle;html=1;whiteSpace=wrap;connectable=0;fillColor=none;top=0;left=0;bottom=0;right=0;align=left;spacingLeft=6;overflow=hidden;fontSize=9;" parent="Ne0-jupFuTDZ19GMWpf4-36" vertex="1">
          <mxGeometry x="20" width="64" height="20" as="geometry" />
        </mxCell>
        <mxCell id="Ne0-jupFuTDZ19GMWpf4-39" value="" style="shape=partialRectangle;html=1;whiteSpace=wrap;collapsible=0;dropTarget=0;pointerEvents=0;fillColor=none;top=0;left=0;bottom=1;right=0;points=[[0,0.5],[1,0.5]];portConstraint=eastwest;fontSize=9;" parent="Ne0-jupFuTDZ19GMWpf4-26" vertex="1">
          <mxGeometry y="92" width="84" height="20" as="geometry" />
        </mxCell>
        <mxCell id="Ne0-jupFuTDZ19GMWpf4-40" value="4" style="shape=partialRectangle;html=1;whiteSpace=wrap;connectable=0;fillColor=none;top=0;left=0;bottom=0;right=0;overflow=hidden;fontSize=9;" parent="Ne0-jupFuTDZ19GMWpf4-39" vertex="1">
          <mxGeometry width="20" height="20" as="geometry" />
        </mxCell>
        <mxCell id="Ne0-jupFuTDZ19GMWpf4-41" value="GR[Rd]" style="shape=partialRectangle;html=1;whiteSpace=wrap;connectable=0;fillColor=none;top=0;left=0;bottom=0;right=0;align=left;spacingLeft=6;overflow=hidden;fontSize=9;" parent="Ne0-jupFuTDZ19GMWpf4-39" vertex="1">
          <mxGeometry x="20" width="64" height="20" as="geometry" />
        </mxCell>
        <mxCell id="Ne0-jupFuTDZ19GMWpf4-42" value="" style="shape=partialRectangle;html=1;whiteSpace=wrap;collapsible=0;dropTarget=0;pointerEvents=0;fillColor=none;top=0;left=0;bottom=1;right=0;points=[[0,0.5],[1,0.5]];portConstraint=eastwest;fontSize=9;" parent="Ne0-jupFuTDZ19GMWpf4-26" vertex="1">
          <mxGeometry y="112" width="84" height="20" as="geometry" />
        </mxCell>
        <mxCell id="Ne0-jupFuTDZ19GMWpf4-43" value="5" style="shape=partialRectangle;html=1;whiteSpace=wrap;connectable=0;fillColor=none;top=0;left=0;bottom=0;right=0;overflow=hidden;fontSize=9;" parent="Ne0-jupFuTDZ19GMWpf4-42" vertex="1">
          <mxGeometry width="20" height="20" as="geometry" />
        </mxCell>
        <mxCell id="Ne0-jupFuTDZ19GMWpf4-44" value="GR[Rd]&amp;lt;&amp;lt;8" style="shape=partialRectangle;html=1;whiteSpace=wrap;connectable=0;fillColor=none;top=0;left=0;bottom=0;right=0;align=left;spacingLeft=6;overflow=hidden;fontSize=9;" parent="Ne0-jupFuTDZ19GMWpf4-42" vertex="1">
          <mxGeometry x="20" width="64" height="20" as="geometry" />
        </mxCell>
        <mxCell id="Ne0-jupFuTDZ19GMWpf4-45" value="" style="shape=partialRectangle;html=1;whiteSpace=wrap;collapsible=0;dropTarget=0;pointerEvents=0;fillColor=none;top=0;left=0;bottom=1;right=0;points=[[0,0.5],[1,0.5]];portConstraint=eastwest;fontSize=9;" parent="Ne0-jupFuTDZ19GMWpf4-26" vertex="1">
          <mxGeometry y="132" width="84" height="20" as="geometry" />
        </mxCell>
        <mxCell id="Ne0-jupFuTDZ19GMWpf4-46" value="6" style="shape=partialRectangle;html=1;whiteSpace=wrap;connectable=0;fillColor=none;top=0;left=0;bottom=0;right=0;overflow=hidden;fontSize=9;" parent="Ne0-jupFuTDZ19GMWpf4-45" vertex="1">
          <mxGeometry width="20" height="20" as="geometry" />
        </mxCell>
        <mxCell id="Ne0-jupFuTDZ19GMWpf4-47" value="FLAG" style="shape=partialRectangle;html=1;whiteSpace=wrap;connectable=0;fillColor=none;top=0;left=0;bottom=0;right=0;align=left;spacingLeft=6;overflow=hidden;fontSize=9;" parent="Ne0-jupFuTDZ19GMWpf4-45" vertex="1">
          <mxGeometry x="20" width="64" height="20" as="geometry" />
        </mxCell>
        <mxCell id="Ne0-jupFuTDZ19GMWpf4-48" value="" style="shape=partialRectangle;html=1;whiteSpace=wrap;collapsible=0;dropTarget=0;pointerEvents=0;fillColor=none;top=0;left=0;bottom=1;right=0;points=[[0,0.5],[1,0.5]];portConstraint=eastwest;fontSize=9;" parent="Ne0-jupFuTDZ19GMWpf4-26" vertex="1">
          <mxGeometry y="152" width="84" height="20" as="geometry" />
        </mxCell>
        <mxCell id="Ne0-jupFuTDZ19GMWpf4-49" value="7" style="shape=partialRectangle;html=1;whiteSpace=wrap;connectable=0;fillColor=none;top=0;left=0;bottom=0;right=0;overflow=hidden;fontSize=9;" parent="Ne0-jupFuTDZ19GMWpf4-48" vertex="1">
          <mxGeometry width="20" height="20" as="geometry" />
        </mxCell>
        <mxCell id="Ne0-jupFuTDZ19GMWpf4-50" value="TMP" style="shape=partialRectangle;html=1;whiteSpace=wrap;connectable=0;fillColor=none;top=0;left=0;bottom=0;right=0;align=left;spacingLeft=6;overflow=hidden;fontSize=9;" parent="Ne0-jupFuTDZ19GMWpf4-48" vertex="1">
          <mxGeometry x="20" width="64" height="20" as="geometry" />
        </mxCell>
        <mxCell id="aBQadNJx4TkFtl371Pkl-1" value="Bsel" style="shape=table;html=1;whiteSpace=wrap;startSize=12;container=1;collapsible=0;childLayout=tableLayout;fixedRows=1;rowLines=0;fontStyle=1;align=center;fontSize=9;" parent="1" vertex="1">
          <mxGeometry x="900" y="288" width="84" height="52" as="geometry" />
        </mxCell>
        <mxCell id="aBQadNJx4TkFtl371Pkl-2" value="" style="shape=partialRectangle;html=1;whiteSpace=wrap;collapsible=0;dropTarget=0;pointerEvents=0;fillColor=none;top=0;left=0;bottom=1;right=0;points=[[0,0.5],[1,0.5]];portConstraint=eastwest;fontSize=9;" parent="aBQadNJx4TkFtl371Pkl-1" vertex="1">
          <mxGeometry y="12" width="84" height="20" as="geometry" />
        </mxCell>
        <mxCell id="aBQadNJx4TkFtl371Pkl-3" value="0" style="shape=partialRectangle;html=1;whiteSpace=wrap;connectable=0;fillColor=none;top=0;left=0;bottom=0;right=0;overflow=hidden;fontSize=9;" parent="aBQadNJx4TkFtl371Pkl-2" vertex="1">
          <mxGeometry width="20" height="20" as="geometry" />
        </mxCell>
        <mxCell id="aBQadNJx4TkFtl371Pkl-4" value="DR" style="shape=partialRectangle;html=1;whiteSpace=wrap;connectable=0;fillColor=none;top=0;left=0;bottom=0;right=0;align=left;spacingLeft=6;overflow=hidden;fontSize=9;" parent="aBQadNJx4TkFtl371Pkl-2" vertex="1">
          <mxGeometry x="20" width="64" height="20" as="geometry" />
        </mxCell>
        <mxCell id="aBQadNJx4TkFtl371Pkl-5" value="" style="shape=partialRectangle;html=1;whiteSpace=wrap;collapsible=0;dropTarget=0;pointerEvents=0;fillColor=none;top=0;left=0;bottom=1;right=0;points=[[0,0.5],[1,0.5]];portConstraint=eastwest;fontSize=9;" parent="aBQadNJx4TkFtl371Pkl-1" vertex="1">
          <mxGeometry y="32" width="84" height="20" as="geometry" />
        </mxCell>
        <mxCell id="aBQadNJx4TkFtl371Pkl-6" value="1" style="shape=partialRectangle;html=1;whiteSpace=wrap;connectable=0;fillColor=none;top=0;left=0;bottom=0;right=0;overflow=hidden;fontSize=9;" parent="aBQadNJx4TkFtl371Pkl-5" vertex="1">
          <mxGeometry width="20" height="20" as="geometry" />
        </mxCell>
        <mxCell id="aBQadNJx4TkFtl371Pkl-7" value="GR[Rs]" style="shape=partialRectangle;html=1;whiteSpace=wrap;connectable=0;fillColor=none;top=0;left=0;bottom=0;right=0;align=left;spacingLeft=6;overflow=hidden;fontSize=9;" parent="aBQadNJx4TkFtl371Pkl-5" vertex="1">
          <mxGeometry x="20" width="64" height="20" as="geometry" />
        </mxCell>
        <mxCell id="aBQadNJx4TkFtl371Pkl-8" value="Wsel" style="shape=table;html=1;whiteSpace=wrap;startSize=16;container=1;collapsible=0;childLayout=tableLayout;fixedRows=1;rowLines=0;fontStyle=1;align=center;fontSize=9;rounded=0;columnLines=1;noLabel=0;" parent="1" vertex="1">
          <mxGeometry x="756" y="80" width="60" height="96" as="geometry" />
        </mxCell>
        <mxCell id="aBQadNJx4TkFtl371Pkl-9" value="" style="shape=partialRectangle;html=1;whiteSpace=wrap;collapsible=0;dropTarget=0;pointerEvents=0;fillColor=none;top=0;left=0;bottom=1;right=0;points=[[0,0.5],[1,0.5]];portConstraint=eastwest;fontSize=9;" parent="aBQadNJx4TkFtl371Pkl-8" vertex="1">
          <mxGeometry y="16" width="60" height="20" as="geometry" />
        </mxCell>
        <mxCell id="aBQadNJx4TkFtl371Pkl-10" value="0" style="shape=partialRectangle;html=1;whiteSpace=wrap;connectable=0;top=0;left=0;bottom=0;right=0;overflow=hidden;fontSize=9;strokeWidth=1;opacity=70;fillColor=none;" parent="aBQadNJx4TkFtl371Pkl-9" vertex="1">
          <mxGeometry width="24" height="20" as="geometry" />
        </mxCell>
        <mxCell id="aBQadNJx4TkFtl371Pkl-11" value="16" style="shape=partialRectangle;html=1;whiteSpace=wrap;connectable=0;fillColor=none;top=0;left=0;bottom=0;right=0;align=left;spacingLeft=6;overflow=hidden;fontSize=9;" parent="aBQadNJx4TkFtl371Pkl-9" vertex="1">
          <mxGeometry x="24" width="36" height="20" as="geometry" />
        </mxCell>
        <mxCell id="aBQadNJx4TkFtl371Pkl-12" value="" style="shape=partialRectangle;html=1;whiteSpace=wrap;collapsible=0;dropTarget=0;pointerEvents=0;fillColor=none;top=0;left=0;bottom=1;right=0;points=[[0,0.5],[1,0.5]];portConstraint=eastwest;fontSize=9;" parent="aBQadNJx4TkFtl371Pkl-8" vertex="1">
          <mxGeometry y="36" width="60" height="20" as="geometry" />
        </mxCell>
        <mxCell id="aBQadNJx4TkFtl371Pkl-13" value="1" style="shape=partialRectangle;html=1;whiteSpace=wrap;connectable=0;top=0;left=0;bottom=0;right=0;overflow=hidden;fontSize=9;strokeWidth=1;opacity=70;fillColor=none;" parent="aBQadNJx4TkFtl371Pkl-12" vertex="1">
          <mxGeometry width="24" height="20" as="geometry" />
        </mxCell>
        <mxCell id="aBQadNJx4TkFtl371Pkl-14" value="S4" style="shape=partialRectangle;html=1;whiteSpace=wrap;connectable=0;fillColor=none;top=0;left=0;bottom=0;right=0;align=left;spacingLeft=6;overflow=hidden;fontSize=9;" parent="aBQadNJx4TkFtl371Pkl-12" vertex="1">
          <mxGeometry x="24" width="36" height="20" as="geometry" />
        </mxCell>
        <mxCell id="aBQadNJx4TkFtl371Pkl-91" style="shape=partialRectangle;html=1;whiteSpace=wrap;collapsible=0;dropTarget=0;pointerEvents=0;fillColor=none;top=0;left=0;bottom=1;right=0;points=[[0,0.5],[1,0.5]];portConstraint=eastwest;fontSize=9;" parent="aBQadNJx4TkFtl371Pkl-8" vertex="1">
          <mxGeometry y="56" width="60" height="20" as="geometry" />
        </mxCell>
        <mxCell id="aBQadNJx4TkFtl371Pkl-92" value="2" style="shape=partialRectangle;html=1;whiteSpace=wrap;connectable=0;top=0;left=0;bottom=0;right=0;overflow=hidden;fontSize=9;strokeWidth=1;opacity=70;fillColor=none;" parent="aBQadNJx4TkFtl371Pkl-91" vertex="1">
          <mxGeometry width="24" height="20" as="geometry" />
        </mxCell>
        <mxCell id="aBQadNJx4TkFtl371Pkl-93" value="L8" style="shape=partialRectangle;html=1;whiteSpace=wrap;connectable=0;fillColor=none;top=0;left=0;bottom=0;right=0;align=left;spacingLeft=6;overflow=hidden;fontSize=9;" parent="aBQadNJx4TkFtl371Pkl-91" vertex="1">
          <mxGeometry x="24" width="36" height="20" as="geometry" />
        </mxCell>
        <mxCell id="aBQadNJx4TkFtl371Pkl-96" style="shape=partialRectangle;html=1;whiteSpace=wrap;collapsible=0;dropTarget=0;pointerEvents=0;fillColor=none;top=0;left=0;bottom=1;right=0;points=[[0,0.5],[1,0.5]];portConstraint=eastwest;fontSize=9;" parent="aBQadNJx4TkFtl371Pkl-8" vertex="1">
          <mxGeometry y="76" width="60" height="20" as="geometry" />
        </mxCell>
        <mxCell id="aBQadNJx4TkFtl371Pkl-97" value="3" style="shape=partialRectangle;html=1;whiteSpace=wrap;connectable=0;top=0;left=0;bottom=0;right=0;overflow=hidden;fontSize=9;strokeWidth=1;opacity=70;fillColor=none;" parent="aBQadNJx4TkFtl371Pkl-96" vertex="1">
          <mxGeometry width="24" height="20" as="geometry" />
        </mxCell>
        <mxCell id="aBQadNJx4TkFtl371Pkl-98" value="H8" style="shape=partialRectangle;html=1;whiteSpace=wrap;connectable=0;fillColor=none;top=0;left=0;bottom=0;right=0;align=left;spacingLeft=6;overflow=hidden;fontSize=9;" parent="aBQadNJx4TkFtl371Pkl-96" vertex="1">
          <mxGeometry x="24" width="36" height="20" as="geometry" />
        </mxCell>
        <mxCell id="aBQadNJx4TkFtl371Pkl-21" value="START" style="shape=table;html=1;whiteSpace=wrap;startSize=12;container=1;collapsible=0;childLayout=tableLayout;fixedRows=1;rowLines=0;fontStyle=1;align=center;fontSize=9;" parent="1" vertex="1">
          <mxGeometry x="996" y="288" width="60" height="52" as="geometry" />
        </mxCell>
        <mxCell id="aBQadNJx4TkFtl371Pkl-22" value="" style="shape=partialRectangle;html=1;whiteSpace=wrap;collapsible=0;dropTarget=0;pointerEvents=0;fillColor=none;top=0;left=0;bottom=1;right=0;points=[[0,0.5],[1,0.5]];portConstraint=eastwest;fontSize=9;" parent="aBQadNJx4TkFtl371Pkl-21" vertex="1">
          <mxGeometry y="12" width="60" height="20" as="geometry" />
        </mxCell>
        <mxCell id="aBQadNJx4TkFtl371Pkl-23" value="0" style="shape=partialRectangle;html=1;whiteSpace=wrap;connectable=0;fillColor=none;top=0;left=0;bottom=0;right=0;overflow=hidden;fontSize=9;" parent="aBQadNJx4TkFtl371Pkl-22" vertex="1">
          <mxGeometry width="20" height="20" as="geometry" />
        </mxCell>
        <mxCell id="aBQadNJx4TkFtl371Pkl-24" value="" style="shape=partialRectangle;html=1;whiteSpace=wrap;connectable=0;fillColor=none;top=0;left=0;bottom=0;right=0;align=left;spacingLeft=6;overflow=hidden;fontSize=9;" parent="aBQadNJx4TkFtl371Pkl-22" vertex="1">
          <mxGeometry x="20" width="40" height="20" as="geometry" />
        </mxCell>
        <mxCell id="aBQadNJx4TkFtl371Pkl-25" value="" style="shape=partialRectangle;html=1;whiteSpace=wrap;collapsible=0;dropTarget=0;pointerEvents=0;fillColor=none;top=0;left=0;bottom=1;right=0;points=[[0,0.5],[1,0.5]];portConstraint=eastwest;fontSize=9;" parent="aBQadNJx4TkFtl371Pkl-21" vertex="1">
          <mxGeometry y="32" width="60" height="20" as="geometry" />
        </mxCell>
        <mxCell id="aBQadNJx4TkFtl371Pkl-26" value="1" style="shape=partialRectangle;html=1;whiteSpace=wrap;connectable=0;fillColor=none;top=0;left=0;bottom=0;right=0;overflow=hidden;fontSize=9;" parent="aBQadNJx4TkFtl371Pkl-25" vertex="1">
          <mxGeometry width="20" height="20" as="geometry" />
        </mxCell>
        <mxCell id="aBQadNJx4TkFtl371Pkl-27" value="START" style="shape=partialRectangle;html=1;whiteSpace=wrap;connectable=0;fillColor=none;top=0;left=0;bottom=0;right=0;align=left;spacingLeft=6;overflow=hidden;fontSize=9;" parent="aBQadNJx4TkFtl371Pkl-25" vertex="1">
          <mxGeometry x="20" width="40" height="20" as="geometry" />
        </mxCell>
        <mxCell id="aBQadNJx4TkFtl371Pkl-28" value="PCmut" style="shape=table;html=1;whiteSpace=wrap;startSize=16;container=1;collapsible=0;childLayout=tableLayout;fixedRows=1;rowLines=0;fontStyle=1;align=center;fontSize=9;" parent="1" vertex="1">
          <mxGeometry x="828" y="80" width="60" height="176" as="geometry" />
        </mxCell>
        <mxCell id="aBQadNJx4TkFtl371Pkl-29" value="" style="shape=partialRectangle;html=1;whiteSpace=wrap;collapsible=0;dropTarget=0;pointerEvents=0;fillColor=none;top=0;left=0;bottom=1;right=0;points=[[0,0.5],[1,0.5]];portConstraint=eastwest;fontSize=9;" parent="aBQadNJx4TkFtl371Pkl-28" vertex="1">
          <mxGeometry y="16" width="60" height="20" as="geometry" />
        </mxCell>
        <mxCell id="aBQadNJx4TkFtl371Pkl-30" value="0" style="shape=partialRectangle;html=1;whiteSpace=wrap;connectable=0;fillColor=none;top=0;left=0;bottom=0;right=0;overflow=hidden;fontSize=9;" parent="aBQadNJx4TkFtl371Pkl-29" vertex="1">
          <mxGeometry width="20" height="20" as="geometry" />
        </mxCell>
        <mxCell id="aBQadNJx4TkFtl371Pkl-31" value="保持" style="shape=partialRectangle;html=1;whiteSpace=wrap;connectable=0;fillColor=none;top=0;left=0;bottom=0;right=0;align=left;spacingLeft=6;overflow=hidden;fontSize=9;" parent="aBQadNJx4TkFtl371Pkl-29" vertex="1">
          <mxGeometry x="20" width="40" height="20" as="geometry" />
        </mxCell>
        <mxCell id="aBQadNJx4TkFtl371Pkl-32" value="" style="shape=partialRectangle;html=1;whiteSpace=wrap;collapsible=0;dropTarget=0;pointerEvents=0;fillColor=none;top=0;left=0;bottom=1;right=0;points=[[0,0.5],[1,0.5]];portConstraint=eastwest;fontSize=9;" parent="aBQadNJx4TkFtl371Pkl-28" vertex="1">
          <mxGeometry y="36" width="60" height="20" as="geometry" />
        </mxCell>
        <mxCell id="aBQadNJx4TkFtl371Pkl-33" value="1" style="shape=partialRectangle;html=1;whiteSpace=wrap;connectable=0;fillColor=none;top=0;left=0;bottom=0;right=0;overflow=hidden;fontSize=9;" parent="aBQadNJx4TkFtl371Pkl-32" vertex="1">
          <mxGeometry width="20" height="20" as="geometry" />
        </mxCell>
        <mxCell id="aBQadNJx4TkFtl371Pkl-34" value="" style="shape=partialRectangle;html=1;whiteSpace=wrap;connectable=0;fillColor=none;top=0;left=0;bottom=0;right=0;align=left;spacingLeft=6;overflow=hidden;fontSize=9;" parent="aBQadNJx4TkFtl371Pkl-32" vertex="1">
          <mxGeometry x="20" width="40" height="20" as="geometry" />
        </mxCell>
        <mxCell id="aBQadNJx4TkFtl371Pkl-35" value="" style="shape=partialRectangle;html=1;whiteSpace=wrap;collapsible=0;dropTarget=0;pointerEvents=0;fillColor=none;top=0;left=0;bottom=1;right=0;points=[[0,0.5],[1,0.5]];portConstraint=eastwest;fontSize=9;" parent="aBQadNJx4TkFtl371Pkl-28" vertex="1">
          <mxGeometry y="56" width="60" height="20" as="geometry" />
        </mxCell>
        <mxCell id="aBQadNJx4TkFtl371Pkl-36" value="2" style="shape=partialRectangle;html=1;whiteSpace=wrap;connectable=0;fillColor=none;top=0;left=0;bottom=0;right=0;overflow=hidden;fontSize=9;" parent="aBQadNJx4TkFtl371Pkl-35" vertex="1">
          <mxGeometry width="20" height="20" as="geometry" />
        </mxCell>
        <mxCell id="aBQadNJx4TkFtl371Pkl-37" value="" style="shape=partialRectangle;html=1;whiteSpace=wrap;connectable=0;fillColor=none;top=0;left=0;bottom=0;right=0;align=left;spacingLeft=6;overflow=hidden;fontSize=9;" parent="aBQadNJx4TkFtl371Pkl-35" vertex="1">
          <mxGeometry x="20" width="40" height="20" as="geometry" />
        </mxCell>
        <mxCell id="aBQadNJx4TkFtl371Pkl-38" value="" style="shape=partialRectangle;html=1;whiteSpace=wrap;collapsible=0;dropTarget=0;pointerEvents=0;fillColor=none;top=0;left=0;bottom=1;right=0;points=[[0,0.5],[1,0.5]];portConstraint=eastwest;fontSize=9;" parent="aBQadNJx4TkFtl371Pkl-28" vertex="1">
          <mxGeometry y="76" width="60" height="20" as="geometry" />
        </mxCell>
        <mxCell id="aBQadNJx4TkFtl371Pkl-39" value="3" style="shape=partialRectangle;html=1;whiteSpace=wrap;connectable=0;fillColor=none;top=0;left=0;bottom=0;right=0;overflow=hidden;fontSize=9;" parent="aBQadNJx4TkFtl371Pkl-38" vertex="1">
          <mxGeometry width="20" height="20" as="geometry" />
        </mxCell>
        <mxCell id="aBQadNJx4TkFtl371Pkl-40" value="" style="shape=partialRectangle;html=1;whiteSpace=wrap;connectable=0;fillColor=none;top=0;left=0;bottom=0;right=0;align=left;spacingLeft=6;overflow=hidden;fontSize=9;" parent="aBQadNJx4TkFtl371Pkl-38" vertex="1">
          <mxGeometry x="20" width="40" height="20" as="geometry" />
        </mxCell>
        <mxCell id="Po8aBkyWzgs_E25wTC9J-6" value="" style="shape=partialRectangle;html=1;whiteSpace=wrap;collapsible=0;dropTarget=0;pointerEvents=0;fillColor=none;top=0;left=0;bottom=1;right=0;points=[[0,0.5],[1,0.5]];portConstraint=eastwest;fontSize=9;" parent="aBQadNJx4TkFtl371Pkl-28" vertex="1">
          <mxGeometry y="96" width="60" height="20" as="geometry" />
        </mxCell>
        <mxCell id="Po8aBkyWzgs_E25wTC9J-7" value="4" style="shape=partialRectangle;html=1;whiteSpace=wrap;connectable=0;fillColor=none;top=0;left=0;bottom=0;right=0;overflow=hidden;fontSize=9;" parent="Po8aBkyWzgs_E25wTC9J-6" vertex="1">
          <mxGeometry width="20" height="20" as="geometry" />
        </mxCell>
        <mxCell id="Po8aBkyWzgs_E25wTC9J-8" value="+2" style="shape=partialRectangle;html=1;whiteSpace=wrap;connectable=0;fillColor=none;top=0;left=0;bottom=0;right=0;align=left;spacingLeft=6;overflow=hidden;fontSize=9;" parent="Po8aBkyWzgs_E25wTC9J-6" vertex="1">
          <mxGeometry x="20" width="40" height="20" as="geometry" />
        </mxCell>
        <mxCell id="Po8aBkyWzgs_E25wTC9J-9" value="" style="shape=partialRectangle;html=1;whiteSpace=wrap;collapsible=0;dropTarget=0;pointerEvents=0;fillColor=none;top=0;left=0;bottom=1;right=0;points=[[0,0.5],[1,0.5]];portConstraint=eastwest;fontSize=9;" parent="aBQadNJx4TkFtl371Pkl-28" vertex="1">
          <mxGeometry y="116" width="60" height="20" as="geometry" />
        </mxCell>
        <mxCell id="Po8aBkyWzgs_E25wTC9J-10" value="5" style="shape=partialRectangle;html=1;whiteSpace=wrap;connectable=0;fillColor=none;top=0;left=0;bottom=0;right=0;overflow=hidden;fontSize=9;" parent="Po8aBkyWzgs_E25wTC9J-9" vertex="1">
          <mxGeometry width="20" height="20" as="geometry" />
        </mxCell>
        <mxCell id="Po8aBkyWzgs_E25wTC9J-11" value="+4" style="shape=partialRectangle;html=1;whiteSpace=wrap;connectable=0;fillColor=none;top=0;left=0;bottom=0;right=0;align=left;spacingLeft=6;overflow=hidden;fontSize=9;" parent="Po8aBkyWzgs_E25wTC9J-9" vertex="1">
          <mxGeometry x="20" width="40" height="20" as="geometry" />
        </mxCell>
        <mxCell id="Po8aBkyWzgs_E25wTC9J-12" value="" style="shape=partialRectangle;html=1;whiteSpace=wrap;collapsible=0;dropTarget=0;pointerEvents=0;fillColor=none;top=0;left=0;bottom=1;right=0;points=[[0,0.5],[1,0.5]];portConstraint=eastwest;fontSize=9;" parent="aBQadNJx4TkFtl371Pkl-28" vertex="1">
          <mxGeometry y="136" width="60" height="20" as="geometry" />
        </mxCell>
        <mxCell id="Po8aBkyWzgs_E25wTC9J-13" value="6" style="shape=partialRectangle;html=1;whiteSpace=wrap;connectable=0;fillColor=none;top=0;left=0;bottom=0;right=0;overflow=hidden;fontSize=9;" parent="Po8aBkyWzgs_E25wTC9J-12" vertex="1">
          <mxGeometry width="20" height="20" as="geometry" />
        </mxCell>
        <mxCell id="Po8aBkyWzgs_E25wTC9J-14" value="Din" style="shape=partialRectangle;html=1;whiteSpace=wrap;connectable=0;fillColor=none;top=0;left=0;bottom=0;right=0;align=left;spacingLeft=6;overflow=hidden;fontSize=9;" parent="Po8aBkyWzgs_E25wTC9J-12" vertex="1">
          <mxGeometry x="20" width="40" height="20" as="geometry" />
        </mxCell>
        <mxCell id="Po8aBkyWzgs_E25wTC9J-15" value="" style="shape=partialRectangle;html=1;whiteSpace=wrap;collapsible=0;dropTarget=0;pointerEvents=0;fillColor=none;top=0;left=0;bottom=1;right=0;points=[[0,0.5],[1,0.5]];portConstraint=eastwest;fontSize=9;" parent="aBQadNJx4TkFtl371Pkl-28" vertex="1">
          <mxGeometry y="156" width="60" height="20" as="geometry" />
        </mxCell>
        <mxCell id="Po8aBkyWzgs_E25wTC9J-16" value="7" style="shape=partialRectangle;html=1;whiteSpace=wrap;connectable=0;fillColor=none;top=0;left=0;bottom=0;right=0;overflow=hidden;fontSize=9;" parent="Po8aBkyWzgs_E25wTC9J-15" vertex="1">
          <mxGeometry width="20" height="20" as="geometry" />
        </mxCell>
        <mxCell id="Po8aBkyWzgs_E25wTC9J-17" value="EA" style="shape=partialRectangle;html=1;whiteSpace=wrap;connectable=0;fillColor=none;top=0;left=0;bottom=0;right=0;align=left;spacingLeft=6;overflow=hidden;fontSize=9;" parent="Po8aBkyWzgs_E25wTC9J-15" vertex="1">
          <mxGeometry x="20" width="40" height="20" as="geometry" />
        </mxCell>
        <mxCell id="aBQadNJx4TkFtl371Pkl-41" value="SPmut" style="shape=table;html=1;whiteSpace=wrap;startSize=12;container=1;collapsible=0;childLayout=tableLayout;fixedRows=1;rowLines=0;fontStyle=1;align=center;fontSize=9;" parent="1" vertex="1">
          <mxGeometry x="996" y="452" width="60" height="92" as="geometry" />
        </mxCell>
        <mxCell id="aBQadNJx4TkFtl371Pkl-42" value="" style="shape=partialRectangle;html=1;whiteSpace=wrap;collapsible=0;dropTarget=0;pointerEvents=0;fillColor=none;top=0;left=0;bottom=1;right=0;points=[[0,0.5],[1,0.5]];portConstraint=eastwest;fontSize=9;" parent="aBQadNJx4TkFtl371Pkl-41" vertex="1">
          <mxGeometry y="12" width="60" height="20" as="geometry" />
        </mxCell>
        <mxCell id="aBQadNJx4TkFtl371Pkl-43" value="0" style="shape=partialRectangle;html=1;whiteSpace=wrap;connectable=0;fillColor=none;top=0;left=0;bottom=0;right=0;overflow=hidden;fontSize=9;" parent="aBQadNJx4TkFtl371Pkl-42" vertex="1">
          <mxGeometry width="20" height="20" as="geometry" />
        </mxCell>
        <mxCell id="aBQadNJx4TkFtl371Pkl-44" value="保持" style="shape=partialRectangle;html=1;whiteSpace=wrap;connectable=0;fillColor=none;top=0;left=0;bottom=0;right=0;align=left;spacingLeft=6;overflow=hidden;fontSize=9;" parent="aBQadNJx4TkFtl371Pkl-42" vertex="1">
          <mxGeometry x="20" width="40" height="20" as="geometry" />
        </mxCell>
        <mxCell id="aBQadNJx4TkFtl371Pkl-45" value="" style="shape=partialRectangle;html=1;whiteSpace=wrap;collapsible=0;dropTarget=0;pointerEvents=0;fillColor=none;top=0;left=0;bottom=1;right=0;points=[[0,0.5],[1,0.5]];portConstraint=eastwest;fontSize=9;" parent="aBQadNJx4TkFtl371Pkl-41" vertex="1">
          <mxGeometry y="32" width="60" height="20" as="geometry" />
        </mxCell>
        <mxCell id="aBQadNJx4TkFtl371Pkl-46" value="1" style="shape=partialRectangle;html=1;whiteSpace=wrap;connectable=0;fillColor=none;top=0;left=0;bottom=0;right=0;overflow=hidden;fontSize=9;" parent="aBQadNJx4TkFtl371Pkl-45" vertex="1">
          <mxGeometry width="20" height="20" as="geometry" />
        </mxCell>
        <mxCell id="aBQadNJx4TkFtl371Pkl-47" value="+2" style="shape=partialRectangle;html=1;whiteSpace=wrap;connectable=0;fillColor=none;top=0;left=0;bottom=0;right=0;align=left;spacingLeft=6;overflow=hidden;fontSize=9;" parent="aBQadNJx4TkFtl371Pkl-45" vertex="1">
          <mxGeometry x="20" width="40" height="20" as="geometry" />
        </mxCell>
        <mxCell id="aBQadNJx4TkFtl371Pkl-48" value="" style="shape=partialRectangle;html=1;whiteSpace=wrap;collapsible=0;dropTarget=0;pointerEvents=0;fillColor=none;top=0;left=0;bottom=1;right=0;points=[[0,0.5],[1,0.5]];portConstraint=eastwest;fontSize=9;" parent="aBQadNJx4TkFtl371Pkl-41" vertex="1">
          <mxGeometry y="52" width="60" height="20" as="geometry" />
        </mxCell>
        <mxCell id="aBQadNJx4TkFtl371Pkl-49" value="2" style="shape=partialRectangle;html=1;whiteSpace=wrap;connectable=0;fillColor=none;top=0;left=0;bottom=0;right=0;overflow=hidden;fontSize=9;" parent="aBQadNJx4TkFtl371Pkl-48" vertex="1">
          <mxGeometry width="20" height="20" as="geometry" />
        </mxCell>
        <mxCell id="aBQadNJx4TkFtl371Pkl-50" value="-2" style="shape=partialRectangle;html=1;whiteSpace=wrap;connectable=0;fillColor=none;top=0;left=0;bottom=0;right=0;align=left;spacingLeft=6;overflow=hidden;fontSize=9;" parent="aBQadNJx4TkFtl371Pkl-48" vertex="1">
          <mxGeometry x="20" width="40" height="20" as="geometry" />
        </mxCell>
        <mxCell id="aBQadNJx4TkFtl371Pkl-51" value="" style="shape=partialRectangle;html=1;whiteSpace=wrap;collapsible=0;dropTarget=0;pointerEvents=0;fillColor=none;top=0;left=0;bottom=1;right=0;points=[[0,0.5],[1,0.5]];portConstraint=eastwest;fontSize=9;" parent="aBQadNJx4TkFtl371Pkl-41" vertex="1">
          <mxGeometry y="72" width="60" height="20" as="geometry" />
        </mxCell>
        <mxCell id="aBQadNJx4TkFtl371Pkl-52" value="3" style="shape=partialRectangle;html=1;whiteSpace=wrap;connectable=0;fillColor=none;top=0;left=0;bottom=0;right=0;overflow=hidden;fontSize=9;" parent="aBQadNJx4TkFtl371Pkl-51" vertex="1">
          <mxGeometry width="20" height="20" as="geometry" />
        </mxCell>
        <mxCell id="aBQadNJx4TkFtl371Pkl-53" value="保持" style="shape=partialRectangle;html=1;whiteSpace=wrap;connectable=0;fillColor=none;top=0;left=0;bottom=0;right=0;align=left;spacingLeft=6;overflow=hidden;fontSize=9;" parent="aBQadNJx4TkFtl371Pkl-51" vertex="1">
          <mxGeometry x="20" width="40" height="20" as="geometry" />
        </mxCell>
        <mxCell id="aBQadNJx4TkFtl371Pkl-54" value="BUSY" style="shape=table;html=1;whiteSpace=wrap;startSize=12;container=1;collapsible=0;childLayout=tableLayout;fixedRows=1;rowLines=0;fontStyle=1;align=center;fontSize=9;" parent="1" vertex="1">
          <mxGeometry x="996" y="372" width="60" height="52" as="geometry" />
        </mxCell>
        <mxCell id="aBQadNJx4TkFtl371Pkl-55" value="" style="shape=partialRectangle;html=1;whiteSpace=wrap;collapsible=0;dropTarget=0;pointerEvents=0;fillColor=none;top=0;left=0;bottom=1;right=0;points=[[0,0.5],[1,0.5]];portConstraint=eastwest;fontSize=9;" parent="aBQadNJx4TkFtl371Pkl-54" vertex="1">
          <mxGeometry y="12" width="60" height="20" as="geometry" />
        </mxCell>
        <mxCell id="aBQadNJx4TkFtl371Pkl-56" value="0" style="shape=partialRectangle;html=1;whiteSpace=wrap;connectable=0;fillColor=none;top=0;left=0;bottom=0;right=0;overflow=hidden;fontSize=9;" parent="aBQadNJx4TkFtl371Pkl-55" vertex="1">
          <mxGeometry width="20" height="20" as="geometry" />
        </mxCell>
        <mxCell id="aBQadNJx4TkFtl371Pkl-57" value="DONE" style="shape=partialRectangle;html=1;whiteSpace=wrap;connectable=0;fillColor=none;top=0;left=0;bottom=0;right=0;align=left;spacingLeft=6;overflow=hidden;fontSize=9;spacing=0;" parent="aBQadNJx4TkFtl371Pkl-55" vertex="1">
          <mxGeometry x="20" width="40" height="20" as="geometry" />
        </mxCell>
        <mxCell id="aBQadNJx4TkFtl371Pkl-58" value="" style="shape=partialRectangle;html=1;whiteSpace=wrap;collapsible=0;dropTarget=0;pointerEvents=0;fillColor=none;top=0;left=0;bottom=1;right=0;points=[[0,0.5],[1,0.5]];portConstraint=eastwest;fontSize=9;" parent="aBQadNJx4TkFtl371Pkl-54" vertex="1">
          <mxGeometry y="32" width="60" height="20" as="geometry" />
        </mxCell>
        <mxCell id="aBQadNJx4TkFtl371Pkl-59" value="1" style="shape=partialRectangle;html=1;whiteSpace=wrap;connectable=0;fillColor=none;top=0;left=0;bottom=0;right=0;overflow=hidden;fontSize=9;" parent="aBQadNJx4TkFtl371Pkl-58" vertex="1">
          <mxGeometry width="20" height="20" as="geometry" />
        </mxCell>
        <mxCell id="aBQadNJx4TkFtl371Pkl-60" value="BUSY" style="shape=partialRectangle;html=1;whiteSpace=wrap;connectable=0;fillColor=none;top=0;left=0;bottom=0;right=0;align=left;spacingLeft=6;overflow=hidden;fontSize=9;spacing=0;" parent="aBQadNJx4TkFtl371Pkl-58" vertex="1">
          <mxGeometry x="20" width="40" height="20" as="geometry" />
        </mxCell>
        <mxCell id="EofYS_D_NZ_xiahmsMuy-221" value="&lt;font style=&quot;font-size: 12px&quot;&gt;制御部&lt;/font&gt;" style="rounded=0;whiteSpace=wrap;html=1;fontSize=9;" parent="1" vertex="1">
          <mxGeometry x="904" y="576" width="64" height="180" as="geometry" />
        </mxCell>
        <mxCell id="shBhoWdEmqtdn-skNixz-15" value="PCmut" style="text;html=1;align=left;verticalAlign=middle;resizable=0;points=[];autosize=1;fontSize=9;" parent="1" vertex="1">
          <mxGeometry x="1000" y="578" width="44" height="16" as="geometry" />
        </mxCell>
        <mxCell id="shBhoWdEmqtdn-skNixz-16" value="" style="endArrow=classic;html=1;fontSize=9;entryX=-0.013;entryY=0.514;entryDx=0;entryDy=0;entryPerimeter=0;strokeWidth=2;strokeColor=#3333FF;" parent="1" edge="1">
          <mxGeometry x="832" y="572" width="50" height="50" as="geometry">
            <mxPoint x="968" y="586" as="sourcePoint" />
            <mxPoint x="999.4280000000001" y="586.2239999999999" as="targetPoint" />
          </mxGeometry>
        </mxCell>
        <mxCell id="shBhoWdEmqtdn-skNixz-17" value="" style="endArrow=classic;html=1;fontSize=9;entryX=-0.013;entryY=0.514;entryDx=0;entryDy=0;entryPerimeter=0;strokeWidth=2;strokeColor=#3333FF;" parent="1" edge="1">
          <mxGeometry x="832" y="576" width="50" height="50" as="geometry">
            <mxPoint x="968" y="602" as="sourcePoint" />
            <mxPoint x="999.48" y="602.2239999999999" as="targetPoint" />
          </mxGeometry>
        </mxCell>
        <mxCell id="shBhoWdEmqtdn-skNixz-18" value="SPmut" style="text;html=1;align=left;verticalAlign=middle;resizable=0;points=[];autosize=1;fontSize=9;" parent="1" vertex="1">
          <mxGeometry x="1000" y="594" width="40" height="16" as="geometry" />
        </mxCell>
        <mxCell id="shBhoWdEmqtdn-skNixz-19" value="" style="endArrow=classic;html=1;fontSize=9;entryX=-0.013;entryY=0.514;entryDx=0;entryDy=0;entryPerimeter=0;strokeColor=#3333FF;" parent="1" target="shBhoWdEmqtdn-skNixz-20" edge="1">
          <mxGeometry x="832" y="608" width="50" height="50" as="geometry">
            <mxPoint x="968" y="646" as="sourcePoint" />
            <mxPoint x="1026" y="612" as="targetPoint" />
          </mxGeometry>
        </mxCell>
        <mxCell id="shBhoWdEmqtdn-skNixz-20" value="FLGld" style="text;html=1;align=left;verticalAlign=middle;resizable=0;points=[];autosize=1;fontSize=9;" parent="1" vertex="1">
          <mxGeometry x="1000" y="638" width="40" height="16" as="geometry" />
        </mxCell>
        <mxCell id="shBhoWdEmqtdn-skNixz-21" value="" style="endArrow=classic;html=1;fontSize=9;entryX=-0.013;entryY=0.514;entryDx=0;entryDy=0;entryPerimeter=0;strokeColor=#3333FF;" parent="1" target="shBhoWdEmqtdn-skNixz-22" edge="1">
          <mxGeometry x="832" y="608" width="50" height="50" as="geometry">
            <mxPoint x="968" y="658" as="sourcePoint" />
            <mxPoint x="1026" y="624" as="targetPoint" />
          </mxGeometry>
        </mxCell>
        <mxCell id="shBhoWdEmqtdn-skNixz-22" value="TMPld" style="text;html=1;align=left;verticalAlign=middle;resizable=0;points=[];autosize=1;fontSize=9;" parent="1" vertex="1">
          <mxGeometry x="1000" y="650" width="40" height="16" as="geometry" />
        </mxCell>
        <mxCell id="shBhoWdEmqtdn-skNixz-23" value="" style="endArrow=classic;html=1;fontSize=9;entryX=-0.013;entryY=0.514;entryDx=0;entryDy=0;entryPerimeter=0;strokeColor=#3333FF;" parent="1" target="shBhoWdEmqtdn-skNixz-24" edge="1">
          <mxGeometry x="832" y="608" width="50" height="50" as="geometry">
            <mxPoint x="968" y="670" as="sourcePoint" />
            <mxPoint x="1026" y="636" as="targetPoint" />
          </mxGeometry>
        </mxCell>
        <mxCell id="shBhoWdEmqtdn-skNixz-24" value="GRld" style="text;html=1;align=left;verticalAlign=middle;resizable=0;points=[];autosize=1;fontSize=9;" parent="1" vertex="1">
          <mxGeometry x="1000" y="662" width="36" height="16" as="geometry" />
        </mxCell>
        <mxCell id="shBhoWdEmqtdn-skNixz-25" value="" style="endArrow=classic;html=1;fontSize=9;entryX=-0.013;entryY=0.514;entryDx=0;entryDy=0;entryPerimeter=0;strokeWidth=2;strokeColor=#3333FF;" parent="1" target="shBhoWdEmqtdn-skNixz-26" edge="1">
          <mxGeometry x="832" y="612" width="50" height="50" as="geometry">
            <mxPoint x="968" y="686" as="sourcePoint" />
            <mxPoint x="1026" y="652" as="targetPoint" />
          </mxGeometry>
        </mxCell>
        <mxCell id="shBhoWdEmqtdn-skNixz-26" value="Asel" style="text;html=1;align=left;verticalAlign=middle;resizable=0;points=[];autosize=1;fontSize=9;" parent="1" vertex="1">
          <mxGeometry x="1000" y="678" width="32" height="16" as="geometry" />
        </mxCell>
        <mxCell id="shBhoWdEmqtdn-skNixz-27" value="" style="endArrow=classic;html=1;fontSize=9;entryX=-0.013;entryY=0.514;entryDx=0;entryDy=0;entryPerimeter=0;strokeWidth=2;strokeColor=#3333FF;" parent="1" target="shBhoWdEmqtdn-skNixz-28" edge="1">
          <mxGeometry x="832" y="616" width="50" height="50" as="geometry">
            <mxPoint x="968" y="702" as="sourcePoint" />
            <mxPoint x="1026" y="668" as="targetPoint" />
          </mxGeometry>
        </mxCell>
        <mxCell id="shBhoWdEmqtdn-skNixz-28" value="Dsel" style="text;html=1;align=left;verticalAlign=middle;resizable=0;points=[];autosize=1;fontSize=9;" parent="1" vertex="1">
          <mxGeometry x="1000" y="694" width="32" height="16" as="geometry" />
        </mxCell>
        <mxCell id="shBhoWdEmqtdn-skNixz-29" value="" style="endArrow=classic;html=1;fontSize=9;entryX=-0.013;entryY=0.514;entryDx=0;entryDy=0;entryPerimeter=0;strokeWidth=2;strokeColor=#3333FF;" parent="1" edge="1">
          <mxGeometry x="832" y="620" width="50" height="50" as="geometry">
            <mxPoint x="968" y="718" as="sourcePoint" />
            <mxPoint x="999.5319999999999" y="718.2239999999999" as="targetPoint" />
          </mxGeometry>
        </mxCell>
        <mxCell id="shBhoWdEmqtdn-skNixz-30" value="Wsel" style="text;html=1;align=left;verticalAlign=middle;resizable=0;points=[];autosize=1;fontSize=9;" parent="1" vertex="1">
          <mxGeometry x="1000" y="710" width="36" height="16" as="geometry" />
        </mxCell>
        <mxCell id="shBhoWdEmqtdn-skNixz-31" value="" style="endArrow=classic;html=1;fontSize=9;entryX=-0.013;entryY=0.514;entryDx=0;entryDy=0;entryPerimeter=0;strokeColor=#3333FF;" parent="1" target="shBhoWdEmqtdn-skNixz-32" edge="1">
          <mxGeometry x="832" y="624" width="50" height="50" as="geometry">
            <mxPoint x="968" y="734" as="sourcePoint" />
            <mxPoint x="1026" y="700" as="targetPoint" />
          </mxGeometry>
        </mxCell>
        <mxCell id="shBhoWdEmqtdn-skNixz-32" value="Bsel" style="text;html=1;align=left;verticalAlign=middle;resizable=0;points=[];autosize=1;fontSize=9;" parent="1" vertex="1">
          <mxGeometry x="1000" y="726" width="32" height="16" as="geometry" />
        </mxCell>
        <mxCell id="shBhoWdEmqtdn-skNixz-33" value="" style="endArrow=classic;html=1;fontSize=9;entryX=-0.013;entryY=0.514;entryDx=0;entryDy=0;entryPerimeter=0;strokeColor=#3333FF;" parent="1" target="shBhoWdEmqtdn-skNixz-34" edge="1">
          <mxGeometry x="832" y="624" width="50" height="50" as="geometry">
            <mxPoint x="968" y="746" as="sourcePoint" />
            <mxPoint x="1026" y="712" as="targetPoint" />
          </mxGeometry>
        </mxCell>
        <mxCell id="shBhoWdEmqtdn-skNixz-34" value="START" style="text;html=1;align=left;verticalAlign=middle;resizable=0;points=[];autosize=1;fontSize=9;" parent="1" vertex="1">
          <mxGeometry x="1000" y="738" width="44" height="16" as="geometry" />
        </mxCell>
        <mxCell id="shBhoWdEmqtdn-skNixz-37" value="" style="endArrow=classic;html=1;fontSize=9;exitX=1.025;exitY=0.509;exitDx=0;exitDy=0;exitPerimeter=0;strokeWidth=2;" parent="1" edge="1">
          <mxGeometry x="832" y="608" width="50" height="50" as="geometry">
            <mxPoint x="876.8" y="666.144" as="sourcePoint" />
            <mxPoint x="904" y="666" as="targetPoint" />
          </mxGeometry>
        </mxCell>
        <mxCell id="shBhoWdEmqtdn-skNixz-38" value="" style="endArrow=classic;html=1;fontSize=9;exitX=1.025;exitY=0.479;exitDx=0;exitDy=0;exitPerimeter=0;strokeWidth=2;" parent="1" edge="1">
          <mxGeometry x="832" y="608" width="50" height="50" as="geometry">
            <mxPoint x="876.8" y="685.664" as="sourcePoint" />
            <mxPoint x="904" y="686" as="targetPoint" />
          </mxGeometry>
        </mxCell>
        <mxCell id="shBhoWdEmqtdn-skNixz-40" value="" style="endArrow=classic;html=1;fontSize=9;exitX=1.01;exitY=0.574;exitDx=0;exitDy=0;exitPerimeter=0;" parent="1" edge="1">
          <mxGeometry x="832" y="608" width="50" height="50" as="geometry">
            <mxPoint x="876.44" y="727.184" as="sourcePoint" />
            <mxPoint x="904" y="727" as="targetPoint" />
          </mxGeometry>
        </mxCell>
        <mxCell id="shBhoWdEmqtdn-skNixz-41" value="" style="endArrow=classic;html=1;fontSize=9;exitX=0.991;exitY=0.583;exitDx=0;exitDy=0;exitPerimeter=0;" parent="1" edge="1">
          <mxGeometry x="832" y="608" width="50" height="50" as="geometry">
            <mxPoint x="875.6400000000001" y="707.328" as="sourcePoint" />
            <mxPoint x="904" y="707" as="targetPoint" />
          </mxGeometry>
        </mxCell>
        <mxCell id="shBhoWdEmqtdn-skNixz-92" value="IRld" style="text;html=1;align=left;verticalAlign=middle;resizable=0;points=[];autosize=1;fontSize=9;" parent="1" vertex="1">
          <mxGeometry x="1000" y="610" width="32" height="16" as="geometry" />
        </mxCell>
        <mxCell id="shBhoWdEmqtdn-skNixz-93" value="" style="endArrow=classic;html=1;fontSize=9;entryX=-0.013;entryY=0.514;entryDx=0;entryDy=0;entryPerimeter=0;strokeColor=#3333FF;" parent="1" edge="1">
          <mxGeometry x="832" y="580" width="50" height="50" as="geometry">
            <mxPoint x="968" y="618" as="sourcePoint" />
            <mxPoint x="999.5840000000001" y="618.2239999999999" as="targetPoint" />
          </mxGeometry>
        </mxCell>
        <mxCell id="shBhoWdEmqtdn-skNixz-97" value="DR" style="text;html=1;align=center;verticalAlign=middle;resizable=0;points=[];autosize=1;fontSize=9;fontFamily=Helvetica;" parent="1" vertex="1">
          <mxGeometry x="454" y="272" width="28" height="16" as="geometry" />
        </mxCell>
        <mxCell id="shBhoWdEmqtdn-skNixz-105" value="" style="group;fillColor=#fff2cc;strokeColor=#d6b656;container=0;" parent="1" vertex="1" connectable="0">
          <mxGeometry x="48" y="160" width="212" height="164" as="geometry" />
        </mxCell>
        <mxCell id="shBhoWdEmqtdn-skNixz-100" value="" style="rounded=0;whiteSpace=wrap;html=1;sketch=0;fontSize=9;align=left;fillColor=#fff2cc;strokeColor=#d6b656;" parent="1" vertex="1">
          <mxGeometry x="48" y="160" width="212" height="164" as="geometry" />
        </mxCell>
        <mxCell id="EofYS_D_NZ_xiahmsMuy-62" value="" style="shape=table;html=1;whiteSpace=wrap;startSize=0;container=1;collapsible=0;childLayout=tableLayout;rounded=1;fontSize=9;" parent="1" vertex="1">
          <mxGeometry x="60" y="172" width="184" height="69" as="geometry" />
        </mxCell>
        <mxCell id="EofYS_D_NZ_xiahmsMuy-63" value="" style="shape=partialRectangle;html=1;whiteSpace=wrap;collapsible=0;dropTarget=0;pointerEvents=0;fillColor=none;top=0;left=0;bottom=0;right=0;points=[[0,0.5],[1,0.5]];portConstraint=eastwest;fontSize=9;" parent="EofYS_D_NZ_xiahmsMuy-62" vertex="1">
          <mxGeometry width="184" height="20" as="geometry" />
        </mxCell>
        <mxCell id="EofYS_D_NZ_xiahmsMuy-64" value="16" style="shape=partialRectangle;html=1;whiteSpace=wrap;connectable=0;overflow=hidden;fillColor=none;top=0;left=0;bottom=0;right=0;fontSize=9;" parent="EofYS_D_NZ_xiahmsMuy-63" vertex="1">
          <mxGeometry width="25" height="20" as="geometry">
            <mxRectangle width="25" height="20" as="alternateBounds" />
          </mxGeometry>
        </mxCell>
        <mxCell id="EofYS_D_NZ_xiahmsMuy-65" value="Din そのまま" style="shape=partialRectangle;html=1;whiteSpace=wrap;connectable=0;overflow=hidden;fillColor=none;top=0;left=0;bottom=0;right=0;align=left;fontSize=9;" parent="EofYS_D_NZ_xiahmsMuy-63" vertex="1">
          <mxGeometry x="25" width="159" height="20" as="geometry">
            <mxRectangle width="159" height="20" as="alternateBounds" />
          </mxGeometry>
        </mxCell>
        <mxCell id="EofYS_D_NZ_xiahmsMuy-72" value="" style="shape=partialRectangle;html=1;whiteSpace=wrap;collapsible=0;dropTarget=0;pointerEvents=0;fillColor=none;top=0;left=0;bottom=0;right=0;points=[[0,0.5],[1,0.5]];portConstraint=eastwest;fontSize=9;" parent="EofYS_D_NZ_xiahmsMuy-62" vertex="1">
          <mxGeometry y="20" width="184" height="15" as="geometry" />
        </mxCell>
        <mxCell id="EofYS_D_NZ_xiahmsMuy-73" value="S4" style="shape=partialRectangle;html=1;whiteSpace=wrap;connectable=0;overflow=hidden;fillColor=none;top=0;left=0;bottom=0;right=0;fontSize=9;" parent="EofYS_D_NZ_xiahmsMuy-72" vertex="1">
          <mxGeometry width="25" height="15" as="geometry">
            <mxRectangle width="25" height="15" as="alternateBounds" />
          </mxGeometry>
        </mxCell>
        <mxCell id="EofYS_D_NZ_xiahmsMuy-74" value="Din の下位4ビットを符号拡張した値" style="shape=partialRectangle;html=1;whiteSpace=wrap;connectable=0;overflow=hidden;fillColor=none;top=0;left=0;bottom=0;right=0;align=left;fontSize=9;" parent="EofYS_D_NZ_xiahmsMuy-72" vertex="1">
          <mxGeometry x="25" width="159" height="15" as="geometry">
            <mxRectangle width="159" height="15" as="alternateBounds" />
          </mxGeometry>
        </mxCell>
        <mxCell id="EofYS_D_NZ_xiahmsMuy-69" value="" style="shape=partialRectangle;html=1;whiteSpace=wrap;collapsible=0;dropTarget=0;pointerEvents=0;fillColor=none;top=0;left=0;bottom=0;right=0;points=[[0,0.5],[1,0.5]];portConstraint=eastwest;fontSize=9;" parent="EofYS_D_NZ_xiahmsMuy-62" vertex="1">
          <mxGeometry y="35" width="184" height="14" as="geometry" />
        </mxCell>
        <mxCell id="EofYS_D_NZ_xiahmsMuy-70" value="L8" style="shape=partialRectangle;html=1;whiteSpace=wrap;connectable=0;overflow=hidden;fillColor=none;top=0;left=0;bottom=0;right=0;fontSize=9;" parent="EofYS_D_NZ_xiahmsMuy-69" vertex="1">
          <mxGeometry width="25" height="14" as="geometry">
            <mxRectangle width="25" height="14" as="alternateBounds" />
          </mxGeometry>
        </mxCell>
        <mxCell id="EofYS_D_NZ_xiahmsMuy-71" value="Din &amp;amp; 0x00FF を計算した値" style="shape=partialRectangle;html=1;whiteSpace=wrap;connectable=0;overflow=hidden;fillColor=none;top=0;left=0;bottom=0;right=0;align=left;fontSize=9;" parent="EofYS_D_NZ_xiahmsMuy-69" vertex="1">
          <mxGeometry x="25" width="159" height="14" as="geometry">
            <mxRectangle width="159" height="14" as="alternateBounds" />
          </mxGeometry>
        </mxCell>
        <mxCell id="EofYS_D_NZ_xiahmsMuy-66" value="" style="shape=partialRectangle;html=1;whiteSpace=wrap;collapsible=0;dropTarget=0;pointerEvents=0;fillColor=none;top=0;left=0;bottom=0;right=0;points=[[0,0.5],[1,0.5]];portConstraint=eastwest;fontSize=9;" parent="EofYS_D_NZ_xiahmsMuy-62" vertex="1">
          <mxGeometry y="49" width="184" height="20" as="geometry" />
        </mxCell>
        <mxCell id="EofYS_D_NZ_xiahmsMuy-67" value="H8" style="shape=partialRectangle;html=1;whiteSpace=wrap;connectable=0;overflow=hidden;fillColor=none;top=0;left=0;bottom=0;right=0;fontSize=9;" parent="EofYS_D_NZ_xiahmsMuy-66" vertex="1">
          <mxGeometry width="25" height="20" as="geometry">
            <mxRectangle width="25" height="20" as="alternateBounds" />
          </mxGeometry>
        </mxCell>
        <mxCell id="EofYS_D_NZ_xiahmsMuy-68" value="Din &amp;gt;&amp;gt;&amp;gt; 8 を計算した値" style="shape=partialRectangle;html=1;whiteSpace=wrap;connectable=0;overflow=hidden;fillColor=none;top=0;left=0;bottom=0;right=0;align=left;fontSize=9;" parent="EofYS_D_NZ_xiahmsMuy-66" vertex="1">
          <mxGeometry x="25" width="159" height="20" as="geometry">
            <mxRectangle width="159" height="20" as="alternateBounds" />
          </mxGeometry>
        </mxCell>
        <mxCell id="shBhoWdEmqtdn-skNixz-98" value="名前" style="rounded=0;whiteSpace=wrap;html=1;fontFamily=Helvetica;fontSize=11;align=center;strokeWidth=3;" parent="1" vertex="1">
          <mxGeometry x="68" y="252" width="64" height="20" as="geometry" />
        </mxCell>
        <mxCell id="shBhoWdEmqtdn-skNixz-99" value="１６ビットレジスタ" style="text;html=1;strokeColor=none;fillColor=none;align=center;verticalAlign=middle;whiteSpace=wrap;rounded=0;sketch=0;fontSize=9;" parent="1" vertex="1">
          <mxGeometry x="136" y="252" width="88" height="20" as="geometry" />
        </mxCell>
        <mxCell id="shBhoWdEmqtdn-skNixz-102" value="" style="shape=table;html=1;whiteSpace=wrap;startSize=0;container=1;collapsible=0;childLayout=tableLayout;rounded=1;" parent="1" vertex="1">
          <mxGeometry x="60" y="280" width="184" height="32" as="geometry" />
        </mxCell>
        <mxCell id="shBhoWdEmqtdn-skNixz-103" value="" style="shape=partialRectangle;html=1;whiteSpace=wrap;collapsible=0;dropTarget=0;pointerEvents=0;fillColor=none;top=0;left=0;bottom=0;right=0;points=[[0,0.5],[1,0.5]];portConstraint=eastwest;" parent="shBhoWdEmqtdn-skNixz-102" vertex="1">
          <mxGeometry width="184" height="32" as="geometry" />
        </mxCell>
        <mxCell id="shBhoWdEmqtdn-skNixz-104" value="&lt;span style=&quot;font-size: 9px ; text-align: left&quot;&gt;GRのD番でアクセスできるものは，カーネルモードではSSP，ユーザモードではUSP&lt;/span&gt;" style="shape=partialRectangle;html=1;whiteSpace=wrap;connectable=0;overflow=hidden;fillColor=none;top=0;left=0;bottom=0;right=0;" parent="shBhoWdEmqtdn-skNixz-103" vertex="1">
          <mxGeometry width="184" height="32" as="geometry" />
        </mxCell>
        <mxCell id="shBhoWdEmqtdn-skNixz-106" value="DRld" style="text;html=1;align=left;verticalAlign=middle;resizable=0;points=[];autosize=1;fontSize=9;" parent="1" vertex="1">
          <mxGeometry x="1000" y="624" width="36" height="16" as="geometry" />
        </mxCell>
        <mxCell id="shBhoWdEmqtdn-skNixz-107" value="" style="endArrow=classic;html=1;fontSize=9;entryX=-0.022;entryY=0.475;entryDx=0;entryDy=0;entryPerimeter=0;strokeColor=#3333FF;" parent="1" target="shBhoWdEmqtdn-skNixz-106" edge="1">
          <mxGeometry x="836" y="584" width="50" height="50" as="geometry">
            <mxPoint x="968" y="632" as="sourcePoint" />
            <mxPoint x="1003.5840000000001" y="622.2239999999999" as="targetPoint" />
          </mxGeometry>
        </mxCell>
        <mxCell id="Po8aBkyWzgs_E25wTC9J-3" style="edgeStyle=orthogonalEdgeStyle;rounded=0;jumpStyle=arc;orthogonalLoop=1;jettySize=auto;html=1;strokeWidth=4;fontFamily=Helvetica;fontSize=9;entryX=0.25;entryY=1;entryDx=0;entryDy=0;" parent="1" target="EofYS_D_NZ_xiahmsMuy-77" edge="1">
          <mxGeometry relative="1" as="geometry">
            <mxPoint x="640" y="212" as="targetPoint" />
            <mxPoint x="624" y="294" as="sourcePoint" />
            <Array as="points">
              <mxPoint x="624" y="294" />
            </Array>
          </mxGeometry>
        </mxCell>
        <object label="信号名" id="9UunoPqc_stu_vf1U-EC-1">
          <mxCell parent="0" />
        </object>
        <mxCell id="9UunoPqc_stu_vf1U-EC-2" value="&lt;font style=&quot;font-size: 11px&quot;&gt;IR&lt;/font&gt;" style="text;html=1;align=center;verticalAlign=middle;resizable=0;points=[];autosize=1;fontSize=9;fontFamily=Helvetica;" parent="9UunoPqc_stu_vf1U-EC-1" vertex="1">
          <mxGeometry x="312" y="146" width="24" height="20" as="geometry" />
        </mxCell>
        <mxCell id="9UunoPqc_stu_vf1U-EC-3" value="IRld" style="text;html=1;align=right;verticalAlign=middle;resizable=0;points=[];autosize=1;fontSize=9;fontFamily=Helvetica;" parent="9UunoPqc_stu_vf1U-EC-1" vertex="1">
          <mxGeometry x="260" y="166" width="32" height="16" as="geometry" />
        </mxCell>
        <mxCell id="9UunoPqc_stu_vf1U-EC-4" value="DRld" style="text;html=1;align=right;verticalAlign=middle;resizable=0;points=[];autosize=1;fontSize=11;fontFamily=Helvetica;" parent="9UunoPqc_stu_vf1U-EC-1" vertex="1">
          <mxGeometry x="416" y="216" width="40" height="20" as="geometry" />
        </mxCell>
        <mxCell id="9UunoPqc_stu_vf1U-EC-5" value="16" style="edgeLabel;html=1;align=center;verticalAlign=middle;resizable=0;points=[];fontSize=11;fontFamily=Helvetica;" parent="9UunoPqc_stu_vf1U-EC-1" vertex="1" connectable="0">
          <mxGeometry x="455.95674551077286" y="135.8093789402492" as="geometry" />
        </mxCell>
        <mxCell id="9UunoPqc_stu_vf1U-EC-6" value="S4" style="edgeLabel;html=1;align=center;verticalAlign=middle;resizable=0;points=[];fontSize=11;fontFamily=Helvetica;" parent="9UunoPqc_stu_vf1U-EC-1" vertex="1" connectable="0">
          <mxGeometry x="488.00228459412017" y="136.28570330146385" as="geometry" />
        </mxCell>
        <mxCell id="9UunoPqc_stu_vf1U-EC-7" value="L8" style="edgeLabel;html=1;align=center;verticalAlign=middle;resizable=0;points=[];fontSize=11;fontFamily=Helvetica;" parent="9UunoPqc_stu_vf1U-EC-1" vertex="1" connectable="0">
          <mxGeometry x="520.0044318047348" y="134.99518536701174" as="geometry" />
        </mxCell>
        <mxCell id="9UunoPqc_stu_vf1U-EC-8" value="H8" style="edgeLabel;html=1;align=center;verticalAlign=middle;resizable=0;points=[];fontSize=11;fontFamily=Helvetica;" parent="9UunoPqc_stu_vf1U-EC-1" vertex="1" connectable="0">
          <mxGeometry x="551.9979754264331" y="135.0002838532062" as="geometry" />
        </mxCell>
        <mxCell id="9UunoPqc_stu_vf1U-EC-9" value="Wsel" style="text;html=1;align=right;verticalAlign=middle;resizable=0;points=[];autosize=1;fontSize=11;fontFamily=Helvetica;" parent="9UunoPqc_stu_vf1U-EC-1" vertex="1">
          <mxGeometry x="388" y="168" width="40" height="20" as="geometry" />
        </mxCell>
        <mxCell id="9UunoPqc_stu_vf1U-EC-10" value="PCmut" style="text;html=1;align=right;verticalAlign=middle;resizable=0;points=[];autosize=1;fontSize=11;fontFamily=Helvetica;" parent="9UunoPqc_stu_vf1U-EC-1" vertex="1">
          <mxGeometry x="540" y="192" width="48" height="20" as="geometry" />
        </mxCell>
        <mxCell id="9UunoPqc_stu_vf1U-EC-11" value="Aout" style="text;html=1;align=left;verticalAlign=middle;resizable=0;points=[];autosize=1;fontSize=9;fontFamily=Helvetica;spacing=0;" parent="9UunoPqc_stu_vf1U-EC-1" vertex="1">
          <mxGeometry x="860" y="302" width="32" height="16" as="geometry" />
        </mxCell>
        <mxCell id="9UunoPqc_stu_vf1U-EC-12" value="Dout" style="text;html=1;align=left;verticalAlign=middle;resizable=0;points=[];autosize=1;fontSize=11;fontFamily=Helvetica;spacing=0;" parent="9UunoPqc_stu_vf1U-EC-1" vertex="1">
          <mxGeometry x="860" y="538" width="36" height="20" as="geometry" />
        </mxCell>
        <mxCell id="9UunoPqc_stu_vf1U-EC-13" value="Asel" style="text;html=1;align=center;verticalAlign=middle;resizable=0;points=[];autosize=1;fontSize=13;fontFamily=Helvetica;" parent="9UunoPqc_stu_vf1U-EC-1" vertex="1">
          <mxGeometry x="767" y="192" width="40" height="24" as="geometry" />
        </mxCell>
        <mxCell id="9UunoPqc_stu_vf1U-EC-14" value="Dsel" style="text;html=1;align=center;verticalAlign=middle;resizable=0;points=[];autosize=1;fontSize=13;fontFamily=Helvetica;spacing=0;" parent="9UunoPqc_stu_vf1U-EC-1" vertex="1">
          <mxGeometry x="764" y="416" width="40" height="24" as="geometry" />
        </mxCell>
        <mxCell id="9UunoPqc_stu_vf1U-EC-15" value="OP1" style="text;html=1;align=right;verticalAlign=middle;resizable=0;points=[];autosize=1;fontSize=9;" parent="9UunoPqc_stu_vf1U-EC-1" vertex="1">
          <mxGeometry x="844" y="658" width="32" height="16" as="geometry" />
        </mxCell>
        <mxCell id="9UunoPqc_stu_vf1U-EC-16" value="OP2" style="text;html=1;align=right;verticalAlign=middle;resizable=0;points=[];autosize=1;fontSize=9;" parent="9UunoPqc_stu_vf1U-EC-1" vertex="1">
          <mxGeometry x="844" y="678" width="32" height="16" as="geometry" />
        </mxCell>
        <mxCell id="9UunoPqc_stu_vf1U-EC-17" value="BUSY" style="text;html=1;align=right;verticalAlign=middle;resizable=0;points=[];autosize=1;fontSize=9;" parent="9UunoPqc_stu_vf1U-EC-1" vertex="1">
          <mxGeometry x="836" y="698" width="40" height="16" as="geometry" />
        </mxCell>
        <mxCell id="9UunoPqc_stu_vf1U-EC-18" value="RESET" style="text;html=1;align=right;verticalAlign=middle;resizable=0;points=[];autosize=1;fontSize=9;" parent="9UunoPqc_stu_vf1U-EC-1" vertex="1">
          <mxGeometry x="832" y="718" width="44" height="16" as="geometry" />
        </mxCell>
        <mxCell id="9UunoPqc_stu_vf1U-EC-19" value="PC" style="text;html=1;align=center;verticalAlign=middle;resizable=0;points=[];autosize=1;fontSize=9;fontFamily=Helvetica;spacing=0;" parent="9UunoPqc_stu_vf1U-EC-1" vertex="1">
          <mxGeometry x="720" y="212" width="28" height="16" as="geometry" />
        </mxCell>
        <mxCell id="9UunoPqc_stu_vf1U-EC-20" value="PC+2" style="text;html=1;align=center;verticalAlign=middle;resizable=0;points=[];autosize=1;fontSize=9;fontFamily=Helvetica;spacing=0;" parent="9UunoPqc_stu_vf1U-EC-1" vertex="1">
          <mxGeometry x="716" y="240" width="36" height="16" as="geometry" />
        </mxCell>
        <mxCell id="9UunoPqc_stu_vf1U-EC-21" value="EA" style="text;html=1;align=center;verticalAlign=middle;resizable=0;points=[];autosize=1;fontSize=9;fontFamily=Helvetica;spacing=0;" parent="9UunoPqc_stu_vf1U-EC-1" vertex="1">
          <mxGeometry x="720" y="276" width="28" height="16" as="geometry" />
        </mxCell>
        <mxCell id="9UunoPqc_stu_vf1U-EC-22" value="SP" style="text;html=1;align=center;verticalAlign=middle;resizable=0;points=[];autosize=1;fontSize=9;fontFamily=Helvetica;spacing=0;" parent="9UunoPqc_stu_vf1U-EC-1" vertex="1">
          <mxGeometry x="720" y="308" width="28" height="16" as="geometry" />
        </mxCell>
        <mxCell id="9UunoPqc_stu_vf1U-EC-23" value="SP+2" style="text;html=1;align=center;verticalAlign=middle;resizable=0;points=[];autosize=1;fontSize=9;fontFamily=Helvetica;spacing=0;" parent="9UunoPqc_stu_vf1U-EC-1" vertex="1">
          <mxGeometry x="716" y="344" width="36" height="16" as="geometry" />
        </mxCell>
        <mxCell id="9UunoPqc_stu_vf1U-EC-24" value="SP-2" style="text;html=1;align=center;verticalAlign=middle;resizable=0;points=[];autosize=1;fontSize=9;fontFamily=Helvetica;spacing=0;" parent="9UunoPqc_stu_vf1U-EC-1" vertex="1">
          <mxGeometry x="716" y="380" width="36" height="16" as="geometry" />
        </mxCell>
        <mxCell id="9UunoPqc_stu_vf1U-EC-25" value="PC" style="text;html=1;align=center;verticalAlign=middle;resizable=0;points=[];autosize=1;fontSize=9;fontFamily=Helvetica;spacing=0;" parent="9UunoPqc_stu_vf1U-EC-1" vertex="1">
          <mxGeometry x="720" y="432" width="28" height="16" as="geometry" />
        </mxCell>
        <mxCell id="9UunoPqc_stu_vf1U-EC-26" value="PC+2" style="text;html=1;align=center;verticalAlign=middle;resizable=0;points=[];autosize=1;fontSize=9;fontFamily=Helvetica;spacing=0;" parent="9UunoPqc_stu_vf1U-EC-1" vertex="1">
          <mxGeometry x="716" y="460" width="36" height="16" as="geometry" />
        </mxCell>
        <mxCell id="9UunoPqc_stu_vf1U-EC-27" value="PC+4" style="text;html=1;align=center;verticalAlign=middle;resizable=0;points=[];autosize=1;fontSize=9;fontFamily=Helvetica;spacing=0;" parent="9UunoPqc_stu_vf1U-EC-1" vertex="1">
          <mxGeometry x="716" y="496" width="36" height="16" as="geometry" />
        </mxCell>
        <mxCell id="9UunoPqc_stu_vf1U-EC-28" value="GR[Rd]" style="text;html=1;align=center;verticalAlign=middle;resizable=0;points=[];autosize=1;fontSize=9;fontFamily=Helvetica;spacing=0;" parent="9UunoPqc_stu_vf1U-EC-1" vertex="1">
          <mxGeometry x="708" y="527" width="44" height="16" as="geometry" />
        </mxCell>
        <mxCell id="9UunoPqc_stu_vf1U-EC-29" value="FLAG" style="text;html=1;align=center;verticalAlign=middle;resizable=0;points=[];autosize=1;fontSize=9;fontFamily=Helvetica;spacing=0;" parent="9UunoPqc_stu_vf1U-EC-1" vertex="1">
          <mxGeometry x="708" y="595" width="40" height="16" as="geometry" />
        </mxCell>
        <mxCell id="9UunoPqc_stu_vf1U-EC-30" value="GR[Rd]&amp;lt;&amp;lt;8" style="text;html=1;align=center;verticalAlign=middle;resizable=0;points=[];autosize=1;fontSize=9;fontFamily=Helvetica;spacing=0;" parent="9UunoPqc_stu_vf1U-EC-1" vertex="1">
          <mxGeometry x="690" y="560" width="60" height="16" as="geometry" />
        </mxCell>
        <mxCell id="9UunoPqc_stu_vf1U-EC-31" value="TMPld" style="text;html=1;align=center;verticalAlign=middle;resizable=0;points=[];autosize=1;fontSize=9;fontFamily=Helvetica;" parent="9UunoPqc_stu_vf1U-EC-1" vertex="1">
          <mxGeometry x="678" y="690" width="40" height="16" as="geometry" />
        </mxCell>
        <mxCell id="9UunoPqc_stu_vf1U-EC-32" value="GR[Rx]" style="text;html=1;strokeColor=none;fillColor=none;align=center;verticalAlign=middle;whiteSpace=wrap;rounded=0;labelBackgroundColor=none;fontFamily=Helvetica;fontSize=9;spacing=0;" parent="9UunoPqc_stu_vf1U-EC-1" vertex="1">
          <mxGeometry x="268" y="378" width="36" height="20" as="geometry" />
        </mxCell>
        <mxCell id="9UunoPqc_stu_vf1U-EC-33" value="GR[Rd]" style="text;html=1;strokeColor=none;fillColor=none;align=center;verticalAlign=middle;whiteSpace=wrap;rounded=0;labelBackgroundColor=none;fontFamily=Helvetica;fontSize=9;spacing=0;" parent="9UunoPqc_stu_vf1U-EC-1" vertex="1">
          <mxGeometry x="268" y="564" width="36" height="12" as="geometry" />
        </mxCell>
        <mxCell id="9UunoPqc_stu_vf1U-EC-34" value="GR[Rs]" style="text;html=1;strokeColor=none;fillColor=none;align=center;verticalAlign=middle;whiteSpace=wrap;rounded=0;labelBackgroundColor=none;fontFamily=Helvetica;fontSize=9;spacing=0;" parent="9UunoPqc_stu_vf1U-EC-1" vertex="1">
          <mxGeometry x="268" y="400" width="36" height="20" as="geometry" />
        </mxCell>
        <mxCell id="9UunoPqc_stu_vf1U-EC-35" value="GR[Rd]" style="text;html=1;align=right;verticalAlign=middle;resizable=0;points=[];autosize=1;fontSize=9;fontFamily=Helvetica;" parent="9UunoPqc_stu_vf1U-EC-1" vertex="1">
          <mxGeometry x="104" y="432" width="44" height="16" as="geometry" />
        </mxCell>
        <mxCell id="9UunoPqc_stu_vf1U-EC-36" value="A" style="text;html=1;strokeColor=none;fillColor=none;align=center;verticalAlign=middle;whiteSpace=wrap;rounded=0;fontFamily=Helvetica;fontSize=9;" parent="9UunoPqc_stu_vf1U-EC-1" vertex="1">
          <mxGeometry x="248" y="632" width="40" height="20" as="geometry" />
        </mxCell>
        <mxCell id="9UunoPqc_stu_vf1U-EC-37" value="B" style="text;html=1;strokeColor=none;fillColor=none;align=center;verticalAlign=middle;whiteSpace=wrap;rounded=0;fontFamily=Helvetica;fontSize=9;" parent="9UunoPqc_stu_vf1U-EC-1" vertex="1">
          <mxGeometry x="248" y="688" width="40" height="20" as="geometry" />
        </mxCell>
        <mxCell id="9UunoPqc_stu_vf1U-EC-38" value="BUSY" style="text;html=1;align=right;verticalAlign=middle;resizable=0;points=[];autosize=1;fontSize=9;fontFamily=Helvetica;" parent="9UunoPqc_stu_vf1U-EC-1" vertex="1">
          <mxGeometry x="112" y="684" width="40" height="16" as="geometry" />
        </mxCell>
        <mxCell id="9UunoPqc_stu_vf1U-EC-39" value="START" style="text;html=1;strokeColor=none;fillColor=none;align=center;verticalAlign=middle;whiteSpace=wrap;rounded=0;fontFamily=Helvetica;fontSize=9;" parent="9UunoPqc_stu_vf1U-EC-1" vertex="1">
          <mxGeometry x="204" y="744" width="40" height="12" as="geometry" />
        </mxCell>
        <mxCell id="9UunoPqc_stu_vf1U-EC-40" value="OP1" style="text;html=1;align=right;verticalAlign=middle;resizable=0;points=[];autosize=1;fontSize=9;fontFamily=Helvetica;" parent="9UunoPqc_stu_vf1U-EC-1" vertex="1">
          <mxGeometry x="144" y="732" width="32" height="16" as="geometry" />
        </mxCell>
        <mxCell id="9UunoPqc_stu_vf1U-EC-41" value="GR[Rd]" style="text;html=1;strokeColor=none;fillColor=none;align=center;verticalAlign=middle;whiteSpace=wrap;rounded=0;fontFamily=Helvetica;fontSize=9;spacing=0;" parent="9UunoPqc_stu_vf1U-EC-1" vertex="1">
          <mxGeometry x="276" y="638" width="40" height="12" as="geometry" />
        </mxCell>
        <mxCell id="9UunoPqc_stu_vf1U-EC-42" value="GR[Rs]" style="text;html=1;strokeColor=none;fillColor=none;align=center;verticalAlign=middle;whiteSpace=wrap;rounded=0;fontFamily=Helvetica;fontSize=9;spacing=0;" parent="9UunoPqc_stu_vf1U-EC-1" vertex="1">
          <mxGeometry x="420" y="380" width="40" height="20" as="geometry" />
        </mxCell>
        <mxCell id="9UunoPqc_stu_vf1U-EC-43" value="Bsel" style="text;html=1;align=right;verticalAlign=middle;resizable=0;points=[];autosize=1;fontSize=11;fontFamily=Helvetica;" parent="9UunoPqc_stu_vf1U-EC-1" vertex="1">
          <mxGeometry x="377" y="444" width="36" height="20" as="geometry" />
        </mxCell>
        <mxCell id="9UunoPqc_stu_vf1U-EC-44" value="SPmut" style="text;html=1;align=right;verticalAlign=middle;resizable=0;points=[];autosize=1;fontSize=11;fontFamily=Helvetica;" parent="9UunoPqc_stu_vf1U-EC-1" vertex="1">
          <mxGeometry x="68" y="548" width="48" height="20" as="geometry" />
        </mxCell>
        <mxCell id="9UunoPqc_stu_vf1U-EC-45" value="FLGld" style="text;html=1;align=right;verticalAlign=middle;resizable=0;points=[];autosize=1;fontSize=11;fontFamily=Helvetica;" parent="9UunoPqc_stu_vf1U-EC-1" vertex="1">
          <mxGeometry x="72" y="588" width="44" height="20" as="geometry" />
        </mxCell>
        <mxCell id="9UunoPqc_stu_vf1U-EC-46" value="GRld" style="text;html=1;align=right;verticalAlign=middle;resizable=0;points=[];autosize=1;fontSize=11;fontFamily=Helvetica;" parent="9UunoPqc_stu_vf1U-EC-1" vertex="1">
          <mxGeometry x="68" y="420" width="40" height="20" as="geometry" />
        </mxCell>
        <mxCell id="9UunoPqc_stu_vf1U-EC-47" value="FLAG" style="text;html=1;strokeColor=none;fillColor=none;align=center;verticalAlign=middle;whiteSpace=wrap;rounded=0;labelBackgroundColor=none;fontFamily=Helvetica;fontSize=9;spacing=0;" parent="9UunoPqc_stu_vf1U-EC-1" vertex="1">
          <mxGeometry x="268" y="584" width="32" height="12" as="geometry" />
        </mxCell>
        <mxCell id="9UunoPqc_stu_vf1U-EC-48" value="SP" style="text;html=1;strokeColor=none;fillColor=none;align=center;verticalAlign=middle;whiteSpace=wrap;rounded=0;labelBackgroundColor=none;fontFamily=Helvetica;fontSize=9;spacing=0;" parent="9UunoPqc_stu_vf1U-EC-1" vertex="1">
          <mxGeometry x="268" y="545" width="20" height="12" as="geometry" />
        </mxCell>
        <mxCell id="9UunoPqc_stu_vf1U-EC-49" value="FP" style="text;html=1;strokeColor=none;fillColor=none;align=center;verticalAlign=middle;whiteSpace=wrap;rounded=0;labelBackgroundColor=none;fontFamily=Helvetica;fontSize=9;spacing=0;" parent="9UunoPqc_stu_vf1U-EC-1" vertex="1">
          <mxGeometry x="268" y="523" width="20" height="12" as="geometry" />
        </mxCell>
        <mxCell id="9UunoPqc_stu_vf1U-EC-50" value="Din" style="text;html=1;strokeColor=none;fillColor=none;align=right;verticalAlign=middle;whiteSpace=wrap;rounded=0;" parent="9UunoPqc_stu_vf1U-EC-1" vertex="1">
          <mxGeometry x="40" y="116" width="28" height="16" as="geometry" />
        </mxCell>
      </root>
    </mxGraphModel>
  </diagram>
</mxfile>
